<svg width="18" height="18" viewBox="0 0 18 18" fill="none" xmlns="http://www.w3.org/2000/svg">
<path d="M14.0625 12.7504C14.0625 12.4398 13.8107 12.1879 13.5 12.1879C13.1894 12.1879 12.9375 12.4398 12.9375 12.7504H14.0625ZM12.9375 15.7504C12.9375 16.0611 13.1894 16.3129 13.5 16.3129C13.8107 16.3129 14.0625 16.0611 14.0625 15.7504H12.9375ZM3.83609 5.63554C3.52909 5.588 3.24167 5.79833 3.19413 6.10533C3.14658 6.41233 3.35691 6.69974 3.66392 6.74729L3.83609 5.63554ZM6.54712 7.49098C6.83687 7.60304 7.16259 7.45897 7.27464 7.16922C7.38669 6.87947 7.24263 6.55375 6.95288 6.44171L6.54712 7.49098ZM9.5625 4.54046C9.5625 4.2298 9.31065 3.97796 9 3.97796C8.68935 3.97796 8.4375 4.2298 8.4375 4.54046H9.5625ZM9 15.7504V16.3129C9.31065 16.3129 9.5625 16.0611 9.5625 15.7504H9ZM15.9375 10.5004C15.9375 10.8111 16.1894 11.0629 16.5 11.0629C16.8107 11.0629 17.0625 10.8111 17.0625 10.5004H15.9375ZM3.83609 8.63556C3.52909 8.58801 3.24167 8.79831 3.19413 9.10536C3.14658 9.41234 3.35691 9.69974 3.66392 9.74729L3.83609 8.63556ZM5.1124 10.0396C5.41361 10.1156 5.71941 9.93306 5.79541 9.63179C5.87141 9.33059 5.68883 9.02481 5.3876 8.94876L5.1124 10.0396ZM12.9375 12.7504V15.7504H14.0625V12.7504H12.9375ZM3.66392 6.74729C4.58549 6.89001 5.60314 7.12594 6.54712 7.49098L6.95288 6.44171C5.91353 6.03979 4.81317 5.78686 3.83609 5.63554L3.66392 6.74729ZM8.4375 4.54046V15.7504H9.5625V4.54046H8.4375ZM2.93259 2.81783C4.56485 3.00227 6.68759 3.4943 8.1648 4.52943L8.8104 3.60811C7.10211 2.41106 4.75421 1.89152 3.0589 1.69994L2.93259 2.81783ZM2.93259 14.3386C4.56485 14.5231 6.68759 15.0151 8.1648 16.0502L8.8104 15.1289C7.10211 13.9318 4.75421 13.4123 3.0589 13.2208L2.93259 14.3386ZM0.9375 3.70182V12.1504H2.0625V3.70182H0.9375ZM3.0589 13.2208C2.49658 13.1572 2.0625 12.6897 2.0625 12.1504H0.9375C0.9375 13.3078 1.84806 14.2161 2.93259 14.3386L3.0589 13.2208ZM3.0589 1.69994C1.8499 1.56333 0.9375 2.5724 0.9375 3.70182H2.0625C2.0625 3.13451 2.49473 2.76836 2.93259 2.81783L3.0589 1.69994ZM14.9411 1.69994C13.2458 1.89152 10.8979 2.41106 9.1896 3.60811L9.8352 4.52943C11.3124 3.4943 13.4351 3.00227 15.0674 2.81783L14.9411 1.69994ZM15.9375 3.70182V10.5004H17.0625V3.70182H15.9375ZM15.0674 2.81783C15.5053 2.76836 15.9375 3.13451 15.9375 3.70182H17.0625C17.0625 2.5724 16.1501 1.56333 14.9411 1.69994L15.0674 2.81783ZM8.1648 4.52943C8.66475 4.87972 9.33525 4.87972 9.8352 4.52943L9.1896 3.60811C9.07725 3.68683 8.92275 3.68683 8.8104 3.60811L8.1648 4.52943ZM8.1648 16.0502C8.41568 16.226 8.70885 16.3129 9 16.3129V15.1879C8.93183 15.1879 8.86567 15.1676 8.8104 15.1289L8.1648 16.0502ZM3.66392 9.74729C4.12835 9.81921 4.6186 9.91506 5.1124 10.0396L5.3876 8.94876C4.85585 8.81466 4.33089 8.71214 3.83609 8.63556L3.66392 9.74729Z" fill="#303E7C" style="fill:#303E7C;fill:color(display-p3 0.1882 0.2431 0.4863);fill-opacity:1;"/>
<path d="M13.333 11.584V15.584" stroke="#303E7C" style="stroke:#303E7C;stroke:color(display-p3 0.1882 0.2431 0.4863);stroke-opacity:1;" stroke-width="1.13146" stroke-linecap="round"/>
<path d="M14.167 9.08398C14.167 9.49821 13.8312 9.83398 13.417 9.83398C13.0028 9.83398 12.667 9.49821 12.667 9.08398C12.667 8.66976 13.0028 8.33398 13.417 8.33398C13.8312 8.33398 14.167 8.66976 14.167 9.08398Z" fill="#303E7C" style="fill:#303E7C;fill:color(display-p3 0.1882 0.2431 0.4863);fill-opacity:1;"/>
</svg>
