<svg width="18" height="18" viewBox="0 0 18 18" fill="none" xmlns="http://www.w3.org/2000/svg">
<g clip-path="url(#clip0_655_10459)">
<path d="M9.08992 9.58437C9.03015 9.57686 8.96968 9.57686 8.90992 9.58437C8.26571 9.56078 7.6565 9.28527 7.21336 8.81711C6.77021 8.34894 6.52854 7.72554 6.54033 7.08101C6.55212 6.43648 6.81644 5.82233 7.27642 5.37069C7.7364 4.91905 8.35528 4.66602 8.99992 4.66602C9.64456 4.66602 10.2634 4.91905 10.7234 5.37069C11.1834 5.82233 11.4477 6.43648 11.4595 7.08101C11.4713 7.72554 11.2296 8.34894 10.7865 8.81711C10.3433 9.28527 9.73412 9.56078 9.08992 9.58437Z" stroke="#303E7C" style="stroke:#303E7C;stroke:color(display-p3 0.1882 0.2431 0.4863);stroke-opacity:1;" stroke-width="1.12978" stroke-linecap="round" stroke-linejoin="round"/>
<path d="M14.0549 14.535C12.6766 15.8018 10.872 16.5033 8.99995 16.5C7.12792 16.5033 5.32324 15.8018 3.94495 14.535C4.0104 14.1347 4.1633 13.7538 4.39275 13.4193C4.6222 13.0849 4.92256 12.8051 5.27245 12.6C6.40033 11.9298 7.68801 11.5762 8.99995 11.5762C10.3119 11.5762 11.5996 11.9298 12.7274 12.6C13.0773 12.8051 13.3777 13.0849 13.6071 13.4193C13.8366 13.7538 13.9895 14.1347 14.0549 14.535Z" stroke="#303E7C" style="stroke:#303E7C;stroke:color(display-p3 0.1882 0.2431 0.4863);stroke-opacity:1;" stroke-width="1.12978" stroke-linecap="round" stroke-linejoin="round"/>
<path d="M16.5 9C16.5 10.4834 16.0601 11.9334 15.236 13.1668C14.4119 14.4001 13.2406 15.3614 11.8701 15.9291C10.4997 16.4968 8.99168 16.6453 7.53683 16.3559C6.08197 16.0665 4.7456 15.3522 3.6967 14.3033C2.64781 13.2544 1.9335 11.918 1.64411 10.4632C1.35472 9.00832 1.50325 7.50032 2.07091 6.12987C2.63856 4.75943 3.59986 3.58809 4.83323 2.76398C6.0666 1.93987 7.51664 1.5 9 1.5C10.9891 1.5 12.8968 2.29018 14.3033 3.6967C15.7098 5.10322 16.5 7.01088 16.5 9Z" stroke="#303E7C" style="stroke:#303E7C;stroke:color(display-p3 0.1882 0.2431 0.4863);stroke-opacity:1;" stroke-width="1.12978" stroke-linecap="round" stroke-linejoin="round"/>
</g>
<defs>
<clipPath id="clip0_655_10459">
<rect width="18" height="18" fill="white" style="fill:white;fill-opacity:1;"/>
</clipPath>
</defs>
</svg>
