<svg width="18" height="18" viewBox="0 0 18 18" fill="none" xmlns="http://www.w3.org/2000/svg">
<path d="M8.54557 1.71277C8.41922 1.58643 8.24097 1.526 8.06409 1.55429C7.88776 1.58066 7.73422 1.68942 7.65073 1.84735L4.11093 8.53418L2.18146 10.4634C1.58792 11.0575 1.40637 11.9009 1.61621 12.6573C0.921603 13.5396 0.971041 14.8203 1.78403 15.6344C2.22293 16.0727 2.79917 16.2919 3.3754 16.2919C3.86759 16.2919 4.35428 16.1219 4.76078 15.8019C4.95825 15.8568 5.15985 15.8942 5.36365 15.8942C5.75833 15.8939 6.15 15.7832 6.50046 15.5775L7.94956 17.0261C8.22339 17.3002 8.58347 17.437 8.94354 17.437C9.30362 17.437 9.66397 17.3002 9.93808 17.0261C10.4863 16.4778 10.4863 15.5858 9.93808 15.0375L8.54584 13.6453L8.88394 13.3072L15.5708 9.76685C15.7284 9.68335 15.8372 9.52982 15.8641 9.35321C15.8905 9.17688 15.8317 8.99808 15.7054 8.87201L8.54557 1.71277ZM2.57971 14.8387C2.28665 14.5453 2.19382 14.1303 2.29242 13.7557L3.66242 15.1257C3.28806 15.2243 2.87305 15.1317 2.57971 14.8387ZM4.56851 14.441L2.97714 12.8496C2.53879 12.4113 2.53879 11.6974 2.97714 11.2588L4.56851 9.66742L7.7507 12.8496L6.15933 14.4407C5.72098 14.8796 5.00742 14.8799 4.56851 14.441ZM9.14267 15.8329C9.21326 15.9035 9.22397 15.9879 9.22397 16.0318C9.22397 16.0757 9.21326 16.1601 9.14295 16.2304C9.03528 16.3375 8.85318 16.3389 8.74497 16.2307L7.35245 14.8387L7.75043 14.4407L9.14267 15.8329ZM8.64994 12.1583L5.2601 8.76791L8.28876 3.04678L14.3716 9.12909L8.64994 12.1583ZM10.6879 2.25V1.125C10.6879 0.814362 10.9395 0.5625 11.2504 0.5625C11.5613 0.5625 11.8129 0.814362 11.8129 1.125V2.25C11.8129 2.56064 11.5613 2.8125 11.2504 2.8125C10.9395 2.8125 10.6879 2.56064 10.6879 2.25ZM16.8754 6.18723C16.8754 6.49786 16.6238 6.74973 16.3129 6.74973H15.1879C14.877 6.74973 14.6254 6.49786 14.6254 6.18723C14.6254 5.87659 14.877 5.62473 15.1879 5.62473H16.3129C16.6238 5.62473 16.8754 5.87659 16.8754 6.18723ZM13.1027 4.33493C12.883 4.1152 12.883 3.75925 13.1027 3.53952L14.2277 2.41452C14.4474 2.19479 14.8034 2.19479 15.0231 2.41452C15.2428 2.63425 15.2428 2.9902 15.0231 3.20993L13.8981 4.33493C13.7882 4.44479 13.6443 4.49973 13.5004 4.49973C13.3565 4.49973 13.2126 4.44479 13.1027 4.33493Z" fill="#303E7C" style="fill:#303E7C;fill:color(display-p3 0.1882 0.2431 0.4863);fill-opacity:1;"/>
</svg>
