<svg width="19" height="19" viewBox="0 0 19 19" fill="none" xmlns="http://www.w3.org/2000/svg">
<g clip-path="url(#clip0_297_15857)">
<path d="M8.74414 14.1646H12.4531V15.5216H8.74414V14.1646Z" fill="#1A1A1A" style="fill:#1A1A1A;fill:color(display-p3 0.1020 0.1020 0.1020);fill-opacity:1;"/>
<path d="M16.5484 1.25098H14.834V2.82882L16.5484 4.12532V1.25098Z" fill="#1A1A1A" style="fill:#1A1A1A;fill:color(display-p3 0.1020 0.1020 0.1020);fill-opacity:1;"/>
<path d="M1.96582 8.92838V17.9773H5.30872V15.5221H7.69056V13.1104H10.0724V10.6721H12.4542V8.24705H16.1367L9.58316 3.32764L1.96582 8.92838Z" fill="#1A1A1A" style="fill:#1A1A1A;fill:color(display-p3 0.1020 0.1020 0.1020);fill-opacity:1;"/>
<path d="M6.3623 16.5762H10.0713V17.9766H6.3623V16.5762Z" fill="#1A1A1A" style="fill:#1A1A1A;fill:color(display-p3 0.1020 0.1020 0.1020);fill-opacity:1;"/>
<path d="M11.127 16.5762H14.8359V17.9766H11.127V16.5762Z" fill="#1A1A1A" style="fill:#1A1A1A;fill:color(display-p3 0.1020 0.1020 0.1020);fill-opacity:1;"/>
<path d="M0.585938 6.89301V7.98022H1.47384L9.58921 2.01329L17.5382 7.98022H18.5859V6.98825L9.58376 0.180664L0.585938 6.89301Z" fill="#1A1A1A" style="fill:#1A1A1A;fill:color(display-p3 0.1020 0.1020 0.1020);fill-opacity:1;"/>
<path d="M15.8916 16.5762H17.2079V17.9766H15.8916V16.5762Z" fill="#1A1A1A" style="fill:#1A1A1A;fill:color(display-p3 0.1020 0.1020 0.1020);fill-opacity:1;"/>
<path d="M13.5088 9.30078H17.2069V10.6711H13.5088V9.30078Z" fill="#1A1A1A" style="fill:#1A1A1A;fill:color(display-p3 0.1020 0.1020 0.1020);fill-opacity:1;"/>
<path d="M11.127 11.7261H14.8359V13.1097H11.127V11.7261Z" fill="#1A1A1A" style="fill:#1A1A1A;fill:color(display-p3 0.1020 0.1020 0.1020);fill-opacity:1;"/>
<path d="M13.5088 14.1646H17.2069V15.5216H13.5088V14.1646Z" fill="#1A1A1A" style="fill:#1A1A1A;fill:color(display-p3 0.1020 0.1020 0.1020);fill-opacity:1;"/>
<path d="M15.8916 11.7261H17.2079V13.1097H15.8916V11.7261Z" fill="#1A1A1A" style="fill:#1A1A1A;fill:color(display-p3 0.1020 0.1020 0.1020);fill-opacity:1;"/>
</g>
<defs>
<clipPath id="clip0_297_15857">
<rect width="18" height="18" fill="white" style="fill:white;fill-opacity:1;" transform="translate(0.585938 0.078125)"/>
</clipPath>
</defs>
</svg>
