<svg width="14" height="12" viewBox="0 0 14 12" fill="none" xmlns="http://www.w3.org/2000/svg">
<path d="M11.0869 1.16128C11.314 1.07871 11.4311 0.827684 11.3485 0.600606C11.266 0.373529 11.0149 0.256386 10.7879 0.338959L3.49997 2.9891V0.75012C3.49997 0.508496 3.30409 0.31262 3.06247 0.31262H2.18747C1.94585 0.31262 1.74997 0.508496 1.74997 0.75012V3.62547L1.16286 3.83896C0.935785 3.92153 0.818642 4.17255 0.901215 4.39963C0.983789 4.62671 1.23481 4.74385 1.46189 4.66128L11.0869 1.16128Z" fill="#B3BDE5" style="fill:#B3BDE5;fill:color(display-p3 0.7020 0.7412 0.8980);fill-opacity:1;"/>
<path fill-rule="evenodd" clip-rule="evenodd" d="M1.76103 5.48359L10.5 2.3058V4.30167L12.8369 5.15146C13.064 5.23403 13.1811 5.48505 13.0985 5.71213C13.016 5.93921 12.7649 6.05635 12.5379 5.97378L12.2499 5.86906V10.8126H12.6875C12.9291 10.8126 13.125 11.0085 13.125 11.2501C13.125 11.4917 12.9291 11.6876 12.6875 11.6876H1.31247C1.07084 11.6876 0.874969 11.4917 0.874969 11.2501C0.874969 11.0085 1.07084 10.8126 1.31247 10.8126H1.74997V5.48756L1.76103 5.48359ZM10.5 10.8126V5.23273L11.3749 5.55087V10.8126H10.5ZM5.24997 7.31262C5.00835 7.31262 4.81247 7.5085 4.81247 7.75012V10.3751C4.81247 10.6167 5.00835 10.8126 5.24997 10.8126H6.99997C7.24159 10.8126 7.43747 10.6167 7.43747 10.3751V7.75012C7.43747 7.5085 7.24159 7.31262 6.99997 7.31262H5.24997Z" fill="#B3BDE5" style="fill:#B3BDE5;fill:color(display-p3 0.7020 0.7412 0.8980);fill-opacity:1;"/>
</svg>
