<svg width="19" height="19" viewBox="0 0 19 19" fill="none" xmlns="http://www.w3.org/2000/svg">
<path d="M3.95703 13.9533C3.74703 13.9533 3.58203 14.1183 3.58203 14.3283C3.58203 14.5383 3.74703 14.7033 3.95703 14.7033H4.33203V15.0783C4.33203 15.2883 4.49703 15.4533 4.70703 15.4533C4.91703 15.4533 5.08203 15.2883 5.08203 15.0783V14.7033H15.0495L14.937 14.8158C14.787 14.9658 14.787 15.1983 14.937 15.3483C15.087 15.4983 15.3195 15.4983 15.4695 15.3483L16.2195 14.5983C16.362 14.4558 16.3695 14.2158 16.2195 14.0658L15.4695 13.3158C15.3195 13.1658 15.087 13.1658 14.937 13.3158C14.787 13.4658 14.787 13.6983 14.937 13.8483L15.0495 13.9608H5.08203V3.98576L5.19453 4.09826C5.34453 4.24826 5.57703 4.24826 5.72703 4.09826C5.87703 3.94826 5.87703 3.71576 5.72703 3.56576L4.97703 2.81576C4.83453 2.67326 4.59453 2.66576 4.44453 2.81576L3.69453 3.56576C3.54453 3.71576 3.54453 3.94826 3.69453 4.09826C3.84453 4.24826 4.07703 4.24826 4.22703 4.09826L4.33953 3.98576V13.9533H3.96453H3.95703Z" fill="#1A1A1A" style="fill:#1A1A1A;fill:color(display-p3 0.1020 0.1020 0.1020);fill-opacity:1;"/>
<path d="M10.0843 3.79086L5.99679 6.51336C5.82429 6.62586 5.77929 6.85836 5.89179 7.03086C6.00429 7.20336 6.23679 7.24836 6.40929 7.13586L6.57429 7.02336V11.5084C6.57429 12.0259 6.99429 12.4459 7.51179 12.4459H13.8868C14.4043 12.4459 14.8243 12.0259 14.8243 11.5084V7.02336L14.9893 7.13586C15.1618 7.24836 15.3943 7.20336 15.5068 7.03086C15.6193 6.85836 15.5743 6.62586 15.4018 6.51336L11.3143 3.79086C10.9393 3.53586 10.4443 3.53586 10.0693 3.79086H10.0843Z" fill="#1A1A1A" style="fill:#1A1A1A;fill:color(display-p3 0.1020 0.1020 0.1020);fill-opacity:1;"/>
</svg>
