<svg width="19" height="20" viewBox="0 0 19 20" fill="none" xmlns="http://www.w3.org/2000/svg">
<path d="M7.18501 19.0438C10.8641 19.0438 13.8466 16.0614 13.8466 12.3823C13.8466 8.70319 10.8641 5.7207 7.18501 5.7207C3.50592 5.7207 0.523438 8.70319 0.523438 12.3823C0.523438 16.0614 3.50592 19.0438 7.18501 19.0438Z" fill="#FC4750" style="fill:#FC4750;fill:color(display-p3 0.9882 0.2784 0.3137);fill-opacity:1;"/>
<path d="M7.1867 17.8324C10.1969 17.8324 12.6371 15.3922 12.6371 12.382C12.6371 9.37186 10.1969 6.93164 7.1867 6.93164C4.17654 6.93164 1.73633 9.37186 1.73633 12.382C1.73633 15.3922 4.17654 17.8324 7.1867 17.8324Z" fill="#F9F9F9" style="fill:#F9F9F9;fill:color(display-p3 0.9765 0.9765 0.9765);fill-opacity:1;"/>
<path d="M7.18632 16.0152C9.19309 16.0152 10.8199 14.3884 10.8199 12.3816C10.8199 10.3749 9.19309 8.74805 7.18632 8.74805C5.17954 8.74805 3.55273 10.3749 3.55273 12.3816C3.55273 14.3884 5.17954 16.0152 7.18632 16.0152Z" fill="#FC4750" style="fill:#FC4750;fill:color(display-p3 0.9882 0.2784 0.3137);fill-opacity:1;"/>
<path d="M7.18411 14.8038C8.52196 14.8038 9.6065 13.7192 9.6065 12.3814C9.6065 11.0435 8.52196 9.95898 7.18411 9.95898C5.84626 9.95898 4.76172 11.0435 4.76172 12.3814C4.76172 13.7192 5.84626 14.8038 7.18411 14.8038Z" fill="#F9F9F9" style="fill:#F9F9F9;fill:color(display-p3 0.9765 0.9765 0.9765);fill-opacity:1;"/>
<path d="M7.1858 13.5933C7.85473 13.5933 8.397 13.051 8.397 12.3821C8.397 11.7132 7.85473 11.1709 7.1858 11.1709C6.51688 11.1709 5.97461 11.7132 5.97461 12.3821C5.97461 13.051 6.51688 13.5933 7.1858 13.5933Z" fill="#FC4750" style="fill:#FC4750;fill:color(display-p3 0.9882 0.2784 0.3137);fill-opacity:1;"/>
<path d="M18.6732 4.96329C18.6187 4.73922 18.4309 4.5636 18.2068 4.52121L15.5725 3.99434L15.0456 1.35999C14.9972 1.12986 14.8276 0.948182 14.6035 0.893679C14.3795 0.839175 14.1372 0.911847 13.9919 1.09353L10.9639 4.72711C10.8428 4.87851 10.7943 5.0723 10.8428 5.26003L11.4484 7.68242C11.5029 7.90044 11.6725 8.07 11.8905 8.12451L14.3129 8.7301C14.3552 8.74222 14.4037 8.74827 14.4521 8.74827C14.5914 8.74827 14.7307 8.69982 14.8397 8.60899L18.4733 5.581C18.655 5.4296 18.7277 5.19342 18.6732 4.96329Z" fill="#F6B545" style="fill:#F6B545;fill:color(display-p3 0.9647 0.7098 0.2706);fill-opacity:1;"/>
<path d="M7.18524 12.9879C7.02778 12.9879 6.87638 12.9273 6.75526 12.8123C6.51908 12.5761 6.51908 12.1945 6.75526 11.9584L15.8392 2.8744C16.0754 2.63822 16.4569 2.63822 16.6931 2.8744C16.9293 3.11059 16.9293 3.49211 16.6931 3.72829L7.60915 12.8123C7.49409 12.9273 7.34269 12.9879 7.18524 12.9879Z" fill="#7F4122" style="fill:#7F4122;fill:color(display-p3 0.4980 0.2549 0.1333);fill-opacity:1;"/>
</svg>
