<svg width="18" height="6" viewBox="0 0 18 6" fill="none" xmlns="http://www.w3.org/2000/svg">
<path d="M0.742102 3.6539L3.4781 5.8139C3.6941 5.9579 3.9821 6.0299 4.2701 5.8859C4.4861 5.7419 4.7021 5.5259 4.7021 5.2379V4.3019H6.5021C6.9341 4.3019 7.2221 3.9419 7.2221 3.5819V2.5019C7.2221 2.1419 6.9341 1.7819 6.5021 1.7819H4.6301V0.917898C4.6301 0.629898 4.4861 0.413899 4.1981 0.269899C3.9821 0.125899 3.6941 0.197898 3.4781 0.341898L0.742102 2.5019C0.598102 2.6459 0.454102 2.8619 0.454102 3.0779C0.454102 3.2939 0.526102 3.5099 0.742102 3.6539Z" fill="#1A1A1A" style="fill:#1A1A1A;fill:color(display-p3 0.1020 0.1020 0.1020);fill-opacity:1;"/>
<path d="M13.9898 5.8859C14.0618 5.9579 14.2058 5.9579 14.2778 5.9579C14.4218 5.9579 14.5658 5.8859 14.7098 5.8139L17.4458 3.6539C17.5898 3.5099 17.7338 3.2939 17.7338 3.0779C17.7338 2.8619 17.6618 2.6459 17.4458 2.5019L14.7098 0.341898C14.4938 0.197898 14.2058 0.125899 13.9178 0.269899C13.6298 0.413899 13.4858 0.629898 13.4858 0.917898V1.8539H11.6858C11.2538 1.8539 10.9658 2.2139 10.9658 2.5739V3.6539C10.9658 4.0139 11.2538 4.3739 11.6858 4.3739H13.4858V5.3099C13.5578 5.5259 13.7018 5.8139 13.9898 5.8859Z" fill="#1A1A1A" style="fill:#1A1A1A;fill:color(display-p3 0.1020 0.1020 0.1020);fill-opacity:1;"/>
</svg>
