<svg width="17" height="17" viewBox="0 0 17 17" fill="none" xmlns="http://www.w3.org/2000/svg">
<g clip-path="url(#clip0_527_805)">
<path d="M1.04495 10.9824H8.68349V12.3859H13.4584V10.9855H15.3554C15.4783 12.6546 15.488 14.1407 13.776 15.2735C13.7551 15.2873 13.7383 15.3062 13.6919 15.3474C13.9025 15.5223 14.1099 15.6951 14.3154 15.8659C14.0381 16.131 13.8153 16.3441 13.5599 16.5888C13.3345 16.3564 13.0908 16.0867 12.8252 15.8409C12.7472 15.7686 12.6091 15.739 12.4959 15.7318C12.3108 15.7206 12.1232 15.7507 11.9366 15.7512C9.45637 15.7527 6.97612 15.7522 4.49537 15.7522C4.37658 15.7522 4.24964 15.7752 4.14003 15.742C3.80916 15.6426 3.59912 15.7961 3.40233 16.0331C3.2346 16.235 3.04342 16.417 2.86856 16.6016C2.63251 16.3533 2.4189 16.129 2.18235 15.8797C2.3409 15.7395 2.54227 15.5611 2.76863 15.3602C2.61263 15.2485 2.49588 15.1711 2.38525 15.0854C1.55629 14.4466 1.10817 13.5993 1.04954 12.5588C1.02048 12.0433 1.04444 11.5249 1.04444 10.9824H1.04495Z" fill="#303E7C" style="fill:#303E7C;fill:color(display-p3 0.1882 0.2431 0.4863);fill-opacity:1;"/>
<path d="M1.04984 7.12117C1.04577 7.0289 1.03863 6.9458 1.03863 6.8627C1.03812 5.51169 1.03659 4.16119 1.03863 2.81019C1.04067 1.32561 2.071 0.289669 3.55354 0.300375C4.05112 0.303944 4.56399 0.293748 5.0422 0.406416C5.89053 0.606773 6.42481 1.1951 6.68278 2.02406C6.73274 2.18516 6.79748 2.26316 6.97439 2.31108C7.97261 2.58179 8.67309 3.51475 8.68583 4.55579C8.68787 4.72352 8.68583 4.89125 8.68583 5.07325H3.96088C3.73554 3.88182 4.38301 2.65215 5.73656 2.26826C5.61421 1.73652 5.09063 1.28788 4.54105 1.26851C4.12555 1.25373 3.70852 1.2522 3.29302 1.26851C2.57674 1.29655 2.00065 1.95421 1.99759 2.74289C1.99249 4.10206 1.99606 5.46173 1.99606 6.82089C1.99606 6.91368 1.99606 7.00646 1.99606 7.12066H1.04882L1.04984 7.12117Z" fill="#303E7C" style="fill:#303E7C;fill:color(display-p3 0.1882 0.2431 0.4863);fill-opacity:1;"/>
<path d="M8.67022 10.0288C8.5703 10.0288 8.49536 10.0288 8.42041 10.0288C5.99268 10.0288 3.56444 10.0293 1.13671 10.0283C0.614146 10.0283 0.238414 9.78105 0.106372 9.35892C-0.0924556 8.72369 0.35771 8.11191 1.04392 8.10274C1.77397 8.09305 2.50403 8.10019 3.23408 8.10019C4.94909 8.10019 6.6636 8.10019 8.37861 8.10019C8.47038 8.10019 8.56214 8.10019 8.67022 8.10019V10.0283V10.0288Z" fill="#303E7C" style="fill:#303E7C;fill:color(display-p3 0.1882 0.2431 0.4863);fill-opacity:1;"/>
<path d="M12.4973 11.456H9.65607C9.65148 11.3663 9.64383 11.2847 9.64383 11.2031C9.64281 10.2187 9.64281 9.23373 9.64383 8.24928C9.64434 7.53707 10.0333 7.14553 10.7425 7.14248C11.0055 7.14146 11.2686 7.13585 11.5317 7.14401C12.1225 7.16287 12.5085 7.56001 12.51 8.15242C12.5131 9.17969 12.511 10.2065 12.51 11.2337C12.51 11.3005 12.5029 11.3668 12.4973 11.456Z" fill="#303E7C" style="fill:#303E7C;fill:color(display-p3 0.1882 0.2431 0.4863);fill-opacity:1;"/>
<path d="M13.4753 10.0196V8.10019C13.9372 8.10019 14.3925 8.09866 14.8473 8.1007C15.0843 8.10171 15.3265 8.08234 15.5584 8.12058C16.0647 8.20419 16.394 8.61867 16.3731 9.10248C16.3527 9.57712 16.0025 9.98446 15.5054 10.0105C14.8386 10.0456 14.1687 10.0191 13.4759 10.0191L13.4753 10.0196Z" fill="#303E7C" style="fill:#303E7C;fill:color(display-p3 0.1882 0.2431 0.4863);fill-opacity:1;"/>
</g>
<defs>
<clipPath id="clip0_527_805">
<rect width="16.314" height="16.3008" fill="white" style="fill:white;fill-opacity:1;" transform="translate(0.0595703 0.300293)"/>
</clipPath>
</defs>
</svg>
