<svg width="19" height="19" viewBox="0 0 19 19" fill="none" xmlns="http://www.w3.org/2000/svg">
<path d="M8.72559 0.688702C9.37378 0.746463 9.98156 1.029 10.4424 1.48851L10.8271 1.87425L11.5361 1.16526L12.3311 1.96116L6.9873 7.30491L6.19238 6.50901L6.90039 5.80003L6.51562 5.41526C6.07786 4.97631 5.79968 4.40368 5.72461 3.78831C5.6496 3.17294 5.78212 2.55006 6.10156 2.01878C5.76317 1.85895 5.38338 1.80738 5.01465 1.87132C4.64605 1.93531 4.30575 2.11088 4.04102 2.37522L4.02734 2.38987C3.85841 2.5579 3.724 2.75763 3.63281 2.97776C3.54167 3.19783 3.49547 3.43391 3.49609 3.6721V10.0002H18.1211V11.1252H16.9961V12.2043C16.9961 12.295 16.9809 12.3859 16.9521 12.4719L15.9062 15.6106C15.8505 15.7785 15.7431 15.925 15.5996 16.0285C15.4559 16.1321 15.2826 16.1879 15.1055 16.1877H14.377L14.7988 17.594H13.625L13.2031 16.1877H5.88672L5.47656 17.594H4.30469L4.71484 16.1877H4.26074C4.08379 16.1878 3.91113 16.132 3.76758 16.0285C3.62404 15.925 3.51675 15.7785 3.46094 15.6106L2.41406 12.4719C2.38535 12.3859 2.37107 12.295 2.37109 12.2043V11.1252H1.24609V10.0002H2.37109V3.6721C2.37007 3.28606 2.44601 2.90376 2.59375 2.5471C2.74149 2.19046 2.95776 1.86621 3.23145 1.59397L3.24609 1.5803C3.71778 1.10868 4.33611 0.811435 4.99902 0.73753C5.66169 0.663742 6.32976 0.817121 6.89355 1.17308C7.42838 0.801977 8.07718 0.631036 8.72559 0.688702ZM12.5176 3.31273C15.042 2.0506 17.2512 2.78679 18.04 3.31273L16.4619 6.468L13.3057 9.62425L10.9395 8.04612C10.4135 6.99422 9.99306 4.57498 12.5176 3.31273ZM8.47852 1.80101C8.04089 1.80111 7.62135 1.97534 7.31152 2.2844C7.00228 2.59435 6.82812 3.01454 6.82812 3.45237C6.8282 3.89008 7.00238 4.30949 7.31152 4.61937L7.69629 5.00511L10.0312 2.66917L9.64648 2.2844C9.33655 1.97518 8.91633 1.80101 8.47852 1.80101Z" fill="#1A1A1A" style="fill:#1A1A1A;fill:color(display-p3 0.1020 0.1020 0.1020);fill-opacity:1;"/>
</svg>
