<svg width="18" height="15" viewBox="0 0 18 15" fill="none" xmlns="http://www.w3.org/2000/svg">
<g clip-path="url(#clip0_527_799)">
<path d="M9.37612 12.8534C7.04882 12.8534 4.72214 12.8534 2.39484 12.8534C2.15955 12.8534 2.05076 12.9611 2.05076 13.1934C2.05076 13.2535 2.05382 13.3137 2.05015 13.3733C2.04526 13.4455 2.03793 13.5177 2.02448 13.5881C1.97437 13.845 1.72807 14.0508 1.43349 14.0478C1.13769 14.0448 0.892615 13.8252 0.848001 13.543C0.837611 13.4768 0.832111 13.4088 0.832111 13.342C0.831499 11.9749 0.822332 10.6071 0.835166 9.24002C0.8425 8.44333 1.13708 7.75014 1.70179 7.17308C2.04465 6.82288 2.45229 6.57376 2.91861 6.41491C3.2853 6.29035 3.66422 6.25244 4.05048 6.25244C7.63003 6.25364 11.2096 6.25064 14.7892 6.25485C15.8379 6.25605 16.6874 6.67245 17.3169 7.50042C17.6262 7.90779 17.8107 8.37052 17.8737 8.87597C17.8951 9.04626 17.9042 9.21956 17.9048 9.39165C17.9073 10.7191 17.9067 12.0465 17.9061 13.3739C17.9061 13.5815 17.8541 13.7704 17.6805 13.9076C17.4972 14.0526 17.2925 14.0905 17.0743 14.0021C16.8653 13.9166 16.7333 13.7596 16.7033 13.5351C16.688 13.422 16.6899 13.3059 16.6868 13.1916C16.6819 13.0068 16.6043 12.8955 16.4491 12.8612C16.4148 12.8534 16.3788 12.854 16.3433 12.854C14.0215 12.854 11.6997 12.854 9.37734 12.854L9.37612 12.8534Z" fill="#303E7C" style="fill:#303E7C;fill:color(display-p3 0.1882 0.2431 0.4863);fill-opacity:1;"/>
<path d="M9.29104 0.853027C10.8006 0.853027 12.3096 0.853027 13.8185 0.853027C14.3239 0.853027 14.7964 0.964347 15.204 1.27183C15.7284 1.66716 16.0346 2.18766 16.0602 2.84113C16.0822 3.39532 16.0725 3.95072 16.0749 4.50551C16.0767 4.86294 16.0749 5.22036 16.0749 5.57779C16.0749 5.60968 16.0731 5.64338 16.0645 5.67406C16.0382 5.77094 15.9851 5.80945 15.8848 5.7908C15.7754 5.77034 15.6697 5.72641 15.5603 5.71438C15.303 5.6867 15.0451 5.66744 14.7866 5.65421C14.6142 5.64518 14.5611 5.61449 14.5366 5.44781C14.4584 4.9195 13.9615 4.44413 13.3259 4.45135C12.617 4.45918 11.908 4.45316 11.1997 4.45316C10.6723 4.45316 10.2218 4.76245 10.0428 5.24985C10.0171 5.31965 10.0073 5.39546 9.99388 5.46887C9.96882 5.60065 9.91932 5.64999 9.78608 5.6518C9.50678 5.65481 9.22687 5.65481 8.94757 5.6518C8.81923 5.6506 8.7685 5.60065 8.74528 5.45443C8.71289 5.24924 8.63221 5.06632 8.5002 4.90566C8.26124 4.61442 7.95199 4.45617 7.57063 4.45436C6.83907 4.45075 6.10752 4.45256 5.37535 4.45376C4.76052 4.45436 4.27954 4.92732 4.20131 5.44661C4.17625 5.61449 4.12553 5.64398 3.95318 5.65481C3.66777 5.67346 3.38236 5.69994 3.09756 5.73002C3.01016 5.73905 2.92643 5.77636 2.83965 5.7908C2.74614 5.80584 2.70275 5.77455 2.67647 5.68429C2.66608 5.64879 2.66119 5.61088 2.66119 5.57358C2.66058 4.71611 2.64897 3.85865 2.66363 3.00119C2.67891 2.10402 3.1 1.44452 3.92384 1.04558C4.2502 0.888529 4.60406 0.853027 4.9622 0.853027C6.40515 0.853027 7.8481 0.853027 9.29104 0.853027Z" fill="#303E7C" style="fill:#303E7C;fill:color(display-p3 0.1882 0.2431 0.4863);fill-opacity:1;"/>
</g>
<defs>
<clipPath id="clip0_527_799">
<rect width="17.077" height="13.1959" fill="white" style="fill:white;fill-opacity:1;" transform="translate(0.828369 0.853027)"/>
</clipPath>
</defs>
</svg>
