<svg width="28" height="48" viewBox="0 0 28 48" fill="none" xmlns="http://www.w3.org/2000/svg">
<path d="M4.55827 5.23228C4.26222 4.93612 4.26222 4.45592 4.55827 4.15976C9.77318 -1.05651 18.227 -1.05651 23.4412 4.15976C23.7371 4.45603 23.7371 4.93612 23.4412 5.23228C23.1452 5.52822 22.6651 5.52822 22.3686 5.23228C17.7393 0.607049 10.2586 0.605783 5.62984 5.23228C5.33379 5.52822 4.85496 5.52864 4.55827 5.23228ZM17.0099 43.178H10.9895C10.8226 43.178 10.6863 43.3142 10.6863 43.4813V44.4393C10.6863 46.2657 12.1726 47.7525 13.9992 47.7525C15.8262 47.7525 17.3131 46.2657 17.3131 44.4393V43.4813C17.3131 43.3142 17.1769 43.178 17.0099 43.178ZM19.0405 9.31856C19.7126 9.31856 20.0537 8.50191 19.5766 8.02467C16.4964 4.94361 11.5022 4.94087 8.42244 8.02467C8.12702 8.32093 8.12702 8.80102 8.42244 9.09718C8.71838 9.39344 9.19858 9.39344 9.49453 9.09718C11.9843 6.60685 16.0151 6.60674 18.5039 9.09718C18.6527 9.24473 18.8469 9.31856 19.0405 9.31856ZM27.6167 39.4172L26.2861 37.3614C25.9659 36.8663 25.8097 36.3375 25.8097 35.7475V29.6741C25.8097 23.1621 20.5115 17.8641 13.9993 17.8641C7.48756 17.8641 2.18934 23.1621 2.18934 29.6741V35.7475C2.18934 36.3375 2.03367 36.8663 1.71294 37.3614L0.382872 39.4172C-0.247409 40.3913 0.44552 41.662 1.60431 41.662H26.3949C27.5528 41.662 28.245 40.3898 27.6167 39.4172ZM13.9992 10.4122C15.0201 10.4122 15.8511 11.2428 15.8511 12.2638C15.8511 13.2846 15.0201 14.1142 13.9992 14.1142C12.9783 14.1142 12.1489 13.2845 12.1489 12.2638C12.1489 11.2428 12.9783 10.4122 13.9992 10.4122ZM13.6647 12.2637C13.6647 12.7043 14.3347 12.7036 14.3347 12.2637C14.3347 11.8225 13.6647 11.8218 13.6647 12.2637Z" fill="#1A244C" style="fill:#1A244C;fill:color(display-p3 0.1020 0.1412 0.2980);fill-opacity:1;"/>
</svg>
