<svg width="18" height="18" viewBox="0 0 18 18" fill="none" xmlns="http://www.w3.org/2000/svg">
<path d="M8.99987 14.8113C7.17512 14.8113 5.34812 14.5593 3.57512 14.0575C2.78537 13.8348 2.16212 13.2565 1.86512 12.4713C1.56362 11.6725 1.65587 10.768 2.11487 10.0525L2.95187 8.7498C3.32762 8.1873 3.37712 7.3863 3.37712 6.7518C3.37712 5.20155 3.95987 3.74355 5.01737 2.64555C6.07937 1.54305 7.49462 0.935547 9.00212 0.935547C10.5074 0.935547 11.9226 1.54305 12.9869 2.64555C14.0444 3.74355 14.6271 5.20155 14.6271 6.7518V6.7563C14.6271 6.79455 14.6316 7.95105 15.0704 8.7768L15.8894 10.0503C16.3484 10.7658 16.4429 11.6703 16.1391 12.469C15.8421 13.2543 15.2189 13.8325 14.4291 14.0553C12.6516 14.5593 10.8246 14.8113 8.99987 14.8113ZM3.88787 9.37305L3.05987 10.66C2.78762 11.083 2.73587 11.5983 2.91587 12.0708C3.08462 12.5185 3.43787 12.8493 3.88112 12.973C7.22912 13.9203 10.7706 13.9203 14.1186 12.973C14.5619 12.847 14.9129 12.5185 15.0839 12.0708C15.2639 11.596 15.2099 11.083 14.9399 10.66L14.0984 9.3483L14.0894 9.3303C13.5021 8.25255 13.4999 6.8508 13.4999 6.7518C13.4999 4.16655 11.4816 2.06055 8.99987 2.06055C6.51812 2.06055 4.49987 4.1643 4.49987 6.7518C4.49987 7.54605 4.43012 8.55855 3.88787 9.37305Z" fill="#303E7C" style="fill:#303E7C;fill:color(display-p3 0.1882 0.2431 0.4863);fill-opacity:1;"/>
<path d="M8.99954 17.061C7.25129 17.061 5.68304 16.0102 5.09804 14.4465C4.99004 14.1562 5.13629 13.8323 5.42654 13.722C5.71679 13.614 6.04079 13.7603 6.15104 14.0505C6.57404 15.1778 7.71929 15.936 8.99954 15.936C10.2798 15.936 11.425 15.1778 11.848 14.0505C11.956 13.7603 12.2823 13.6118 12.5725 13.722C12.8628 13.83 13.0113 14.1562 12.901 14.4465C12.316 16.0102 10.7478 17.061 8.99954 17.061Z" fill="#303E7C" style="fill:#303E7C;fill:color(display-p3 0.1882 0.2431 0.4863);fill-opacity:1;"/>
</svg>
