<svg width="11" height="11" viewBox="0 0 11 11" fill="none" xmlns="http://www.w3.org/2000/svg">
<path d="M2.89258 10.5398H4.82533V6.63196L2.89258 5.77295V10.5398ZM3.97975 7.03665H4.46294V7.76143H3.97975V7.03665ZM3.97975 8.00303H4.46294V8.72781H3.97975V8.00303ZM3.97975 8.9694H4.46294V9.69418H3.97975V8.9694ZM3.25497 7.03665H3.73816V7.76143H3.25497V7.03665ZM3.25497 8.00303H3.73816V8.72781H3.25497V8.00303ZM3.25497 8.9694H3.73816V9.69418H3.25497V8.9694Z" fill="#B3B3B3" style="fill:#B3B3B3;fill:color(display-p3 0.7020 0.7020 0.7020);fill-opacity:1;"/>
<path d="M0.71875 10.5398H2.6515V5.77295L0.71875 6.63196V10.5398ZM1.80592 7.03665H2.28911V7.76143H1.80592V7.03665ZM1.80592 8.00303H2.28911V8.72781H1.80592V8.00303ZM1.80592 8.9694H2.28911V9.69418H1.80592V8.9694ZM1.08114 7.03665H1.56433V7.76143H1.08114V7.03665ZM1.08114 8.00303H1.56433V8.72781H1.08114V8.00303ZM1.08114 8.9694H1.56433V9.69418H1.08114V8.9694Z" fill="#B3B3B3" style="fill:#B3B3B3;fill:color(display-p3 0.7020 0.7020 0.7020);fill-opacity:1;"/>
<path d="M3.61738 5.829C3.61738 5.82965 3.61719 5.83028 3.61719 5.83093L4.99521 6.44339C5.03884 6.46279 5.06694 6.50606 5.06694 6.55378V10.5401H6.99969V0.439941L3.61738 1.56739V5.829ZM5.67092 1.72191L6.6373 1.48032V1.9635L5.67092 2.2051V1.72191ZM5.67092 2.44669L6.6373 2.2051V2.68828L5.67092 2.92988V2.44669ZM5.67092 3.17147L6.6373 2.92988V3.41306L5.67092 3.65466V3.17147ZM5.67092 3.89625L6.6373 3.65466V4.13784L5.67092 4.37944V3.89625ZM5.67092 4.62103L6.6373 4.37944V4.86262L5.67092 5.10422V4.62103ZM5.67092 5.34581L6.6373 5.10422V5.5874L5.67092 5.829V5.34581ZM5.67092 6.07059L6.6373 5.829V6.31218L5.67092 6.55378V6.07059ZM5.67092 6.79537L6.6373 6.55378V7.03696L5.67092 7.27856V6.79537ZM4.22136 2.2051L5.18774 1.9635V2.44669L4.22136 2.68828V2.2051ZM4.22136 2.92988L5.18774 2.68828V3.17147L4.22136 3.41306V2.92988ZM4.22136 3.65466L5.18774 3.41306V3.89625L4.22136 4.13784V3.65466ZM4.22136 4.37944L5.18774 4.13784V4.62103L4.22136 4.86262V4.37944Z" fill="#B3B3B3" style="fill:#B3B3B3;fill:color(display-p3 0.7020 0.7020 0.7020);fill-opacity:1;"/>
<path d="M7.24219 0.439941V10.5401H10.6245V1.56739L7.24219 0.439941ZM8.57095 7.27856L7.60458 7.03696V6.55378L8.57095 6.79537V7.27856ZM8.57095 6.55378L7.60458 6.31218V5.829L8.57095 6.07059V6.55378ZM8.57095 5.829L7.60458 5.5874V5.10422L8.57095 5.34581V5.829ZM8.57095 5.10422L7.60458 4.86262V4.37944L8.57095 4.62103V5.10422ZM8.57095 4.37944L7.60458 4.13784V3.65466L8.57095 3.89625V4.37944ZM8.57095 3.65466L7.60458 3.41306V2.92988L8.57095 3.17147V3.65466ZM8.57095 2.92988L7.60458 2.68828V2.2051L8.57095 2.44669V2.92988ZM8.57095 2.2051L7.60458 1.9635V1.48032L8.57095 1.72191V2.2051ZM10.0205 7.76174L9.05414 7.52015V7.03696L10.0205 7.27856V7.76174ZM10.0205 7.03696L9.05414 6.79537V6.31218L10.0205 6.55378V7.03696ZM10.0205 6.31218L9.05414 6.07059V5.5874L10.0205 5.829V6.31218ZM10.0205 5.5874L9.05414 5.34581V4.86262L10.0205 5.10422V5.5874ZM10.0205 4.86262L9.05414 4.62103V4.13784L10.0205 4.37944V4.86262ZM10.0205 4.13784L9.05414 3.89625V3.41306L10.0205 3.65466V4.13784ZM10.0205 3.41306L9.05414 3.17147V2.68828L10.0205 2.92988V3.41306ZM10.0205 2.68828L9.05414 2.44669V1.9635L10.0205 2.2051V2.68828Z" fill="#B3B3B3" style="fill:#B3B3B3;fill:color(display-p3 0.7020 0.7020 0.7020);fill-opacity:1;"/>
</svg>
