<svg width="14" height="16" viewBox="0 0 14 16" fill="none" xmlns="http://www.w3.org/2000/svg">
<path d="M12.6504 0.611328C13.0361 0.611328 13.3494 0.923908 13.3496 1.30957C13.3496 1.6954 13.0362 2.00879 12.6504 2.00879H12.418V14.1182H12.6504C13.0362 14.1182 13.3496 14.4306 13.3496 14.8164C13.3496 15.2022 13.0362 15.5146 12.6504 15.5146H9.39062C9.00483 15.5146 8.69146 15.2022 8.69141 14.8164V12.4873C8.69124 12.1016 8.37889 11.7891 7.99316 11.7891H5.66504C5.27931 11.7891 4.96599 12.1016 4.96582 12.4873V14.8164C4.96576 15.2021 4.65327 15.5145 4.26758 15.5146H1.00684C0.62121 15.5145 0.308652 15.2021 0.308594 14.8164C0.308594 14.4307 0.621174 14.1184 1.00684 14.1182H1.24023V2.00879H1.00684C0.621174 2.00859 0.308594 1.69528 0.308594 1.30957C0.30879 0.924029 0.621295 0.611524 1.00684 0.611328H12.6504ZM4.5 7.13184C4.24294 7.13202 4.03418 7.34055 4.03418 7.59766V8.52832C4.03418 8.78543 4.24294 8.99395 4.5 8.99414H5.43164C5.68886 8.99414 5.89746 8.78554 5.89746 8.52832V7.59766C5.89746 7.34044 5.68886 7.13184 5.43164 7.13184H4.5ZM8.22656 7.13184C7.96934 7.13184 7.76074 7.34044 7.76074 7.59766V8.52832C7.76074 8.78554 7.96934 8.99414 8.22656 8.99414H9.15723C9.41445 8.99414 9.62305 8.78554 9.62305 8.52832V7.59766C9.62305 7.34044 9.41445 7.13184 9.15723 7.13184H8.22656ZM4.5 3.40527C4.24303 3.40546 4.03433 3.61412 4.03418 3.87109V4.80273C4.03418 5.05984 4.24294 5.26837 4.5 5.26855H5.43164C5.68886 5.26855 5.89746 5.05995 5.89746 4.80273V3.87109C5.89731 3.614 5.68877 3.40527 5.43164 3.40527H4.5ZM8.22656 3.40527C7.96944 3.40527 7.76089 3.614 7.76074 3.87109V4.80273C7.76074 5.05995 7.96934 5.26855 8.22656 5.26855H9.15723C9.41445 5.26855 9.62305 5.05995 9.62305 4.80273V3.87109C9.62289 3.614 9.41435 3.40527 9.15723 3.40527H8.22656Z" fill="#303E7C" style="fill:#303E7C;fill:color(display-p3 0.1882 0.2431 0.4863);fill-opacity:1;"/>
</svg>
