<svg width="24" height="24" viewBox="0 0 24 24" fill="none" xmlns="http://www.w3.org/2000/svg">
<path fill-rule="evenodd" clip-rule="evenodd" d="M5.5613 1.89465C6.09668 2.00531 6.52304 2.36501 6.78794 2.84025L7.6318 4.35416C7.94263 4.91176 8.20421 5.381 8.37504 5.78892C8.55624 6.22163 8.66387 6.64834 8.61467 7.12011C8.56547 7.59188 8.37213 7.9872 8.10554 8.37321C7.85423 8.73711 7.50146 9.14229 7.08228 9.62376L4.9775 12.0414C6.64673 14.7774 9.11153 17.2433 11.8503 18.9142L14.268 16.8094C14.7494 16.3903 15.1546 16.0375 15.5185 15.7862C15.9045 15.5196 16.2998 15.3263 16.7716 15.2771C17.2434 15.2279 17.6701 15.3355 18.1028 15.5167C18.5107 15.6875 18.98 15.9491 19.5376 16.2599L21.0515 17.1038C21.5267 17.3687 21.8864 17.795 21.9971 18.3304C22.1089 18.8714 21.944 19.4151 21.5797 19.862C20.2581 21.4836 18.1406 22.516 15.9193 22.0679C14.5539 21.7925 13.2067 21.3336 11.5773 20.3992C8.30338 18.5216 5.36797 15.5845 3.49257 12.3144C2.5581 10.685 2.09922 9.33782 1.82378 7.9724C1.37569 5.75108 2.40815 3.63363 4.02969 2.31201C4.47659 1.94777 5.02034 1.78285 5.5613 1.89465ZM13.1703 19.644C14.2722 20.187 15.2306 20.4833 16.1995 20.6788C17.8019 21.002 19.4196 20.2693 20.4812 18.9667C20.6206 18.7957 20.6215 18.6763 20.6093 18.6173C20.5959 18.5526 20.5418 18.4421 20.3615 18.3416L18.8815 17.5167C18.281 17.1819 17.8812 16.9603 17.5554 16.8238C17.2461 16.6943 17.0687 16.6709 16.9186 16.6865C16.7685 16.7022 16.5997 16.7617 16.3238 16.9523C16.0332 17.153 15.6877 17.4524 15.1692 17.9038L13.1703 19.644ZM4.24771 10.7215L5.98793 8.72256C6.43936 8.20402 6.73873 7.85857 6.93946 7.56791C7.13 7.29201 7.18954 7.12319 7.20519 6.97312C7.22083 6.82306 7.19741 6.64559 7.0679 6.33631C6.93146 6.01049 6.7098 5.6107 6.37506 5.01018L5.55012 3.53022C5.44962 3.34991 5.3391 3.29581 5.27447 3.28245C5.21542 3.27025 5.09603 3.2711 4.92499 3.4105C3.62239 4.47217 2.8897 6.08983 3.21293 7.69218C3.40838 8.6611 3.70474 9.61953 4.24771 10.7215Z" fill="#4FABE8" style="fill:#4FABE8;fill:color(display-p3 0.3098 0.6706 0.9098);fill-opacity:1;"/>
</svg>
