<svg width="24" height="24" viewBox="0 0 24 24" fill="none" xmlns="http://www.w3.org/2000/svg">
<path d="M18.0003 6.00071C17.7004 5.99883 17.4068 5.91496 17.1511 5.75817C16.8955 5.60138 16.6876 5.37764 16.55 5.11119L15.8299 3.65949C15.557 3.18131 15.1689 2.77898 14.7008 2.48913C14.2327 2.19929 13.6996 2.03114 13.1499 2L10.8599 2C10.3086 2.02977 9.77353 2.19726 9.30362 2.48716C8.83372 2.77706 8.44397 3.18012 8.17002 3.65949L7.44986 5.10977C7.31226 5.37622 7.10439 5.59995 6.84875 5.75674C6.59312 5.91354 6.29947 5.99741 5.99959 5.99929C5.48682 5.9987 4.97938 6.10318 4.50856 6.30631C4.03774 6.50943 3.61354 6.80687 3.26213 7.18029C2.91072 7.5537 2.63955 7.99516 2.46537 8.47744C2.29118 8.95971 2.21767 9.47256 2.24936 9.98434L2.76885 18.2391C2.74926 18.7572 2.84086 19.2734 3.03748 19.7532C3.2341 20.2329 3.53118 20.6649 3.90874 21.0202C4.28629 21.3755 4.73557 21.6459 5.22633 21.813C5.71709 21.9802 6.23796 22.0403 6.7539 21.9893H17.2346C17.7503 22.0393 18.2708 21.9786 18.7612 21.8111C19.2515 21.6436 19.7004 21.3732 20.0777 21.0181C20.4551 20.663 20.7522 20.2313 20.9491 19.752C21.1461 19.2728 21.2383 18.7569 21.2197 18.2391L21.7391 9.98434C21.7706 9.47363 21.6972 8.96189 21.5237 8.48055C21.3501 7.99922 21.0799 7.55846 20.7297 7.18537C20.3796 6.81227 19.9568 6.51472 19.4874 6.311C19.0181 6.10728 18.512 6.00169 18.0003 6.00071ZM10.497 7.25031H13.5C13.699 7.25031 13.8897 7.32933 14.0304 7.46999C14.1711 7.61065 14.2501 7.80143 14.2501 8.00036C14.2501 8.19928 14.1711 8.39006 14.0304 8.53072C13.8897 8.67138 13.699 8.7504 13.5 8.7504H10.497C10.2981 8.7504 10.1073 8.67138 9.96665 8.53072C9.82598 8.39006 9.74696 8.19928 9.74696 8.00036C9.74696 7.80143 9.82598 7.61065 9.96665 7.46999C10.1073 7.32933 10.2981 7.25031 10.497 7.25031ZM11.9971 18.121C11.3287 18.1204 10.6754 17.9217 10.1199 17.5499C9.56445 17.1782 9.13165 16.6501 8.87625 16.0324C8.62084 15.4147 8.55431 14.7351 8.68506 14.0796C8.8158 13.4241 9.13796 12.8221 9.6108 12.3496C10.0836 11.8772 10.6859 11.5555 11.3415 11.4254C11.9972 11.2952 12.6767 11.3623 13.2941 11.6182C13.9116 11.8741 14.4394 12.3074 14.8107 12.8632C15.182 13.419 15.3801 14.0724 15.3801 14.7408C15.3797 15.6372 15.0235 16.4967 14.3897 17.1305C13.7558 17.7644 12.8963 18.1206 11.9999 18.121H11.9971Z" fill="#B5B7BF" style="fill:#B5B7BF;fill:color(display-p3 0.7098 0.7176 0.7490);fill-opacity:1;"/>
</svg>
