<svg width="20" height="16" viewBox="0 0 20 16" fill="none" xmlns="http://www.w3.org/2000/svg">
<path d="M17.3889 2.68112H15.3722L14.2589 1.00054C13.8387 0.370318 13.1035 -0.0078125 12.3472 -0.0078125H7.72559C6.96933 -0.0078125 6.23408 0.370318 5.81393 1.00054L4.70055 2.68112H2.68385C1.4024 2.68112 0.373047 3.71047 0.373047 4.99192V13.1427C0.373047 14.4242 1.4024 15.4535 2.68385 15.4535H17.3889C18.6704 15.4535 19.6997 14.4242 19.6997 13.1427V4.99192C19.6997 3.71047 18.6704 2.68112 17.3889 2.68112ZM10.0364 13.5629C7.1584 13.5629 4.82659 11.2311 4.82659 8.35308C4.82659 5.47509 7.1584 3.16429 10.0364 3.16429C12.9144 3.16429 15.2462 5.49609 15.2462 8.37409C15.2462 11.2311 12.9144 13.5629 10.0364 13.5629ZM17.0948 5.93725C17.0738 5.93725 17.0528 5.93725 17.0108 5.93725H16.1705C15.7924 5.91624 15.4983 5.60113 15.5193 5.223C15.5403 4.86587 15.8134 4.59278 16.1705 4.57177H17.0108C17.3889 4.55077 17.704 4.84487 17.7251 5.223C17.7461 5.60113 17.473 5.91624 17.0948 5.93725Z" fill="white" style="fill:white;fill-opacity:1;"/>
<path d="M10.0357 5.47461C8.43917 5.47461 7.13672 6.77706 7.13672 8.37361C7.13672 9.97017 8.43917 11.2516 10.0357 11.2516C11.6323 11.2516 12.9347 9.94916 12.9347 8.35261C12.9347 6.75605 11.6323 5.47461 10.0357 5.47461Z" fill="white" style="fill:white;fill-opacity:1;"/>
</svg>
