<svg width="19" height="19" viewBox="0 0 19 19" fill="none" xmlns="http://www.w3.org/2000/svg">
<path d="M9.72125 1.44637C9.58025 1.38637 9.41975 1.38637 9.27875 1.44637C9.17525 1.47637 8.89625 1.6564 8.77025 1.7389C8.48825 1.9339 8.11925 2.24137 7.75325 2.68387C7.1315 3.44137 6.53599 4.58138 6.36274 6.22388C6.18049 6.05138 6.01025 5.8189 5.9045 5.5264C5.846 5.3614 5.71551 5.23393 5.55126 5.18143C5.38701 5.12893 5.20701 5.15138 5.06301 5.24888C4.98201 5.28638 4.84101 5.43641 4.78101 5.50391C4.64226 5.65391 4.47275 5.88637 4.30925 6.20887C3.98225 6.86887 3.6875 7.8964 3.6875 9.4639C3.6875 10.8139 4.21851 12.1564 5.12001 13.2139H7.15175C7.09325 12.9739 7.0625 12.7189 7.0625 12.4639C7.0625 11.3539 7.607 10.3039 8.0945 9.5764C8.34425 9.2014 8.59324 8.88643 8.77999 8.66893C8.87074 8.56393 9.03574 8.38388 9.09724 8.32388L9.1025 8.31641C9.32225 8.09891 9.67775 8.09891 9.8975 8.31641L9.90276 8.32388C9.96426 8.38388 10.1293 8.56393 10.22 8.66893C10.4068 8.88643 10.6557 9.2014 10.9055 9.5764C11.393 10.3039 11.9375 11.3539 11.9375 12.4639C11.9375 12.7189 11.9068 12.9739 11.8483 13.2139H13.88C14.7815 12.1564 15.3125 10.8139 15.3125 9.4639C15.3125 7.8964 15.0177 6.86887 14.6907 6.20887C14.5272 5.88637 14.3577 5.65391 14.219 5.50391C14.1395 5.40641 13.9977 5.29388 13.937 5.24888C13.793 5.15138 13.613 5.12893 13.4487 5.18143C13.2845 5.23393 13.154 5.3614 13.0955 5.5264C12.9897 5.8189 12.8195 6.05138 12.6373 6.22388C12.464 4.58138 11.8685 3.44137 11.2468 2.68387C10.8808 2.24137 10.5117 1.9339 10.2297 1.7389C10.1045 1.6489 9.839 1.50637 9.72125 1.44637Z" fill="#161616" style="fill:#161616;fill:color(display-p3 0.0863 0.0863 0.0863);fill-opacity:1;"/>
<path d="M4.25 14.1514C3.5255 14.1514 2.9375 14.7364 2.9375 15.4639V16.2139C2.9375 16.9414 3.5255 17.5264 4.25 17.5264H14.75C15.4745 17.5264 16.0625 16.9414 16.0625 16.2139V15.4639C16.0625 14.7364 15.4745 14.1514 14.75 14.1514H4.25Z" fill="#161616" style="fill:#161616;fill:color(display-p3 0.0863 0.0863 0.0863);fill-opacity:1;"/>
</svg>
