<svg width="17" height="18" viewBox="0 0 17 18" fill="none" xmlns="http://www.w3.org/2000/svg">
<rect y="0.133789" width="17" height="17" rx="5.66667" fill="#CB544B" style="fill:#CB544B;fill:color(display-p3 0.7961 0.3294 0.2941);fill-opacity:1;"/>
<path d="M13.1534 5.02423C13.4415 4.73609 13.4415 4.26891 13.1534 3.98076C12.8652 3.69261 12.398 3.69261 12.1099 3.98076L8.49967 7.59097L4.88947 3.98076C4.60132 3.69261 4.13414 3.69261 3.84599 3.98076C3.55785 4.26891 3.55785 4.73609 3.84599 5.02423L7.4562 8.63444L3.84599 12.2446C3.55785 12.5328 3.55785 13 3.84599 13.2881C4.13414 13.5763 4.60132 13.5763 4.88947 13.2881L8.49967 9.67791L12.1099 13.2881C12.398 13.5763 12.8652 13.5763 13.1534 13.2881C13.4415 13 13.4415 12.5328 13.1534 12.2446L9.54315 8.63444L13.1534 5.02423Z" fill="white" style="fill:white;fill-opacity:1;"/>
</svg>
