<svg id="Glyph" viewBox="0 0 64 64" xmlns="http://www.w3.org/2000/svg"><path d="m58.52 23.11-24.65-18.49c-1.11-.83-2.63-.83-3.74 0l-24.65 18.49c-1.62 1.22-1.98 3.51-.8 5.09 1.19 1.57 3.49 1.86 5.11.64l20.33-15.24c1.11-.83 2.63-.83 3.74 0l20.33 15.24c1.62 1.22 3.92.94 5.11-.64 1.19-1.57.83-3.86-.8-5.09z"/><path d="m53 30.43-20.33-15.23c-.25-.19-.5-.23-.67-.23s-.42.04-.67.23l-20.33 15.23c-.33.25-.68.46-1.05.62l.08 25.07c0 2.12 1.72 3.84 3.84 3.85l36.45.03c2.13 0 3.85-1.72 3.85-3.84l-.07-25.08c-.39-.17-.75-.39-1.1-.65zm-21 22.35c-7.34 0-13.3-5.95-13.3-13.29s5.95-13.29 13.3-13.29 13.29 5.95 13.29 13.29-5.95 13.29-13.29 13.29z"/><path d="m39.08 38.17s.1.01.14.01c.49 0 .92-.36.99-.86.08-.55-.3-1.05-.85-1.13l-1.54-.22.52-1.46c.18-.52-.09-1.09-.61-1.28s-1.09.09-1.28.61l-.81 2.28-2.65 1.6v-3.1l1.53-1.87c.35-.43.29-1.06-.14-1.41s-1.06-.29-1.41.14l-.98 1.2-.98-1.2c-.35-.43-.98-.49-1.41-.14s-.49.98-.14 1.41l1.53 1.87v3.1l-2.65-1.6-.81-2.28c-.19-.52-.76-.79-1.28-.61-.52.19-.79.76-.61 1.28l.52 1.46-1.54.22c-.55.08-.93.59-.85 1.13.07.5.5.86.99.86.05 0 .1 0 .14-.01l2.39-.34 2.75 1.66-2.75 1.66-2.39-.34c-.54-.08-1.05.3-1.13.85s.3 1.05.85 1.13l1.54.22-.52 1.46c-.19.52.09 1.09.61 1.28.11.04.22.06.34.06.41 0 .8-.26.94-.66l.81-2.28 2.65-1.6v3.1l-1.53 1.87c-.35.43-.29 1.06.14 1.41s1.06.29 1.41-.14l.98-1.2.98 1.2c.2.24.48.37.77.37.22 0 .45-.07.63-.23.43-.35.49-.98.14-1.41l-1.53-1.87v-3.1l2.65 1.6.81 2.28c.15.41.53.66.94.66.11 0 .22-.02.34-.06.52-.19.79-.76.61-1.28l-.52-1.46 1.54-.22c.55-.08.93-.59.85-1.13-.08-.55-.57-.93-1.13-.85l-2.4.34-2.75-1.66 2.75-1.66 2.4.34z"/><path d="m51.06 7.66c0-1-.81-1.82-1.82-1.82h-4.61c-1 0-1.82.82-1.82 1.82v1.17l8.25 6.18z"/></svg>