<svg width="13" height="13" viewBox="0 0 13 13" fill="none" xmlns="http://www.w3.org/2000/svg">
                            <path fill-rule="evenodd" clip-rule="evenodd" d="M9.33278 0.858896C8.85446 0.819819 8.25939 0.819824 7.50035 0.819824H5.24978C4.49073 0.819824 3.89564 0.819819 3.41735 0.858896C2.93032 0.898688 2.52798 0.98106 2.16379 1.16662C1.5651 1.47166 1.07835 1.95841 0.773305 2.5571C0.58775 2.92129 0.505378 3.32363 0.465586 3.81066C0.426508 4.28895 0.426514 4.88405 0.426514 5.64309V8.0014C0.426514 9.38329 1.54673 10.5035 2.92859 10.5035H3.26157C3.39907 10.5035 3.4931 10.6424 3.44203 10.77C3.06207 11.72 4.15605 12.5787 4.98858 11.9841L6.43321 10.9522L6.46044 10.9328C6.85271 10.6564 7.32013 10.5066 7.79999 10.5036L7.83336 10.5035H8.21833C9.07525 10.5036 9.598 10.5037 10.0371 10.375C11.0769 10.0701 11.8902 9.25685 12.1951 8.21699C12.3238 7.7779 12.3237 7.25521 12.3236 6.39828V5.64308C12.3236 4.88405 12.3236 4.28894 12.2845 3.81066C12.2447 3.32363 12.1623 2.92129 11.9768 2.5571C11.6717 1.95841 11.185 1.47166 10.5863 1.16662C10.2221 0.98106 9.81979 0.898688 9.33278 0.858896ZM2.54062 1.90618C2.76829 1.79018 3.04924 1.72177 3.48494 1.68617C3.92548 1.65017 4.48673 1.64985 5.26835 1.64985H7.48176C8.26337 1.64985 8.82464 1.65017 9.26516 1.68617C9.70087 1.72177 9.98181 1.79018 10.2095 1.90618C10.652 2.13165 11.0118 2.49142 11.2373 2.93393C11.3532 3.1616 11.4216 3.44255 11.4573 3.87825C11.4932 4.3188 11.4936 4.88004 11.4936 5.66166V6.31694C11.4936 7.28083 11.4894 7.67382 11.3986 7.98342C11.1732 8.75203 10.5721 9.35308 9.80352 9.57846C9.49392 9.66926 9.10093 9.67347 8.13704 9.67347H7.83336L7.79468 9.67352C7.14543 9.67767 6.51301 9.88037 5.98229 10.2543L4.50613 11.3087C4.34817 11.4215 4.1406 11.2585 4.2127 11.0783C4.48185 10.4054 3.98629 9.67347 3.26157 9.67347H2.92859C2.00514 9.67347 1.25654 8.92489 1.25654 8.0014V5.66166C1.25654 4.88004 1.25686 4.3188 1.29286 3.87825C1.32846 3.44255 1.39687 3.1616 1.51287 2.93393C1.73834 2.49142 2.09811 2.13165 2.54062 1.90618Z" fill="#303E7C" style="fill:#303E7C;fill:color(display-p3 0.1882 0.2431 0.4863);fill-opacity:1;"></path>
                            <path d="M4.71535 5.66126C4.71535 5.96688 4.4676 6.21462 4.162 6.21462C3.85639 6.21462 3.60864 5.96688 3.60864 5.66126C3.60864 5.35566 3.85639 5.10791 4.162 5.10791C4.4676 5.10791 4.71535 5.35566 4.71535 5.66126Z" fill="#303E7C" style="fill:#303E7C;fill:color(display-p3 0.1882 0.2431 0.4863);fill-opacity:1;"></path>
                            <path d="M6.92824 5.66126C6.92824 5.96688 6.6805 6.21462 6.37489 6.21462C6.06927 6.21462 5.82153 5.96688 5.82153 5.66126C5.82153 5.35566 6.06927 5.10791 6.37489 5.10791C6.6805 5.10791 6.92824 5.35566 6.92824 5.66126Z" fill="#303E7C" style="fill:#303E7C;fill:color(display-p3 0.1882 0.2431 0.4863);fill-opacity:1;"></path>
                            <path d="M9.14137 5.66126C9.14137 5.96688 8.89364 6.21462 8.58802 6.21462C8.2824 6.21462 8.03467 5.96688 8.03467 5.66126C8.03467 5.35566 8.2824 5.10791 8.58802 5.10791C8.89364 5.10791 9.14137 5.35566 9.14137 5.66126Z" fill="#303E7C" style="fill:#303E7C;fill:color(display-p3 0.1882 0.2431 0.4863);fill-opacity:1;"></path>
                            </svg>