<svg width="10" height="13" viewBox="0 0 10 13" fill="none" xmlns="http://www.w3.org/2000/svg">
<path fill-rule="evenodd" clip-rule="evenodd" d="M4.73152 12.0381C4.74914 12.0483 4.76299 12.0562 4.77279 12.0617L4.78908 12.0708C4.91909 12.1422 5.08036 12.1416 5.21049 12.071L5.22721 12.0617C5.23701 12.0562 5.25086 12.0483 5.26848 12.0381C5.30372 12.0177 5.35407 11.9879 5.41738 11.9489C5.54394 11.871 5.7226 11.7561 5.93602 11.6053C6.36214 11.3043 6.93069 10.8577 7.50048 10.2743C8.63456 9.11315 9.8125 7.36859 9.8125 5.125C9.8125 2.46713 7.65787 0.3125 5 0.3125C2.34213 0.3125 0.1875 2.46713 0.1875 5.125C0.1875 7.36859 1.36544 9.11315 2.49952 10.2743C3.06931 10.8577 3.63786 11.3043 4.06398 11.6053C4.2774 11.7561 4.45606 11.871 4.58262 11.9489C4.64593 11.9879 4.69628 12.0177 4.73152 12.0381ZM5 6.875C5.9665 6.875 6.75 6.0915 6.75 5.125C6.75 4.1585 5.9665 3.375 5 3.375C4.0335 3.375 3.25 4.1585 3.25 5.125C3.25 6.0915 4.0335 6.875 5 6.875Z" fill="#B3BDE5" style="fill:#B3BDE5;fill:color(display-p3 0.7020 0.7412 0.8980);fill-opacity:1;"/>
</svg>
