<svg xmlns="http://www.w3.org/2000/svg" width="14" height="14" viewBox="0 0 14 14" fill="none">
<g clip-path="url(#clip0_527_766)">
<path d="M7.4856 9.17121V10.145C7.4856 10.1979 7.5287 10.241 7.5816 10.241C7.63451 10.241 7.67761 10.1979 7.67761 10.145V9.17121C7.67761 9.1183 7.63451 9.0752 7.5816 9.0752C7.5287 9.0752 7.4856 9.1183 7.4856 9.17121Z" fill="#CCCCCC" style="fill:#CCCCCC;fill:color(display-p3 0.8000 0.8000 0.8000);fill-opacity:1;"/>
<path d="M10.5173 6.13947C10.5173 6.19237 10.5604 6.23548 10.6133 6.23548H11.5872C11.6401 6.23548 11.6832 6.19237 11.6832 6.13947C11.6832 6.08656 11.6401 6.04346 11.5872 6.04346H10.6133C10.5604 6.04346 10.5173 6.08656 10.5173 6.13947Z" fill="#CCCCCC" style="fill:#CCCCCC;fill:color(display-p3 0.8000 0.8000 0.8000);fill-opacity:1;"/>
<path d="M7.58182 0.570312C4.91103 0.570312 2.6089 2.49595 2.11475 5.09026H3.30111C3.77369 3.1254 5.52873 1.72922 7.58182 1.72922C10.0153 1.72922 11.9939 3.7078 11.9939 6.13935C11.9939 8.57287 10.0153 10.5514 7.58182 10.5514C6.18956 10.5514 4.89731 9.90434 4.06979 8.80622C3.95214 8.92387 3.8286 9.02388 3.70506 9.10624L3.75604 9.21802C4.25216 9.56706 4.74239 10.2142 5.0032 11.0789C5.79345 11.4927 6.67391 11.7084 7.58182 11.7084C10.6526 11.7084 13.1509 9.21017 13.1509 6.13935C13.1509 3.06854 10.6526 0.570312 7.58182 0.570312Z" fill="#CCCCCC" style="fill:#CCCCCC;fill:color(display-p3 0.8000 0.8000 0.8000);fill-opacity:1;"/>
<path d="M7.67761 3.10889V2.13312C7.67761 2.08022 7.63451 2.03711 7.5816 2.03711C7.5287 2.03711 7.4856 2.08022 7.4856 2.13312V3.10693C7.4856 3.15983 7.5287 3.20294 7.5816 3.20294C7.63451 3.2049 7.67761 3.16179 7.67761 3.10889Z" fill="#CCCCCC" style="fill:#CCCCCC;fill:color(display-p3 0.8000 0.8000 0.8000);fill-opacity:1;"/>
<path d="M8.92882 2.98575C8.96605 2.98575 9.00328 2.9642 9.01699 2.92697L9.20313 2.47632C9.22273 2.42733 9.19922 2.37051 9.15023 2.35092C9.10125 2.33132 9.04442 2.35287 9.02483 2.40382L8.83869 2.85448C8.8191 2.90346 8.84261 2.96028 8.89159 2.97988C8.90335 2.98379 8.91707 2.98575 8.92882 2.98575Z" fill="#CCCCCC" style="fill:#CCCCCC;fill:color(display-p3 0.8000 0.8000 0.8000);fill-opacity:1;"/>
<path d="M10.0702 3.74921C10.0957 3.74921 10.1192 3.73941 10.1388 3.72176L10.484 3.37663C10.5212 3.33938 10.5212 3.27859 10.484 3.23937C10.4467 3.20211 10.3859 3.20211 10.3467 3.23937L10.0016 3.58449C9.96432 3.62175 9.96432 3.68254 10.0016 3.72176C10.0212 3.73941 10.0467 3.74921 10.0702 3.74921Z" fill="#CCCCCC" style="fill:#CCCCCC;fill:color(display-p3 0.8000 0.8000 0.8000);fill-opacity:1;"/>
<path d="M10.8329 4.88993C10.8446 4.88993 10.8583 4.88797 10.8701 4.88209L11.3208 4.69595C11.3697 4.67635 11.3932 4.61953 11.3737 4.57055C11.3541 4.52156 11.2972 4.49805 11.2483 4.51764L10.7976 4.70379C10.7486 4.72338 10.7251 4.7802 10.7447 4.82919C10.7604 4.86837 10.7956 4.88993 10.8329 4.88993Z" fill="#CCCCCC" style="fill:#CCCCCC;fill:color(display-p3 0.8000 0.8000 0.8000);fill-opacity:1;"/>
<path d="M10.8701 7.39828C10.8211 7.37868 10.7643 7.40024 10.7447 7.45118C10.7251 7.50017 10.7486 7.55699 10.7976 7.57658L11.2483 7.76272C11.26 7.7686 11.2737 7.77056 11.2855 7.77056C11.3227 7.77056 11.3599 7.74901 11.3737 7.71178C11.3932 7.66279 11.3697 7.60597 11.3208 7.58638L10.8701 7.39828Z" fill="#CCCCCC" style="fill:#CCCCCC;fill:color(display-p3 0.8000 0.8000 0.8000);fill-opacity:1;"/>
<path d="M10.0016 8.69646L10.3467 9.04158C10.3663 9.06119 10.3898 9.06903 10.4153 9.06903C10.4408 9.06903 10.4644 9.05923 10.484 9.04158C10.5212 9.00432 10.5212 8.94354 10.484 8.90432L10.1388 8.55919C10.1016 8.52194 10.0408 8.52194 10.0016 8.55919C9.96432 8.59841 9.96432 8.6592 10.0016 8.69646Z" fill="#CCCCCC" style="fill:#CCCCCC;fill:color(display-p3 0.8000 0.8000 0.8000);fill-opacity:1;"/>
<path d="M8.89159 9.30261C8.84261 9.3222 8.8191 9.37902 8.83869 9.42801L9.02483 9.87866C9.04051 9.91589 9.07577 9.93744 9.113 9.93744C9.12476 9.93744 9.13847 9.93548 9.15023 9.92961C9.19922 9.91001 9.22273 9.85319 9.20313 9.80421L9.01699 9.35355C8.9974 9.30456 8.94058 9.28301 8.89159 9.30261Z" fill="#CCCCCC" style="fill:#CCCCCC;fill:color(display-p3 0.8000 0.8000 0.8000);fill-opacity:1;"/>
<path d="M6.01295 9.93127C6.02471 9.93715 6.03842 9.9391 6.05018 9.9391C6.08741 9.9391 6.12463 9.91755 6.13835 9.88032L6.32449 9.42967C6.34408 9.38068 6.32057 9.32386 6.27159 9.30427C6.2226 9.28467 6.16578 9.30818 6.14619 9.35717L5.96005 9.80783C5.94045 9.85289 5.96201 9.90971 6.01295 9.93127Z" fill="#CCCCCC" style="fill:#CCCCCC;fill:color(display-p3 0.8000 0.8000 0.8000);fill-opacity:1;"/>
<path d="M5.02663 8.56115L4.68151 8.90628C4.64425 8.94353 4.64425 9.00432 4.68151 9.04354C4.70112 9.06315 4.72465 9.07099 4.75014 9.07099C4.77563 9.07099 4.79916 9.06119 4.81877 9.04354L5.1639 8.69842C5.20115 8.66116 5.20115 8.60037 5.1639 8.56115C5.12468 8.52193 5.06389 8.52193 5.02663 8.56115Z" fill="#CCCCCC" style="fill:#CCCCCC;fill:color(display-p3 0.8000 0.8000 0.8000);fill-opacity:1;"/>
<path d="M4.29489 4.88235C4.30664 4.88822 4.32036 4.89018 4.33212 4.89018C4.36934 4.89018 4.40657 4.86863 4.42029 4.8314C4.43988 4.78242 4.41637 4.7256 4.36738 4.706L3.91673 4.51986C3.86774 4.50027 3.81092 4.52182 3.79133 4.57276C3.77173 4.62175 3.79525 4.67857 3.84423 4.69816L4.29489 4.88235Z" fill="#CCCCCC" style="fill:#CCCCCC;fill:color(display-p3 0.8000 0.8000 0.8000);fill-opacity:1;"/>
<path d="M5.09331 3.74921C5.1188 3.74921 5.14233 3.73941 5.16194 3.72176C5.1992 3.6845 5.1992 3.62371 5.16194 3.58449L4.81682 3.23937C4.77956 3.20211 4.71877 3.20211 4.67955 3.23937C4.6423 3.27663 4.6423 3.33742 4.67955 3.37663L5.02468 3.72176C5.04429 3.73941 5.06978 3.74921 5.09331 3.74921Z" fill="#CCCCCC" style="fill:#CCCCCC;fill:color(display-p3 0.8000 0.8000 0.8000);fill-opacity:1;"/>
<path d="M6.14617 2.92476C6.16184 2.96199 6.19711 2.98354 6.23434 2.98354C6.2461 2.98354 6.25981 2.98159 6.27157 2.97571C6.32055 2.95611 6.34407 2.89929 6.32447 2.85031L6.13833 2.39965C6.11874 2.35067 6.06192 2.32715 6.01293 2.34675C5.96395 2.36634 5.94043 2.42316 5.96003 2.47215L6.14617 2.92476Z" fill="#CCCCCC" style="fill:#CCCCCC;fill:color(display-p3 0.8000 0.8000 0.8000);fill-opacity:1;"/>
<path d="M7.34055 4.03174V5.65931C7.16407 5.74755 7.04053 5.92992 7.04053 6.1417C7.04053 6.43976 7.28172 6.68292 7.58174 6.68292C7.64057 6.68292 7.69744 6.67115 7.75038 6.6535L9.4662 8.36932C9.5113 8.41442 9.57209 8.43991 9.6368 8.43991C9.70151 8.43991 9.7623 8.41442 9.8074 8.36932C9.90152 8.27519 9.90152 8.12224 9.8074 8.02812L8.09159 6.3123C8.10923 6.25936 8.121 6.20249 8.121 6.1417C8.121 5.92992 7.99942 5.74952 7.82294 5.66127V4.0337C7.82294 3.90232 7.71313 3.79251 7.58174 3.79251C7.45036 3.79055 7.34055 3.8984 7.34055 4.03174Z" fill="#CCCCCC" style="fill:#CCCCCC;fill:color(display-p3 0.8000 0.8000 0.8000);fill-opacity:1;"/>
<path d="M5.05998 12.3029H4.9992C4.96782 10.8184 4.2011 9.6458 3.44222 9.24773C3.40496 9.22812 3.38143 9.18694 3.38143 9.14184C3.38143 9.09674 3.40496 9.05752 3.44222 9.03791C4.2011 8.63788 4.96782 7.46721 4.9992 5.98278H5.05998C5.19921 5.98278 5.31294 5.86905 5.31294 5.72982V5.53765C5.31294 5.39843 5.19921 5.28469 5.05998 5.28469H0.85379C0.714564 5.28273 0.60083 5.39647 0.60083 5.53765V5.72982C0.60083 5.86905 0.714564 5.98278 0.85379 5.98278H0.912618C0.943993 7.46917 1.71268 8.64181 2.47156 9.03791C2.50881 9.05752 2.53235 9.0987 2.53235 9.1438C2.53235 9.1889 2.50881 9.23008 2.47156 9.24969C1.71268 9.64776 0.943993 10.8184 0.912618 12.3048H0.85379C0.714564 12.3029 0.60083 12.4166 0.60083 12.5578V12.75C0.60083 12.8892 0.714564 13.0029 0.85379 13.0029H5.05998C5.19921 13.0029 5.31294 12.8892 5.31294 12.75V12.5578C5.31294 12.4166 5.19921 12.3029 5.05998 12.3029ZM1.22244 12.3029C1.25382 10.9518 1.95387 9.86739 2.61667 9.5203C2.75589 9.44775 2.84413 9.30264 2.84413 9.14184C2.84413 8.98105 2.75785 8.83594 2.61863 8.76338C1.95779 8.41826 1.25774 7.3319 1.22441 5.98082H4.69329C4.66192 7.32798 3.96186 8.4163 3.30103 8.76338C3.1618 8.83594 3.07552 8.98105 3.07552 9.14184C3.07552 9.30264 3.1618 9.44775 3.30103 9.5203C3.96186 9.86739 4.66192 10.9537 4.69329 12.3029H1.22244Z" fill="#CCCCCC" style="fill:#CCCCCC;fill:color(display-p3 0.8000 0.8000 0.8000);fill-opacity:1;"/>
<path d="M4.27956 6.83348C4.27956 6.82564 4.27956 6.81583 4.2776 6.80799C3.84031 6.77662 3.6952 6.88643 3.12457 7.11782C2.69316 7.29234 2.02645 7.07468 1.63818 6.93545C1.69113 7.83552 2.3951 8.5493 2.95985 8.5493C3.54225 8.5493 4.27956 7.78061 4.27956 6.83348Z" fill="#CCCCCC" style="fill:#CCCCCC;fill:color(display-p3 0.8000 0.8000 0.8000);fill-opacity:1;"/>
<path d="M1.49512 11.997H4.41886C4.25022 11.297 3.64626 10.7773 2.95601 10.7773C2.26576 10.7773 1.66376 11.297 1.49512 11.997Z" fill="#CCCCCC" style="fill:#CCCCCC;fill:color(display-p3 0.8000 0.8000 0.8000);fill-opacity:1;"/>
</g>
<defs>
<clipPath id="clip0_527_766">
<rect width="12.55" height="12.55" fill="white" style="fill:white;fill-opacity:1;" transform="translate(0.60083 0.511719)"/>
</clipPath>
</defs>
</svg>