<svg width="18" height="18" viewBox="0 0 18 18" fill="none" xmlns="http://www.w3.org/2000/svg">
<g clip-path="url(#clip0_655_9092)">
<path d="M18 6.56311L14.8008 4.98108V1.13146C14.8008 0.50657 14.2942 0 13.6693 0H4.33067C3.70579 0 3.19922 0.50657 3.19922 1.13146V4.98108L0 6.56311V16.8685C0 17.4934 0.50657 18 1.13146 18H16.8685C17.4934 18 18 17.4934 18 16.8685V6.56311ZM16.9453 7.21814V7.68097L14.8008 9.28269V6.15765L16.9453 7.21814ZM13.7461 1.05469V10.0704L9 13.6152L4.25391 10.0704V1.05469H13.7461ZM3.19922 6.15765V9.28269L1.05469 7.68097V7.21814L3.19922 6.15765ZM1.05469 16.9453V8.99736L9 14.9316L16.9453 8.99736V16.9453H1.05469Z" fill="#303E7C" style="fill:#303E7C;fill:color(display-p3 0.1882 0.2431 0.4863);fill-opacity:1;"/>
<path d="M7.94511 7.63607L8.9998 6.58138L10.0545 7.63607L10.8003 6.8903L9.74557 5.83561L10.8003 4.78093L10.0545 4.03516L8.9998 5.08984L7.94511 4.03516L7.19934 4.78093L8.25403 5.83561L7.19934 6.8903L7.94511 7.63607Z" fill="#303E7C" style="fill:#303E7C;fill:color(display-p3 0.1882 0.2431 0.4863);fill-opacity:1;"/>
</g>
<defs>
<clipPath id="clip0_655_9092">
<rect width="18" height="18" fill="white" style="fill:white;fill-opacity:1;"/>
</clipPath>
</defs>
</svg>
