<svg width="17" height="18" viewBox="0 0 17 18" fill="none" xmlns="http://www.w3.org/2000/svg">
<path fill-rule="evenodd" clip-rule="evenodd" d="M6.60203 0.605957H6.52502C5.26357 0.605948 4.26421 0.60594 3.4736 0.699393C2.66192 0.795336 1.99375 0.996756 1.4356 1.45482C1.24624 1.61021 1.07262 1.78384 0.917219 1.9732C0.459159 2.53134 0.257739 3.19952 0.161796 4.01119C0.0683427 4.80181 0.0683502 5.80116 0.0683596 7.06262V7.13963C0.0683501 8.40108 0.0683424 9.40043 0.161796 10.191C0.257738 11.0027 0.459158 11.6709 0.917219 12.229C1.07262 12.4184 1.24624 12.592 1.4356 12.7474C1.96456 13.1815 2.59233 13.3852 3.34778 13.487C3.96097 13.5696 4.69909 13.5896 5.58784 13.5946C5.59809 14.0843 5.62081 14.5145 5.67115 14.8888C5.76642 15.5975 5.97025 16.1941 6.44413 16.668C6.91802 17.1419 7.51469 17.3457 8.22333 17.441C8.90589 17.5328 9.77374 17.5328 10.8504 17.5328H11.7241C12.8008 17.5328 13.6687 17.5328 14.3512 17.441C15.0599 17.3457 15.6565 17.1419 16.1304 16.668C16.6043 16.1941 16.8081 15.5975 16.9034 14.8888C16.9952 14.2063 16.9952 13.3384 16.9952 12.2617V11.388C16.9952 10.3113 16.9952 9.44349 16.9034 8.76093C16.8081 8.05228 16.6043 7.45561 16.1304 6.98173C15.6565 6.50785 15.0599 6.30402 14.3512 6.20875C13.9769 6.15841 13.5467 6.13569 13.057 6.12544C13.052 5.23669 13.032 4.49857 12.9494 3.88538C12.8476 3.12993 12.6439 2.50215 12.2098 1.9732C12.0544 1.78384 11.8808 1.61022 11.6915 1.45482C11.1333 0.996756 10.4651 0.795337 9.65345 0.699394C8.86284 0.60594 7.86348 0.605948 6.60203 0.605957ZM11.8759 6.11701C11.8707 5.24298 11.851 4.57772 11.779 4.04309C11.6933 3.40713 11.5405 3.01912 11.297 2.72238C11.1906 2.59282 11.0718 2.47402 10.9423 2.3677C10.6294 2.11093 10.215 1.95493 9.51483 1.87217C8.80161 1.78786 7.8721 1.7869 6.56353 1.7869C5.25496 1.7869 4.32544 1.78786 3.61222 1.87217C2.91204 1.95493 2.49765 2.11093 2.18478 2.36769C2.05522 2.47402 1.93642 2.59282 1.8301 2.72237C1.57333 3.03525 1.41734 3.44964 1.33457 4.14982C1.25027 4.86304 1.2493 5.79255 1.2493 7.10112C1.2493 8.40969 1.25027 9.3392 1.33457 10.0524C1.41733 10.7526 1.57333 11.167 1.8301 11.4799C1.93642 11.6094 2.05522 11.7282 2.18478 11.8345C2.48152 12.0781 2.86954 12.2309 3.50549 12.3166C4.04012 12.3886 4.70538 12.4083 5.57942 12.4135C5.57941 12.3634 5.57941 12.3128 5.57941 12.2617V11.388C5.57939 10.3113 5.57938 9.44349 5.67115 8.76093C5.76642 8.05228 5.97025 7.45561 6.44413 6.98173C6.91802 6.50785 7.51469 6.30402 8.22334 6.20874C8.90589 6.11698 9.77374 6.11699 10.8504 6.11701H11.7241C11.7752 6.11701 11.8258 6.11701 11.8759 6.11701ZM7.27918 7.81678C7.49708 7.59889 7.803 7.45682 8.38069 7.37915C8.97537 7.2992 9.76354 7.29795 10.8936 7.29795H11.6809C12.811 7.29795 13.5992 7.2992 14.1939 7.37915C14.7716 7.45682 15.0775 7.59889 15.2954 7.81678C15.5133 8.03467 15.6553 8.34059 15.733 8.91829C15.813 9.51297 15.8142 10.3011 15.8142 11.4312V12.2185C15.8142 13.3486 15.813 14.1368 15.733 14.7315C15.6553 15.3092 15.5133 15.6151 15.2954 15.833C15.0775 16.0509 14.7716 16.1929 14.1939 16.2706C13.5992 16.3506 12.811 16.3518 11.6809 16.3518H10.8936C9.76354 16.3518 8.97537 16.3506 8.38069 16.2706C7.803 16.1929 7.49708 16.0509 7.27918 15.833C7.06129 15.6151 6.91922 15.3092 6.84156 14.7315C6.7616 14.1368 6.76035 13.3486 6.76035 12.2185V11.4312C6.76035 10.3011 6.7616 9.51297 6.84156 8.91829C6.91923 8.34059 7.06129 8.03467 7.27918 7.81678Z" fill="#4FABE8" style="fill:#4FABE8;fill:color(display-p3 0.3098 0.6706 0.9098);fill-opacity:1;"/>
</svg>
