<svg width="17" height="19" viewBox="0 0 17 19" fill="none" xmlns="http://www.w3.org/2000/svg">
<path d="M15.2732 3.17773H12.8234C12.4452 1.33921 10.8279 0.0189724 8.95093 0.0166016H7.37034C5.49333 0.0189724 3.87604 1.33921 3.49796 3.17773H1.04809C0.611626 3.17773 0.257812 3.53154 0.257812 3.968C0.257812 4.40446 0.611626 4.75831 1.04809 4.75831H1.83836V15.032C1.84099 17.2132 3.60857 18.9809 5.7898 18.9835H10.5315C12.7127 18.9809 14.4803 17.2132 14.483 15.032V4.75831H15.2732C15.7097 4.75831 16.0635 4.4045 16.0635 3.96804C16.0635 3.53158 15.7097 3.17773 15.2732 3.17773ZM7.37038 13.4515C7.37038 13.8879 7.01657 14.2417 6.58011 14.2417C6.14361 14.2417 5.7898 13.8879 5.7898 13.4515V8.70975C5.7898 8.27329 6.14361 7.91948 6.58007 7.91948C7.01653 7.91948 7.37034 8.27329 7.37034 8.70975V13.4515H7.37038ZM10.5315 13.4515C10.5315 13.8879 10.1777 14.2417 9.74124 14.2417C9.30478 14.2417 8.95097 13.8879 8.95097 13.4515V8.70975C8.95097 8.27329 9.30478 7.91948 9.74124 7.91948C10.1777 7.91948 10.5315 8.27329 10.5315 8.70975V13.4515ZM5.13466 3.17773C5.47081 2.2312 6.36595 1.59837 7.37038 1.59715H8.95097C9.95539 1.59837 10.8505 2.2312 11.1867 3.17773H5.13466Z" fill="#D40000" style="fill:#D40000;fill:color(display-p3 0.8316 0.0000 0.0000);fill-opacity:1;"/>
</svg>
