<svg width="24" height="24" viewBox="0 0 24 24" fill="none" xmlns="http://www.w3.org/2000/svg">
<path d="M15 5.25V1.5975C15.3658 1.69912 15.6996 1.89246 15.9697 2.15918L18.8408 5.03025C19.1077 5.30034 19.301 5.63415 19.4026 6H15.75C15.5511 5.9998 15.3605 5.92072 15.2199 5.78011C15.0793 5.6395 15.0002 5.44885 15 5.25ZM19.5 7.5V20.25C19.4993 20.8465 19.2621 21.4185 18.8403 21.8403C18.4185 22.2621 17.8465 22.4993 17.25 22.5H6.75C6.15346 22.4993 5.58154 22.2621 5.15973 21.8403C4.73791 21.4185 4.50065 20.8465 4.5 20.25V3.75C4.50065 3.15346 4.73791 2.58154 5.15973 2.15973C5.58154 1.73791 6.15346 1.50065 6.75 1.5H13.5V5.25C13.5007 5.84654 13.7379 6.41846 14.1597 6.84027C14.5815 7.26209 15.1535 7.49935 15.75 7.5H19.5ZM8.25 15.75C8.25 15.6017 8.20601 15.4567 8.1236 15.3333C8.04119 15.21 7.92406 15.1139 7.78701 15.0571C7.64997 15.0003 7.49917 14.9855 7.35368 15.0144C7.2082 15.0434 7.07456 15.1148 6.96967 15.2197C6.86478 15.3246 6.79335 15.4582 6.76441 15.6037C6.73547 15.7492 6.75032 15.9 6.80709 16.037C6.86386 16.1741 6.95999 16.2912 7.08332 16.3736C7.20666 16.456 7.35166 16.5 7.5 16.5C7.69891 16.5 7.88968 16.421 8.03033 16.2803C8.17098 16.1397 8.25 15.9489 8.25 15.75ZM8.25 12.75C8.25 12.6017 8.20601 12.4567 8.1236 12.3333C8.04119 12.21 7.92406 12.1139 7.78701 12.0571C7.64997 12.0003 7.49917 11.9855 7.35368 12.0144C7.2082 12.0434 7.07456 12.1148 6.96967 12.2197C6.86478 12.3246 6.79335 12.4582 6.76441 12.6037C6.73547 12.7492 6.75032 12.9 6.80709 13.037C6.86386 13.1741 6.95999 13.2912 7.08332 13.3736C7.20666 13.456 7.35166 13.5 7.5 13.5C7.69891 13.5 7.88968 13.421 8.03033 13.2803C8.17098 13.1397 8.25 12.9489 8.25 12.75ZM8.25 9.75C8.25 9.60166 8.20601 9.45666 8.1236 9.33332C8.04119 9.20999 7.92406 9.11386 7.78701 9.05709C7.64997 9.00032 7.49917 8.98547 7.35368 9.01441C7.2082 9.04335 7.07456 9.11478 6.96967 9.21967C6.86478 9.32456 6.79335 9.4582 6.76441 9.60368C6.73547 9.74917 6.75032 9.89997 6.80709 10.037C6.86386 10.1741 6.95999 10.2912 7.08332 10.3736C7.20666 10.456 7.35166 10.5 7.5 10.5C7.69891 10.5 7.88968 10.421 8.03033 10.2803C8.17098 10.1397 8.25 9.94891 8.25 9.75ZM17.25 15.75C17.25 15.6515 17.2306 15.554 17.193 15.463C17.1553 15.372 17.1 15.2893 17.0304 15.2196C16.9607 15.15 16.878 15.0947 16.787 15.057C16.696 15.0194 16.5985 15 16.5 15H9.75C9.55109 15 9.36032 15.079 9.21967 15.2197C9.07902 15.3603 9 15.5511 9 15.75C9 15.9489 9.07902 16.1397 9.21967 16.2803C9.36032 16.421 9.55109 16.5 9.75 16.5H16.5C16.5985 16.5 16.696 16.4806 16.787 16.443C16.878 16.4053 16.9607 16.35 17.0304 16.2804C17.1 16.2107 17.1553 16.128 17.193 16.037C17.2306 15.946 17.25 15.8485 17.25 15.75ZM17.25 12.75C17.25 12.6515 17.2306 12.554 17.193 12.463C17.1553 12.372 17.1 12.2893 17.0304 12.2196C16.9607 12.15 16.878 12.0947 16.787 12.057C16.696 12.0194 16.5985 12 16.5 12H9.75C9.55109 12 9.36032 12.079 9.21967 12.2197C9.07902 12.3603 9 12.5511 9 12.75C9 12.9489 9.07902 13.1397 9.21967 13.2803C9.36032 13.421 9.55109 13.5 9.75 13.5H16.5C16.5985 13.5 16.696 13.4806 16.787 13.443C16.878 13.4053 16.9607 13.35 17.0304 13.2804C17.1 13.2107 17.1553 13.128 17.193 13.037C17.2306 12.946 17.25 12.8485 17.25 12.75ZM17.25 9.75C17.25 9.6515 17.2306 9.55396 17.193 9.46296C17.1553 9.37195 17.1 9.28926 17.0304 9.21961C16.9607 9.14996 16.878 9.09472 16.787 9.05704C16.696 9.01936 16.5985 8.99997 16.5 9H9.75C9.55109 9 9.36032 9.07902 9.21967 9.21967C9.07902 9.36032 9 9.55109 9 9.75C9 9.94891 9.07902 10.1397 9.21967 10.2803C9.36032 10.421 9.55109 10.5 9.75 10.5H16.5C16.5985 10.5 16.696 10.4806 16.787 10.443C16.878 10.4053 16.9607 10.35 17.0304 10.2804C17.1 10.2107 17.1553 10.128 17.193 10.037C17.2306 9.94604 17.25 9.8485 17.25 9.75Z" fill="white" style="fill:white;fill-opacity:1;"/>
</svg>
