<svg width="20" height="20" viewBox="0 0 20 20" fill="none" xmlns="http://www.w3.org/2000/svg">
<g clip-path="url(#clip0_628_10933)">
<path d="M12.7656 8.74707L9.79688 3.99707L6.82812 8.74707H12.7656Z" fill="#9BC9FF" style="fill:#9BC9FF;fill:color(display-p3 0.6078 0.7882 1.0000);fill-opacity:1;"/>
<path d="M12.7656 8.74707H18.7031L15.7344 3.99707L12.7656 8.74707Z" fill="#9BC9FF" style="fill:#9BC9FF;fill:color(display-p3 0.6078 0.7882 1.0000);fill-opacity:1;"/>
<path d="M3.85938 3.99707L0.890625 8.74707H6.82812L3.85938 3.99707Z" fill="#9BC9FF" style="fill:#9BC9FF;fill:color(display-p3 0.6078 0.7882 1.0000);fill-opacity:1;"/>
<path d="M0.890625 8.74707L9.76511 18.1452L6.82813 8.74707H0.890625Z" fill="#9BC9FF" style="fill:#9BC9FF;fill:color(display-p3 0.6078 0.7882 1.0000);fill-opacity:1;"/>
<path d="M9.8125 18.196L9.86059 18.2471L18.7027 8.74707H12.7652L9.8125 18.196Z" fill="#9BC9FF" style="fill:#9BC9FF;fill:color(display-p3 0.6078 0.7882 1.0000);fill-opacity:1;"/>
<path d="M9.79739 18.2473L9.81342 18.1963L9.76562 18.1455L9.79739 18.2473Z" fill="#9BC9FF" style="fill:#9BC9FF;fill:color(display-p3 0.6078 0.7882 1.0000);fill-opacity:1;"/>
<path d="M9.79688 3.10645C9.71814 3.10645 9.64263 3.07517 9.58695 3.01949C9.53128 2.96382 9.5 2.88831 9.5 2.80957V1.02832C9.5 0.949584 9.53128 0.874073 9.58695 0.818398C9.64263 0.762723 9.71814 0.731445 9.79688 0.731445C9.87561 0.731445 9.95112 0.762723 10.0068 0.818398C10.0625 0.874073 10.0938 0.949584 10.0938 1.02832V2.80957C10.0938 2.88831 10.0625 2.96382 10.0068 3.01949C9.95112 3.07517 9.87561 3.10645 9.79688 3.10645Z" fill="#1E81CE" style="fill:#1E81CE;fill:color(display-p3 0.1176 0.5059 0.8078);fill-opacity:1;"/>
<path d="M1.78113 14.388C1.70977 14.388 1.64081 14.3622 1.58687 14.3155C1.53293 14.2688 1.49763 14.2042 1.48743 14.1336C1.47722 14.0629 1.4928 13.991 1.53131 13.9309C1.56982 13.8708 1.62868 13.8266 1.69711 13.8064L3.20554 13.3611C3.24312 13.3494 3.28265 13.3453 3.32184 13.349C3.36103 13.3527 3.3991 13.3642 3.43381 13.3827C3.46853 13.4013 3.49921 13.4265 3.52407 13.4571C3.54893 13.4876 3.56746 13.5228 3.57861 13.5605C3.58975 13.5983 3.59327 13.6379 3.58897 13.677C3.58466 13.7161 3.57262 13.754 3.55354 13.7884C3.53446 13.8229 3.50872 13.8532 3.47782 13.8775C3.44693 13.9019 3.41149 13.9199 3.37357 13.9305L1.86515 14.3758C1.83787 14.3839 1.80958 14.388 1.78113 14.388Z" fill="#1E81CE" style="fill:#1E81CE;fill:color(display-p3 0.1176 0.5059 0.8078);fill-opacity:1;"/>
<path d="M5.34371 17.95C5.29755 17.95 5.25202 17.9392 5.21075 17.9185C5.16948 17.8978 5.1336 17.8678 5.10596 17.8308C5.07832 17.7939 5.05969 17.751 5.05154 17.7055C5.04339 17.6601 5.04595 17.6134 5.05901 17.5691L5.50432 16.0604C5.52665 15.9849 5.57805 15.9213 5.64722 15.8837C5.7164 15.8461 5.79768 15.8375 5.87319 15.8598C5.9487 15.8822 6.01225 15.9336 6.04986 16.0027C6.08746 16.0719 6.09605 16.1532 6.07373 16.2287L5.62842 17.7371C5.61029 17.7986 5.57276 17.8525 5.52145 17.8909C5.47013 17.9292 5.40778 17.95 5.34371 17.95Z" fill="#1E81CE" style="fill:#1E81CE;fill:color(display-p3 0.1176 0.5059 0.8078);fill-opacity:1;"/>
<path d="M6.38408 3.13091C6.33192 3.13096 6.28066 3.11727 6.23548 3.09121C6.19029 3.06515 6.15277 3.02765 6.12669 2.98248L5.23606 1.43873C5.19732 1.37058 5.1871 1.28987 5.20764 1.21421C5.22818 1.13855 5.27781 1.07409 5.3457 1.03489C5.41359 0.995695 5.49423 0.984942 5.57002 1.00498C5.64581 1.02502 5.7106 1.07422 5.75025 1.14185L6.64088 2.6856C6.66692 2.73071 6.68064 2.78188 6.68065 2.83396C6.68066 2.88605 6.66697 2.93722 6.64095 2.98234C6.61493 3.02747 6.5775 3.06495 6.53241 3.09103C6.48732 3.1171 6.43617 3.13086 6.38408 3.13091Z" fill="#1E81CE" style="fill:#1E81CE;fill:color(display-p3 0.1176 0.5059 0.8078);fill-opacity:1;"/>
<path d="M13.2106 3.13091C13.1585 3.13086 13.1074 3.1171 13.0623 3.09103C13.0172 3.06495 12.9798 3.02747 12.9538 2.98234C12.9277 2.93722 12.914 2.88605 12.9141 2.83396C12.9141 2.78188 12.9278 2.73071 12.9538 2.6856L13.8445 1.14185C13.8841 1.07422 13.9489 1.02502 14.0247 1.00498C14.1005 0.984942 14.1811 0.995695 14.249 1.03489C14.3169 1.07409 14.3665 1.13855 14.3871 1.21421C14.4076 1.28987 14.3974 1.37058 14.3586 1.43873L13.468 2.98248C13.4419 3.02765 13.4044 3.06515 13.3592 3.09121C13.314 3.11727 13.2628 3.13096 13.2106 3.13091Z" fill="#1E81CE" style="fill:#1E81CE;fill:color(display-p3 0.1176 0.5059 0.8078);fill-opacity:1;"/>
<path d="M3.26556 16.4661C3.20685 16.4661 3.14947 16.4486 3.10066 16.416C3.05185 16.3834 3.01381 16.337 2.99134 16.2828C2.96888 16.2286 2.963 16.1689 2.97445 16.1113C2.9859 16.0537 3.01417 16.0008 3.05567 15.9593L4.24317 14.7718C4.29916 14.7177 4.37415 14.6878 4.45199 14.6885C4.52983 14.6892 4.60429 14.7204 4.65934 14.7754C4.71438 14.8305 4.7456 14.9049 4.74628 14.9828C4.74695 15.0606 4.71703 15.1356 4.66295 15.1916L3.47545 16.3791C3.41979 16.4348 3.34429 16.4661 3.26556 16.4661Z" fill="#1E81CE" style="fill:#1E81CE;fill:color(display-p3 0.1176 0.5059 0.8078);fill-opacity:1;"/>
<path d="M17.8135 14.388C17.7851 14.388 17.7568 14.3839 17.7295 14.3758L16.2211 13.9305C16.1832 13.9199 16.1477 13.9019 16.1168 13.8775C16.0859 13.8532 16.0602 13.8229 16.0411 13.7884C16.022 13.754 16.01 13.7161 16.0057 13.677C16.0014 13.6379 16.0049 13.5983 16.016 13.5605C16.0272 13.5228 16.0457 13.4876 16.0706 13.4571C16.0954 13.4265 16.1261 13.4013 16.1608 13.3827C16.1956 13.3642 16.2336 13.3527 16.2728 13.349C16.312 13.3453 16.3515 13.3494 16.3891 13.3611L17.8975 13.8064C17.966 13.8266 18.0248 13.8708 18.0633 13.9309C18.1019 13.991 18.1174 14.0629 18.1072 14.1336C18.097 14.2042 18.0617 14.2688 18.0078 14.3155C17.9538 14.3622 17.8849 14.388 17.8135 14.388Z" fill="#1E81CE" style="fill:#1E81CE;fill:color(display-p3 0.1176 0.5059 0.8078);fill-opacity:1;"/>
<path d="M14.25 17.95C14.1859 17.95 14.1236 17.9292 14.0723 17.8909C14.021 17.8525 13.9834 17.7986 13.9653 17.7371L13.52 16.2287C13.4977 16.1532 13.5063 16.0719 13.5439 16.0027C13.5815 15.9336 13.645 15.8822 13.7205 15.8598C13.796 15.8375 13.8773 15.8461 13.9465 15.8837C14.0157 15.9213 14.0671 15.9849 14.0894 16.0604L14.5347 17.5691C14.5478 17.6134 14.5503 17.6601 14.5422 17.7055C14.534 17.751 14.5154 17.7939 14.4878 17.8308C14.4601 17.8678 14.4242 17.8978 14.383 17.9185C14.3417 17.9392 14.2962 17.95 14.25 17.95Z" fill="#1E81CE" style="fill:#1E81CE;fill:color(display-p3 0.1176 0.5059 0.8078);fill-opacity:1;"/>
<path d="M16.3284 16.4661C16.2497 16.4661 16.1742 16.4348 16.1185 16.3791L14.931 15.1916C14.8769 15.1356 14.847 15.0606 14.8477 14.9828C14.8483 14.9049 14.8796 14.8305 14.9346 14.7754C14.9897 14.7204 15.0641 14.6892 15.142 14.6885C15.2198 14.6878 15.2948 14.7177 15.3508 14.7718L16.5383 15.9593C16.5798 16.0008 16.608 16.0537 16.6195 16.1113C16.6309 16.1689 16.6251 16.2286 16.6026 16.2828C16.5801 16.337 16.5421 16.3834 16.4933 16.416C16.4445 16.4486 16.3871 16.4661 16.3284 16.4661Z" fill="#1E81CE" style="fill:#1E81CE;fill:color(display-p3 0.1176 0.5059 0.8078);fill-opacity:1;"/>
<path d="M18.9559 8.58973L15.9871 3.83973C15.9601 3.79717 15.9229 3.76209 15.8788 3.73771C15.8347 3.71333 15.7852 3.70043 15.7348 3.7002H3.85978C3.80939 3.70043 3.75987 3.71333 3.71577 3.73771C3.67168 3.76209 3.63442 3.79717 3.60744 3.83973L0.638686 8.58973C0.604036 8.64563 0.58875 8.71139 0.595189 8.77685C0.601628 8.84231 0.629432 8.90383 0.674311 8.95191L9.64587 18.4519C9.67385 18.4814 9.70757 18.5048 9.74496 18.5207C9.78235 18.5366 9.8226 18.5447 9.86324 18.5444C9.90387 18.5441 9.94401 18.5355 9.98118 18.5191C10.0183 18.5027 10.0517 18.4788 10.0793 18.4489L18.9202 8.94895C18.9648 8.90131 18.9925 8.8403 18.9989 8.77537C19.0054 8.71044 18.9902 8.6452 18.9559 8.58973ZM15.2004 4.29395L12.766 8.18598L10.3317 4.29395H15.2004ZM12.2317 8.4502H7.3629L9.79728 4.55816L12.2317 8.4502ZM9.26291 4.29395L6.82853 8.18598L4.39416 4.29395H9.26291ZM3.85978 4.55816L6.29416 8.4502H1.4254L3.85978 4.55816ZM1.57978 9.04395H6.61181L9.09962 17.0061L1.57978 9.04395ZM9.79728 17.2525L7.23228 9.04395H12.3623L9.79728 17.2525ZM10.4385 17.1932L12.9827 9.04395H18.0207L10.4385 17.1932ZM13.3004 8.4502L15.7348 4.55816L18.1692 8.4502H13.3004Z" fill="#1E81CE" style="fill:#1E81CE;fill:color(display-p3 0.1176 0.5059 0.8078);fill-opacity:1;"/>
</g>
<defs>
<clipPath id="clip0_628_10933">
<rect width="19" height="19" fill="white" style="fill:white;fill-opacity:1;" transform="translate(0.296875 0.137695)"/>
</clipPath>
</defs>
</svg>
