<svg width="27" height="27" viewBox="0 0 27 27" fill="none" xmlns="http://www.w3.org/2000/svg">
<g clip-path="url(#clip0_297_15850)">
<path d="M17.7093 5.83716C17.7989 5.65789 17.7797 5.44666 17.6581 5.29301L14.2907 0.875738C14.1947 0.747703 14.041 0.670898 13.881 0.670898C13.7209 0.670898 13.5673 0.747703 13.4648 0.875738L10.0975 5.29301C9.97583 5.44666 9.96305 5.66433 10.0462 5.83716C10.1359 6.01643 10.3151 6.12524 10.5136 6.12524H11.3778V10.6514C13.5673 11.7333 15.3342 13.5322 16.3777 15.7408V6.12524H17.2419C17.4404 6.12524 17.6197 6.00999 17.7093 5.83716Z" fill="#1A1A1A" style="fill:#1A1A1A;fill:color(display-p3 0.1020 0.1020 0.1020);fill-opacity:1;"/>
<path d="M22.2395 9.30011C22.0859 9.17847 21.8682 9.16568 21.6954 9.24888C21.5161 9.33852 21.4073 9.51774 21.4073 9.71623V10.5805H21.1576C19.8581 10.5805 18.5905 10.8365 17.4189 11.3231V17.1488C18.232 16.1885 19.4419 15.5803 20.7863 15.5803H21.4073V16.4446C21.4073 16.643 21.5226 16.8223 21.6954 16.9119C21.8747 17.0016 22.0859 16.9823 22.2395 16.8607L26.6568 13.4933C26.7848 13.3973 26.8617 13.2436 26.8617 13.0836C26.8617 12.9172 26.7848 12.7699 26.6568 12.6675L22.2395 9.30011Z" fill="#1A1A1A" style="fill:#1A1A1A;fill:color(display-p3 0.1020 0.1020 0.1020);fill-opacity:1;"/>
<path d="M1.10092 13.4869L5.51819 16.8543C5.67184 16.9759 5.88951 16.9951 6.06234 16.9055C6.24161 16.8159 6.35042 16.6366 6.35042 16.4382V15.5739H6.97142C9.40414 15.5739 11.3759 17.5521 11.3759 19.9784V24.9654C11.3759 25.2535 11.6064 25.484 11.8944 25.484H15.8572C16.1453 25.484 16.3757 25.2535 16.3757 24.9654V20.3561C16.3757 14.9657 11.9905 10.5805 6.6001 10.5805H6.34403V9.71625C6.34403 9.5178 6.23522 9.33853 6.05595 9.2489C5.87668 9.16566 5.66545 9.17849 5.5118 9.30013L1.09449 12.6675C0.966452 12.7635 0.889648 12.9171 0.889648 13.0836C0.896042 13.2436 0.966452 13.3909 1.10092 13.4869Z" fill="#1A1A1A" style="fill:#1A1A1A;fill:color(display-p3 0.1020 0.1020 0.1020);fill-opacity:1;"/>
</g>
<defs>
<clipPath id="clip0_297_15850">
<rect width="25.9723" height="25.9723" fill="white" style="fill:white;fill-opacity:1;" transform="translate(0.894531 0.0917969)"/>
</clipPath>
</defs>
</svg>
