<svg width="25" height="24" viewBox="0 0 25 24" fill="none" xmlns="http://www.w3.org/2000/svg">
<path d="M14.96 3.25961L15.84 2.37961C16.88 1.33961 18.69 1.33961 19.73 2.37961L20.44 3.08961C20.96 3.60961 21.25 4.29961 21.25 5.02961C21.25 5.75961 20.96 6.45961 20.44 6.96961L19.56 7.84961L14.96 3.24961V3.25961ZM13.9 4.31961L4.79 13.4296C4.5 13.7196 4.32 14.0996 4.29 14.5096L4.02 17.4396C3.99 17.8096 4.12 18.1696 4.38 18.4396C4.62 18.6796 4.93 18.8096 5.26 18.8096H5.37L8.3 18.5396C8.71 18.4996 9.09 18.3196 9.38 18.0296L18.49 8.91961L13.89 4.31961H13.9ZM23.25 21.9996C23.25 21.5896 22.91 21.2496 22.5 21.2496H2.5C2.09 21.2496 1.75 21.5896 1.75 21.9996C1.75 22.4096 2.09 22.7496 2.5 22.7496H22.5C22.91 22.7496 23.25 22.4096 23.25 21.9996Z" fill="white" style="fill:white;fill-opacity:1;"/>
</svg>
