<svg width="11" height="16" viewBox="0 0 11 16" fill="none" xmlns="http://www.w3.org/2000/svg">
<path d="M6.51124 0.799672C6.9402 0.991655 7.21768 1.43657 7.21768 1.95412V6.64731C7.21768 6.71001 7.23934 6.75131 7.25442 6.7692L7.25506 6.76996H9.42103C9.96677 6.76996 10.3279 7.15427 10.473 7.53503C10.619 7.91811 10.6004 8.40924 10.3064 8.8054L5.80756 14.8689C5.47456 15.3177 4.93839 15.4369 4.48843 15.2355C4.05947 15.0435 3.78199 14.5986 3.78199 14.0811V9.38789C3.78199 9.32519 3.76033 9.28389 3.74525 9.26601L3.7446 9.26525H1.57863C1.0329 9.26525 0.671761 8.88093 0.526632 8.50017C0.380619 8.11709 0.399291 7.62596 0.693228 7.2298L5.1921 1.16632C5.5251 0.71751 6.06128 0.598292 6.51124 0.799672Z" fill="#161616" style="fill:#161616;fill:color(display-p3 0.0863 0.0863 0.0863);fill-opacity:1;"/>
</svg>
