<svg fill="none" height="24" viewBox="0 0 24 24" width="24" xmlns="http://www.w3.org/2000/svg" xmlns:xlink="http://www.w3.org/1999/xlink"><clipPath id="clip0_17_18203"><path d="m0 0h24v24h-24z"/></clipPath><g clip-path="url(#clip0_17_18203)"><path d="m19 3h-14c-1.1 0-2 .9-2 2v14c0 1.1.9 2 2 2h14c1.1 0 2-.9 2-2v-14c0-1.1-.9-2-2-2zm-10.5 3c.69 0 1.25.56 1.25 1.25s-.56 1.25-1.25 1.25-1.25-.56-1.25-1.25.56-1.25 1.25-1.25zm2.5 7c0 .55-.45 1-1 1v3c0 .55-.45 1-1 1h-1c-.55 0-1-.45-1-1v-3c-.55 0-1-.45-1-1v-1.5c0-1.1.9-2 2-2h1c1.1 0 2 .9 2 2zm6.52.76-1.6 2.56c-.2.31-.65.31-.85 0l-1.6-2.56c-.2-.33.04-.76.43-.76h3.2c.39 0 .63.43.42.76zm-.42-2.76h-3.2c-.39 0-.63-.43-.42-.77l1.6-2.56c.2-.31.65-.31.85 0l1.6 2.56c.2.34-.04.77-.43.77z" fill="rgb(0,0,0)"/></g></svg>