<svg width="24" height="28" viewBox="0 0 24 28" fill="none" xmlns="http://www.w3.org/2000/svg">
<path fill-rule="evenodd" clip-rule="evenodd" d="M14.6335 5.09141C12.7884 5.04505 10.9613 5.04505 9.11614 5.09141L9.06119 5.09279C7.62061 5.12896 6.46142 5.15806 5.53243 5.31985C4.55981 5.48924 3.76932 5.81411 3.1015 6.48447C2.43649 7.15201 2.11332 7.93114 1.94715 8.88799C1.78894 9.79908 1.76484 10.93 1.73499 12.3309L1.7338 12.3864C1.71373 13.3277 1.71373 14.2635 1.73381 15.2048L1.73499 15.2603C1.76484 16.6612 1.78894 17.7921 1.94716 18.7032C2.11332 19.66 2.4365 20.4392 3.10151 21.1067C3.76932 21.7771 4.55981 22.1019 5.53243 22.2713C6.46141 22.4331 7.62058 22.4622 9.06114 22.4984L9.11615 22.4998C10.9613 22.5461 12.7884 22.5461 14.6335 22.4998L14.6885 22.4984C16.1291 22.4622 17.2883 22.4331 18.2172 22.2713C19.1899 22.1019 19.9803 21.7771 20.6482 21.1067C21.3132 20.4392 21.6363 19.66 21.8025 18.7032C21.9607 17.7921 21.9848 16.6612 22.0147 15.2603L22.0159 15.2048C22.0359 14.2635 22.0359 13.3277 22.0159 12.3864L22.0147 12.3309C21.9848 10.93 21.9607 9.7991 21.8025 8.888C21.6363 7.93115 21.3132 7.15202 20.6482 6.48448C19.9803 5.81413 19.1899 5.48925 18.2172 5.31986C17.2882 5.15807 16.1291 5.12897 14.6885 5.09279L14.6335 5.09141ZM9.15173 6.50809C10.9731 6.46233 12.7765 6.46233 14.5979 6.50809C16.1064 6.54599 17.1604 6.57427 17.9741 6.71598C18.7559 6.85213 19.2434 7.08229 19.6442 7.48464C19.8085 7.6496 19.9435 7.82717 20.0547 8.03099L14.442 11.2112C13.2561 11.8831 12.5364 12.1423 11.8749 12.1423C11.2134 12.1423 10.4937 11.8831 9.3078 11.2112L3.69499 8.03091C3.80618 7.82711 3.94115 7.64956 4.10546 7.48462C4.50629 7.08227 4.99375 6.85212 5.77556 6.71596C6.58922 6.57426 7.64328 6.54598 9.15173 6.50809ZM3.29744 9.43446C3.19969 10.1825 3.17809 11.1281 3.15061 12.4166C3.13097 13.3378 3.13097 14.2534 3.15061 15.1746C3.18195 16.6442 3.20565 17.6676 3.34339 18.4607C3.47526 19.2201 3.70185 19.7014 4.10547 20.1066C4.50629 20.5089 4.99376 20.7391 5.77557 20.8752C6.58922 21.0169 7.64329 21.0452 9.15174 21.0831C10.9732 21.1289 12.7765 21.1289 14.5979 21.0831C16.1064 21.0452 17.1604 21.0169 17.9741 20.8752C18.7559 20.7391 19.2434 20.5089 19.6442 20.1066C20.0478 19.7014 20.2744 19.2201 20.4063 18.4607C20.544 17.6676 20.5677 16.6442 20.599 15.1746C20.6187 14.2534 20.6187 13.3378 20.599 12.4166C20.5716 11.1281 20.55 10.1826 20.4522 9.43456L15.1407 12.4441C13.9188 13.1364 12.9259 13.5594 11.8749 13.5594C10.8239 13.5594 9.83102 13.1364 8.60919 12.4441L3.29744 9.43446Z" fill="#4FABE8" style="fill:#4FABE8;fill:color(display-p3 0.3098 0.6706 0.9098);fill-opacity:1;"/>
</svg>
