<svg width="19" height="19" viewBox="0 0 19 19" fill="none" xmlns="http://www.w3.org/2000/svg">
<path d="M10.5112 1.79967C10.9402 1.99165 11.2177 2.43657 11.2177 2.95412V7.64731C11.2177 7.71001 11.2393 7.75131 11.2544 7.7692L11.2551 7.76996H13.421C13.9668 7.76996 14.3279 8.15427 14.473 8.53503C14.619 8.91811 14.6004 9.40924 14.3064 9.8054L9.80756 15.8689C9.47456 16.3177 8.93839 16.4369 8.48843 16.2355C8.05947 16.0435 7.78199 15.5986 7.78199 15.0811V10.3879C7.78199 10.3252 7.76033 10.2839 7.74525 10.266L7.7446 10.2652H5.57863C5.0329 10.2652 4.67176 9.88093 4.52663 9.50017C4.38062 9.11709 4.39929 8.62596 4.69323 8.2298L9.1921 2.16632C9.5251 1.71751 10.0613 1.59829 10.5112 1.79967Z" fill="#161616" style="fill:#161616;fill:color(display-p3 0.0863 0.0863 0.0863);fill-opacity:1;"/>
</svg>
