<svg id="Bahan_copy_2" height="512" viewBox="0 0 64 64" width="512" xmlns="http://www.w3.org/2000/svg" data-name="Bahan copy 2"><g fill="rgb(0,0,0)"><path d="m59 5.04h-12.68c.01786.867 0 16.66 0 16.66h12.68a.99654.99654 0 0 0 1-1v-14.66a1.003 1.003 0 0 0 -1-1zm-1.75 8.33a.97511.97511 0 0 1 -1.95-.00007.97511.97511 0 0 1 1.95.00007z"/><path d="m19.25 21.7h12.68c-.01786-.867 0-16.66 0-16.66h-12.68a1.003 1.003 0 0 0 -1 1v14.66a.99654.99654 0 0 0 1 1zm9.49-8.33a.9802.9802 0 0 1 1.96.00006.9802.9802 0 0 1 -1.96-.00006z"/><path d="m44.32 5.03993h-10.39s.00485 15.73515 0 16.66009l10.39-.00002s-.00484-15.73514 0-16.66007zm-2.93 8.33007a.97511.97511 0 0 1 1.95.00006.97511.97511 0 0 1 -1.95-.00006z"/><path d="m59 32.35h-22c-.00066 1.29576.00047 5.1677 0 6.52h23v-5.52a1.003 1.003 0 0 0 -1-1zm-16.98 5.26a1.00016 1.00016 0 0 1 .00006-2 1.00016 1.00016 0 0 1 -.00006 2zm5.48 0a1.0002 1.0002 0 0 1 .00006-2 1.0002 1.0002 0 0 1 -.00006 2zm5.48 0a1.0002 1.0002 0 0 1 .00006-2 1.0002 1.0002 0 0 1 -.00006 2z"/><path d="m4 33.35v5.56h31c-.00054-1.37455.00039-5.24345 0-6.56h-30a1.003 1.003 0 0 0 -1 1z"/><path d="m4 40.91v17.05a1.00291 1.00291 0 0 0 1 1h14.5v-18.05c-1.26471-.00153-14.69851.00105-15.5 0zm12.39 7.02a1.0001 1.0001 0 0 1 0 2 1.0001 1.0001 0 0 1 0-2z"/><path d="m37 40.87c-.009.96129.00649 17.87086 0 18.09h22a1.00291 1.00291 0 0 0 1-1v-17.09zm.92 4.15a3.00242 3.00242 0 0 1 3-3h13.16a3.00242 3.00242 0 0 1 3 3v7.54a3.00242 3.00242 0 0 1 -3 3h-13.16a3.00242 3.00242 0 0 1 -3-3z"/><path d="m21.5 58.96h13.5v-18.05h-13.5zm11.16-11.03a1.00016 1.00016 0 0 1 -.00005 2 1.00016 1.00016 0 0 1 .00005-2z"/><rect height="9.54" rx="1" width="15.16" x="39.92" y="44.02"/></g></svg>