<svg viewBox="0 0 100 100" xmlns="http://www.w3.org/2000/svg">
  <!-- Background circle -->
  <circle cx="50" cy="50" r="48" fill="none" stroke="black" stroke-width="2"/>
  
  <!-- Building/apartment outline -->
  <rect x="25" y="35" width="50" height="45" fill="none" stroke="black" stroke-width="2" rx="2"/>
  
  <!-- Floors/windows -->
  <rect x="30" y="42" width="12" height="8" fill="none" stroke="black" stroke-width="1"/>
  <rect x="58" y="42" width="12" height="8" fill="none" stroke="black" stroke-width="1"/>
  <rect x="30" y="55" width="12" height="8" fill="none" stroke="black" stroke-width="1"/>
  <rect x="58" y="55" width="12" height="8" fill="none" stroke="black" stroke-width="1"/>
  
  <!-- Door -->
  <rect x="44" y="65" width="12" height="15" fill="none" stroke="black" stroke-width="1"/>
  <circle cx="47" cy="72" r="1" fill="black"/>
  
  <!-- Paint brush (finishing tool) -->
  <g transform="translate(15,15) rotate(-30)">
    <rect x="0" y="0" width="2" height="15" fill="black"/>
    <ellipse cx="1" cy="-2" rx="3" ry="2" fill="black"/>
  </g>
  
  <!-- Checkmark (status indicator) -->
  <circle cx="75" cy="25" r="12" fill="none" stroke="black" stroke-width="2"/>
  <path d="M70 25 L73 28 L80 21" stroke="black" stroke-width="2.5" fill="none" stroke-linecap="round" stroke-linejoin="round"/>
  
  <!-- Paint drops/finishing details -->
  <circle cx="35" cy="30" r="1.5" fill="black"/>
  <circle cx="42" cy="28" r="1" fill="black"/>
  <circle cx="38" cy="25" r="1.2" fill="black"/>
</svg>