<svg width="15" height="17" viewBox="0 0 15 17" fill="none" xmlns="http://www.w3.org/2000/svg">
<path d="M7.72125 0.445879C7.58025 0.385879 7.41975 0.385879 7.27875 0.445879C7.17525 0.475879 6.89625 0.655908 6.77025 0.738408C6.48825 0.933408 6.11925 1.24088 5.75325 1.68338C5.1315 2.44088 4.53599 3.58089 4.36274 5.22339C4.18049 5.05089 4.01025 4.81841 3.9045 4.52591C3.846 4.36091 3.71551 4.23344 3.55126 4.18094C3.38701 4.12844 3.20701 4.15089 3.06301 4.24839C2.98201 4.28589 2.84101 4.43592 2.78101 4.50342C2.64226 4.65342 2.47275 4.88588 2.30925 5.20838C1.98225 5.86838 1.6875 6.89591 1.6875 8.46341C1.6875 9.81341 2.21851 11.1559 3.12001 12.2134H5.15175C5.09325 11.9734 5.0625 11.7184 5.0625 11.4634C5.0625 10.3534 5.607 9.30341 6.0945 8.57591C6.34425 8.20091 6.59324 7.88594 6.77999 7.66844C6.87074 7.56344 7.03574 7.38339 7.09724 7.32339L7.1025 7.31592C7.32225 7.09842 7.67775 7.09842 7.8975 7.31592L7.90276 7.32339C7.96426 7.38339 8.12926 7.56344 8.22001 7.66844C8.40676 7.88594 8.65575 8.20091 8.9055 8.57591C9.393 9.30341 9.9375 10.3534 9.9375 11.4634C9.9375 11.7184 9.90675 11.9734 9.84826 12.2134H11.88C12.7815 11.1559 13.3125 9.81341 13.3125 8.46341C13.3125 6.89591 13.0177 5.86838 12.6907 5.20838C12.5272 4.88588 12.3577 4.65342 12.219 4.50342C12.1395 4.40592 11.9977 4.29339 11.937 4.24839C11.793 4.15089 11.613 4.12844 11.4487 4.18094C11.2845 4.23344 11.154 4.36091 11.0955 4.52591C10.9897 4.81841 10.8195 5.05089 10.6373 5.22339C10.464 3.58089 9.8685 2.44088 9.24675 1.68338C8.88075 1.24088 8.51175 0.933408 8.22975 0.738408C8.1045 0.648408 7.839 0.505879 7.72125 0.445879Z" fill="#161616" style="fill:#161616;fill:color(display-p3 0.0863 0.0863 0.0863);fill-opacity:1;"/>
<path d="M2.25 13.1509C1.5255 13.1509 0.9375 13.7359 0.9375 14.4634V15.2134C0.9375 15.9409 1.5255 16.5259 2.25 16.5259H12.75C13.4745 16.5259 14.0625 15.9409 14.0625 15.2134V14.4634C14.0625 13.7359 13.4745 13.1509 12.75 13.1509H2.25Z" fill="#161616" style="fill:#161616;fill:color(display-p3 0.0863 0.0863 0.0863);fill-opacity:1;"/>
</svg>
