<svg width="46" height="31" viewBox="0 0 46 31" fill="none" xmlns="http://www.w3.org/2000/svg">
<path d="M0.764648 8.27551C0.764648 4.22109 4.05141 0.934326 8.10582 0.934326H38.0568C42.1112 0.934326 45.398 4.22108 45.398 8.2755V23.3482C45.398 27.4026 42.1112 30.6893 38.0568 30.6893H8.10583C4.05141 30.6893 0.764648 27.4026 0.764648 23.3482V8.27551Z" fill="#026C34" style="fill:#026C34;fill:color(display-p3 0.0078 0.4235 0.2039);fill-opacity:1;"/>
<path d="M11.449 8.54133C11.449 8.54133 11.7193 8.15957 11.7193 7.79823C11.7193 7.43542 11.4977 7.49569 11.4157 7.55711C11.3323 7.62001 11.1696 7.7814 11.2541 7.88023C11.3361 7.9789 11.4284 7.8059 11.4848 7.8059C11.5424 7.8059 11.5578 7.83661 11.5578 7.98772C11.5578 8.13898 11.449 8.54133 11.449 8.54133Z" fill="white" style="fill:white;fill-opacity:1;"/>
<path d="M10.799 8.61482C10.799 8.61482 10.8157 10.4857 11.2257 10.4857C11.2257 10.4857 11.4077 10.4857 11.4577 9.99991C11.5103 9.51425 11.7217 8.29955 12.233 8.29955C12.743 8.29955 11.9767 9.28245 12.3816 10.1435C12.3816 10.1435 12.5277 10.4625 12.8057 10.4625C12.8057 10.4625 12.7377 9.16321 12.6494 8.73015C12.5623 8.29449 12.611 8.29449 12.611 8.29449C12.611 8.29449 12.4136 8.05615 12.5404 7.84101C12.6698 7.62571 12.7327 7.5424 12.8518 7.72944C12.9684 7.91763 13.3887 8.51371 13.0042 8.71872L13.1631 10.4037C13.1631 10.4037 13.5655 10.1486 13.4681 9.68218C13.3706 9.21188 13.1656 8.51877 13.4142 8.1522C13.4142 8.1522 13.7473 8.36881 13.7473 8.70189C13.7473 9.03644 13.7218 10.3653 14.3932 10.3653C15.0621 10.3653 14.2292 8.87505 14.2292 8.60715C14.2292 8.60715 14.1985 8.53413 14.3585 8.36506C14.5186 8.19598 14.5381 8.13179 14.6611 8.25986C14.7828 8.38793 15.0044 8.6109 15.0044 8.83013C15.0044 9.04918 14.8163 8.95574 14.8163 8.95574C14.8163 8.95574 15.043 9.67336 15.043 10.1525C15.043 10.6329 14.765 11.0212 14.2499 11.0212C13.7373 11.0212 13.6388 10.392 13.6388 10.392C13.6388 10.392 13.3542 10.8508 13.2095 10.948L13.3196 13.0559C13.3196 13.0559 13.3069 13.3725 13.1326 13.5364C13.1326 13.5364 13.0942 13.553 13.0787 13.3353C13.0633 13.1211 12.8634 11.1837 12.8634 11.1837C12.8634 11.1837 11.9587 11.3401 11.9587 9.99974C11.9587 9.99974 11.969 9.77823 11.992 9.5167C12.0177 9.25648 11.9894 8.97584 11.9063 9.18363C11.823 9.39125 11.7947 9.57551 11.6642 10.2368C11.5309 10.8954 11.3643 11.08 11.1669 11.08C10.9696 11.08 10.6045 10.4751 10.6045 9.48975C10.6043 8.50325 10.799 8.61482 10.799 8.61482Z" fill="white" style="fill:white;fill-opacity:1;"/>
<path d="M14.0858 7.63088C14.0858 7.63088 14.1165 8.00006 14.2498 8.00006C14.3857 8.00006 14.4035 7.73984 14.4035 7.73984C14.4035 7.73984 14.4546 7.78851 14.4546 7.95775C14.4546 8.12552 14.329 8.19216 14.2612 8.19216C14.1906 8.19216 14.0624 8.11669 14.0624 8.03453C14.0624 8.03453 14.0023 8.17812 13.8177 8.17812C13.6346 8.17812 13.5552 7.95775 13.5552 7.82576C13.5552 7.69377 13.6076 7.58105 13.6499 7.58105C13.6922 7.58105 13.7115 7.77332 13.7115 7.81171C13.7115 7.85271 13.7447 7.98209 13.8241 7.98209C13.9034 7.98209 13.9794 7.91152 14.0858 7.63088Z" fill="white" style="fill:white;fill-opacity:1;"/>
<path d="M10.7773 12.8267C10.7773 12.8267 11.4156 11.931 12.4124 11.6684C12.4124 11.6684 12.584 11.5978 12.584 11.7785C12.584 11.9617 12.6071 11.9554 12.374 12.0246C12.1396 12.0949 11.5232 12.3577 10.7773 12.8267Z" fill="white" style="fill:white;fill-opacity:1;"/>
<path d="M18.1681 11.8528C18.1681 11.7708 18.1602 11.2992 18.0808 11.2941C18.0014 11.2915 17.7951 11.4542 17.8335 11.4952C17.8719 11.5388 18.0065 12.1411 17.6912 12.1411C17.3746 12.1411 17.2863 11.3709 17.2863 11.3709C17.1121 11.8616 16.8865 12.2012 16.6482 12.2012C16.4136 12.2012 16.3509 11.8962 16.3509 11.8234C16.3509 11.749 16.4061 11.4196 16.2794 11.4196C16.1498 11.4196 15.8898 11.7067 15.8898 11.7067L15.7128 9.15922C15.8898 9.35019 15.9974 9.20529 15.9974 9.02478C15.9974 8.84411 15.6424 7.89584 15.559 7.75225C15.477 7.61144 15.3129 7.79587 15.1746 8.00349C15.0336 8.21111 15.1924 8.40453 15.1924 8.40453C15.1924 8.6953 15.2283 9.1491 15.3309 10.0446C15.436 10.9416 15.5245 11.9451 15.5245 11.9451L15.1849 12.1462C15.1849 12.1462 14.9671 11.4055 14.3828 11.4055C13.7985 11.4055 13.8036 11.8988 13.8036 12.6279C13.8036 13.3569 14.931 12.7957 14.931 12.7957C14.931 13.2736 14.2366 14.2423 13.3089 14.2423C12.3812 14.2423 12.6107 12.6179 12.6107 12.6179C12.0738 13.7263 12.4044 14.8526 13.2911 14.8526C14.1765 14.8526 14.9838 14.03 15.1761 13.6444C15.3683 13.2599 15.2901 12.6655 15.2901 12.6655L15.5514 12.5142C15.5514 12.5142 15.6181 13.3983 15.4926 13.9749C15.3683 14.5529 14.1856 15.3575 13.2014 15.3575C12.2174 15.3575 12.1034 14.4375 12.1034 14.1595C12.1034 13.8815 12.1687 13.5598 12.1687 13.3522C12.1687 13.1446 12.1174 13.0511 12.1174 13.0511C11.8355 13.4215 11.8458 14.3016 11.8458 14.3016C11.8458 15.9327 12.6377 15.9905 13.1247 15.9905C13.6114 15.9905 14.388 15.893 15.3477 15.2256C16.3061 14.5605 15.936 12.3577 15.936 12.3577L16.0077 12.2795C16.0077 12.2795 15.9974 12.6011 16.4767 12.6011C16.9547 12.6011 17.1917 12.2398 17.1917 12.2398C17.384 12.5333 17.6452 12.5333 17.6452 12.5333C18.2053 12.5333 18.1681 11.9374 18.1681 11.8528ZM14.388 12.3948C14.1574 12.3948 14.119 11.9681 14.3023 11.9681C14.4867 11.9681 14.7224 12.3027 14.7224 12.3027C14.7224 12.3027 14.6224 12.3948 14.388 12.3948Z" fill="white" style="fill:white;fill-opacity:1;"/>
<path d="M11.2179 13.7122C11.2179 13.7122 11.2896 14.0248 11.1692 14.353C11.0501 14.681 10.9769 15.8405 11.5715 15.0807C11.5715 15.0807 11.7945 15.8405 11.2179 15.8405C10.6388 15.8405 10.8668 14.5822 11.0243 14.1544C11.1795 13.7265 11.2179 13.7122 11.2179 13.7122Z" fill="white" style="fill:white;fill-opacity:1;"/>
<path d="M17.0867 13.4676C17.0867 13.4676 16.8267 13.615 16.8267 13.3164C16.8267 13.0166 17.0841 13.0499 17.0841 13.0499C17.0841 13.0499 17.3071 13.0666 17.3071 13.497C17.3071 13.9275 17.0431 14.1351 17.0431 14.1351C17.0431 14.1351 17.1738 13.7187 17.0867 13.4676Z" fill="white" style="fill:white;fill-opacity:1;"/>
<path d="M18.3825 8.03567C18.3825 7.93701 18.3479 7.62549 18.1058 7.62549C17.8624 7.62549 17.6202 7.85745 17.6202 8.2085C17.6202 8.55955 17.7918 8.6391 17.7918 8.6391C17.3202 9.39119 15.6749 10.3228 16.741 9.86148C17.807 9.39886 18.0571 8.81961 18.0571 8.81961C18.4222 8.83643 18.2122 8.54534 18.2122 8.54534C18.2122 8.54534 18.3825 8.13172 18.3825 8.03567ZM17.9839 8.3302C17.8827 8.24558 17.9096 8.15198 17.9379 8.08419C17.9661 8.01362 18.098 7.94191 18.098 8.07504C18.0981 8.21095 17.9839 8.3302 17.9839 8.3302Z" fill="white" style="fill:white;fill-opacity:1;"/>
<path d="M18.112 10.1575C18.112 10.1575 18.0837 10.7047 17.6302 10.7047C17.174 10.7047 17.2612 9.97826 17.7341 9.63603C17.7341 9.63603 17.8212 9.62835 17.7199 9.81294C17.6201 9.99606 17.4175 10.4317 17.6982 10.4317C17.98 10.4317 18.112 10.1575 18.112 10.1575Z" fill="white" style="fill:white;fill-opacity:1;"/>
<path d="M20.9694 7.99337C20.9694 7.99337 20.8719 7.91773 20.9668 7.79881C21.0589 7.68071 21.1462 7.69361 21.2357 7.91022C21.3268 8.12552 21.4036 8.59451 21.1984 9.10336C21.1986 9.10303 21.2716 8.33037 20.9694 7.99337Z" fill="white" style="fill:white;fill-opacity:1;"/>
<path d="M21.5182 11.2353C21.5182 11.2353 21.6333 11.6887 21.7591 11.6887C21.8834 11.6887 21.9038 11.2184 21.9038 11.2184C21.9038 11.2184 22.0922 11.6144 22.1923 11.6144C22.2921 11.6144 22.2947 11.0801 22.2947 11.0801C22.2947 11.0801 22.4357 11.2184 22.4357 11.5068C22.4357 11.7951 22.2474 11.8411 22.1858 11.8411C22.1231 11.8411 21.959 11.708 21.959 11.708C21.959 11.708 21.9038 11.9553 21.7233 11.9553C21.5425 11.9552 21.4131 11.5976 21.5182 11.2353Z" fill="white" style="fill:white;fill-opacity:1;"/>
<path d="M26.3999 7.77181C26.3999 7.77181 26.5061 7.54246 26.6306 7.7001C26.7564 7.85512 26.8947 8.17546 26.8947 8.52406C26.8947 8.87511 26.6739 9.03797 26.6739 9.03797C26.6739 9.03797 26.7714 8.43454 26.543 8.20764C26.3155 7.97927 26.3078 7.95754 26.3999 7.77181Z" fill="white" style="fill:white;fill-opacity:1;"/>
<path d="M26.5076 9.55648C26.5076 9.55648 26.5845 9.82176 26.6652 9.82176C26.7459 9.82176 26.8139 9.47708 26.8139 9.47708C26.8139 9.47708 26.8921 9.78207 26.9879 9.78207C27.0841 9.78207 27.1814 9.37842 27.1814 9.37842C27.1814 9.37842 27.2507 9.49228 27.2507 9.75119C27.2507 10.0088 27.1071 10.0343 27.069 10.0343C27.0294 10.0343 26.9204 10.0317 26.8484 9.88563C26.8484 9.88563 26.7768 10.0369 26.613 10.0369C26.4498 10.0372 26.4357 9.73208 26.5076 9.55648Z" fill="white" style="fill:white;fill-opacity:1;"/>
<path d="M33.8283 8.34558C33.8283 8.34558 33.9345 8.11639 34.0603 8.27125C34.1833 8.42758 34.3216 8.74939 34.3216 9.09783C34.3216 9.44642 34.1011 9.61043 34.1011 9.61043C34.1011 9.61043 34.1988 9.007 33.9717 8.77879C33.7422 8.55189 33.7346 8.53017 33.8283 8.34558Z" fill="white" style="fill:white;fill-opacity:1;"/>
<path d="M23.8064 15.346C23.8064 15.346 24.1663 15.0283 24.3543 15.0283C24.5415 15.0283 24.3339 15.3614 24.3339 15.4589C24.3339 15.5563 24.2895 15.7637 24.5899 15.6179C24.8926 15.473 25.1664 15.3616 25.218 15.3808C25.2691 15.4039 24.7853 15.9485 24.3439 15.9485C23.903 15.9485 24.1183 15.4769 24.131 15.4142C24.1464 15.3514 24.1617 15.258 23.9169 15.3694C23.6705 15.4792 23.8064 15.346 23.8064 15.346Z" fill="white" style="fill:white;fill-opacity:1;"/>
<path d="M32.1636 15.0909C32.1636 15.0909 32.4459 15.0667 32.4459 15.2255C32.4459 15.3856 32.1744 15.5766 32.4078 15.5766C32.6411 15.5766 32.6334 15.7559 32.4395 15.8469C32.2435 15.9379 31.8335 16.1403 31.8335 15.8969C31.8335 15.6522 32.1256 15.7368 32.1256 15.524C32.1256 15.3113 31.9104 15.4266 31.9104 15.2703C31.9099 15.1154 32.1636 15.0909 32.1636 15.0909Z" fill="white" style="fill:white;fill-opacity:1;"/>
<path d="M31.1615 12.2795C31.1615 12.2795 31.2718 12.1014 31.4281 12.2782C31.5845 12.4512 31.6488 12.6537 31.6488 12.8664C31.6488 13.0752 31.4847 13.2238 31.4412 13.2175C31.3966 13.2085 31.4461 13.0316 31.4461 12.8893C31.4461 12.7459 31.2284 12.5663 31.1527 12.5088C31.0771 12.4512 31.1155 12.3205 31.1615 12.2795Z" fill="white" style="fill:white;fill-opacity:1;"/>
<path d="M31.4618 11.3339C31.4618 11.3339 31.6207 11.2122 31.6207 11.5185C31.6207 11.8274 31.3108 11.7426 30.7033 12.2015C30.0935 12.6604 30.2647 12.3655 30.2931 12.3206C30.3225 12.2781 31.4618 11.3339 31.4618 11.3339Z" fill="white" style="fill:white;fill-opacity:1;"/>
<path d="M30.3298 10.3705C30.3298 10.3705 30.5208 10.6395 30.6361 10.8831C30.7542 11.124 30.8771 11.2008 30.8821 10.8997C30.8859 10.5972 30.8821 10.1628 30.8821 10.1628C30.8821 10.1628 30.8732 9.97841 30.9862 9.97841C31.0978 9.97841 31.1027 10.1256 31.177 10.0449C31.2485 9.9642 31.1783 9.85034 31.1594 9.77977C31.1358 9.70921 31.0594 9.52854 30.88 9.69401C30.7003 9.85802 30.7157 10.0475 30.739 10.2731C30.7624 10.4961 30.7902 10.8767 30.6459 10.5562C30.4986 10.2359 30.4166 9.92826 30.2206 9.92826C30.0258 9.92826 30.0732 10.4678 30.1987 10.4678C30.3223 10.4675 30.3298 10.3705 30.3298 10.3705Z" fill="white" style="fill:white;fill-opacity:1;"/>
<path d="M24.9419 13.2126C24.4512 13.2997 22.119 13.2536 22.119 13.2536C22.962 12.8563 23.4939 12.6706 23.4939 12.6706L23.6656 12.759L23.6707 12.6182C23.6707 12.6182 24.5879 12.2632 24.5879 11.7905C24.5879 11.3164 23.9422 10.9306 23.5241 10.9306C23.1078 10.9306 22.8425 11.461 22.8425 11.7532C22.8425 12.0466 22.9782 12.1863 22.9782 12.1863C22.9782 12.1863 21.5201 12.686 21.3318 12.8269C21.1434 12.9664 21.0292 13.3163 21.0292 13.5187C21.0292 13.7213 21.5456 13.6803 21.5456 13.6803C22.5862 13.6803 22.7848 13.9737 22.7848 13.9737C21.7534 14.367 22.0146 15.1603 22.0146 15.1603C21.2329 14.9105 21.0817 14.5145 20.9665 14.0815C20.8538 13.6509 20.7486 12.8103 20.623 12.3529C20.4987 11.894 20.0656 10.8049 19.9771 10.8049C19.8887 10.8049 19.6337 11.2906 19.7387 11.5916C19.8413 11.894 20.4206 13.7891 20.4206 13.7891C19.8387 14.9053 19.0033 15.519 18.4626 15.519C17.9206 15.519 18.0037 15.0206 18.0037 15.0206C19.0816 14.458 19.562 13.6174 19.562 13.0984C19.562 12.577 19.316 12.0142 19.316 12.0142C19.316 12.0142 19.4877 12.1129 19.4877 11.9309C19.4877 11.7478 18.9777 11.1813 18.8957 11.1813C18.811 11.1813 18.5766 11.581 18.5766 11.7592C18.5766 11.936 18.7753 11.9886 18.7753 11.9886C18.7753 11.9886 19.2072 12.5714 19.2072 13.056C19.2072 13.5403 18.1039 14.2733 18.1039 14.2733C18.1039 14.2733 18.2179 13.4671 18.0706 13.4929C17.9244 13.5184 17.6195 14.623 17.6195 14.623C17.6195 14.623 16.3689 15.4034 16.2996 15.4367C16.2331 15.4663 15.0426 15.9826 15.5206 15.9826C15.9999 15.9826 17.5976 15.2599 17.5976 15.2599C17.6117 16.1403 18.4383 16.1633 18.4383 16.1633C19.5569 16.1633 20.5973 14.5103 20.5973 14.5103C21.2713 16.0313 22.6386 16.071 22.9576 16.071C23.2752 16.071 23.3217 15.789 23.3217 15.5917C23.3217 15.3944 22.3993 15.2854 22.3993 14.8484C22.3993 14.4102 24.2267 14.0194 24.6802 13.9348C25.1337 13.8515 25.1492 13.7157 25.2016 13.5697C25.2546 13.4251 25.4313 13.1241 24.9419 13.2126ZM23.4312 11.5979C23.4915 11.5979 23.973 11.8413 23.973 11.8963C23.973 11.9515 23.4235 12.0592 23.4235 12.0592C23.3337 11.8092 23.3734 11.5979 23.4312 11.5979Z" fill="white" style="fill:white;fill-opacity:1;"/>
<path d="M18.8552 8.20844C18.8552 8.20844 18.7885 8.86839 18.7885 9.23871C18.7885 9.61018 19.0424 10.1138 19.2511 10.1138C19.4588 10.1138 20.0187 8.05586 20.4595 8.05586C20.9002 8.05586 20.5491 8.58252 20.5491 9.62554C20.5491 10.6659 21.2027 10.3008 21.2743 10.2713C21.3486 10.238 21.8344 9.96123 21.8344 9.31288C21.8344 8.66305 21.6075 8.0276 21.6075 7.92012C21.6075 7.81116 21.8048 7.35621 21.9073 7.4588C22.0099 7.56122 22.1918 8.18785 22.1918 8.62483C22.1918 9.06327 22.3585 10.1805 22.876 10.1805C23.3935 10.1805 23.0323 8.99907 22.9733 8.8068C22.9145 8.61078 22.6607 8.12137 22.7556 7.99967C22.8542 7.87797 22.9759 7.69338 23.0171 7.61399C23.0607 7.5346 23.2014 7.63571 23.3195 7.76395C23.4376 7.89202 23.6731 8.19831 23.6731 8.47895C23.6731 8.7609 23.3232 8.40724 23.3232 8.40724C23.3232 8.40724 23.5526 9.07993 23.5526 9.67062C23.5526 10.2613 23.2399 10.6829 22.8655 10.6829C22.4913 10.6829 22.0479 10.1357 22.0479 10.1357C22.0479 10.1357 21.6776 10.92 20.9126 10.92C20.1502 10.92 20.2117 9.74609 20.2117 9.74609C20.2117 9.74609 20.2745 9.11048 20.1912 9.14005C20.1079 9.16684 19.8619 9.92415 19.7747 10.169C19.6876 10.4163 19.6005 10.6738 19.3545 10.6738C19.1084 10.6738 18.583 10.069 18.583 9.30536C18.5835 8.54151 18.8552 8.20844 18.8552 8.20844Z" fill="white" style="fill:white;fill-opacity:1;"/>
<path d="M24.7226 8.64556L25.3056 9.49909L25.2107 8.49821C25.2107 8.49821 25.0981 8.40477 25.0981 8.24844C25.0981 8.09342 25.2133 7.73339 25.3722 7.73339C25.5315 7.73339 25.9878 8.8571 25.9878 9.10834C25.9878 9.35942 25.7571 9.17483 25.7571 9.17483L25.8032 10.3165C25.8032 10.3165 27.0424 12.1284 27.4794 13.2471C27.9178 14.3644 27.6497 14.3425 27.5331 14.0696C27.414 13.794 26.5311 11.9208 25.8752 11.1238C25.8752 11.1238 26.0775 13.2228 26.0775 13.7314C26.0775 14.2427 25.9211 15.2653 25.6879 15.2653C25.4525 15.2653 25.7855 14.5657 25.7699 14.1454C25.7545 13.7213 25.4729 11.0521 25.3471 10.3167L24.0773 8.54967C24.0773 8.54967 23.8276 8.58169 23.8276 8.22672C23.8276 7.87436 23.7483 7.53491 23.9096 7.53491C24.071 7.53491 25.0349 8.43058 25.0349 8.58822C25.0341 8.74275 24.7226 8.64556 24.7226 8.64556Z" fill="white" style="fill:white;fill-opacity:1;"/>
<path d="M28.0401 8.94657C28.0401 8.94657 28.021 9.61551 28.1607 10.8237C28.2989 12.0309 28.3196 12.906 28.3196 13.3852C28.3196 13.8645 28.4658 16.1762 26.0632 16.1762C26.0632 16.1762 25.916 16.1825 25.916 16.1222C25.916 16.0634 26.0611 16.0121 26.2725 15.9404C26.4838 15.87 28.0844 15.3791 27.9509 13.4764C27.8199 11.5736 27.5984 8.56612 27.4947 8.46876C27.4947 8.46876 27.397 8.41763 27.397 8.23042C27.397 8.04224 27.7636 7.68335 27.8609 7.68335C27.9573 7.68335 28.2659 8.72768 28.2659 8.93007C28.2657 9.13345 28.0401 8.94657 28.0401 8.94657Z" fill="white" style="fill:white;fill-opacity:1;"/>
<path d="M29.2007 9.10014C29.2007 9.10014 29.6083 12.7111 29.7427 13.6082C29.8785 14.5037 29.384 14.9422 29.2956 14.9422C29.2071 14.9422 29.316 14.6333 29.316 14.145C29.316 13.6543 28.8368 10.4624 28.7317 9.61797C28.6293 8.77474 28.519 8.7785 28.519 8.2685C28.519 7.75851 28.842 7.56641 28.9251 7.56641C29.0083 7.56641 29.1187 7.91353 29.1187 7.91353C29.1187 7.91353 29.3481 8.59783 29.4724 8.78879C29.5982 8.98236 29.5982 9.06551 29.5982 9.12955C29.598 9.19129 29.3482 9.22478 29.2007 9.10014Z" fill="white" style="fill:white;fill-opacity:1;"/>
<path d="M28.9414 13.6698C28.9414 13.6698 28.9208 15.3831 29.4358 15.3831C29.4358 15.3831 29.5781 15.4727 29.9728 14.5758C30.3701 13.6803 30.5569 13.5135 30.7441 13.5135C30.9313 13.5135 31.3017 14.258 31.6707 14.258C32.041 14.258 32.151 13.6853 32.151 13.2701C32.151 12.8512 31.9508 10.1448 31.9508 10.1448L30.7544 8.60712C30.7544 8.60712 30.7031 8.55599 30.7031 8.22013C30.7031 7.88444 30.6543 7.66783 30.7801 7.66783C30.9059 7.66783 31.0901 7.94848 31.3273 8.15218C31.5643 8.35605 31.662 8.42776 31.662 8.54554C31.662 8.66217 31.485 8.58932 31.485 8.58932L31.877 9.16841L31.8171 8.47529C31.8171 8.47529 31.7079 8.32272 31.7079 8.16263C31.7079 8.00369 31.8978 7.61033 32.0172 7.61033C32.1374 7.61033 32.5107 8.64567 32.5107 8.84676C32.5107 9.05046 32.348 8.83647 32.348 8.83647L32.4058 9.94744L33.1412 10.9519C33.1412 10.9519 32.8362 9.04393 32.8362 8.21883C32.8362 8.21883 32.7952 8.18044 32.7952 8.06119C32.7952 7.94194 33.035 7.54858 33.1539 7.54858C33.2745 7.54858 33.5975 8.65319 33.5975 8.90034C33.5975 9.1439 33.4014 8.97467 33.4014 8.97467L33.6001 11.5978C33.6001 11.5978 34.5431 12.9202 34.7047 13.2892C34.8661 13.6582 34.851 14.1965 34.7917 14.1695C34.7352 14.1452 34.2819 13.2417 33.668 12.519C33.668 12.519 33.8435 14.0079 33.5155 14.2425C33.5155 14.2425 33.4847 13.6286 33.4847 13.316C33.4847 13.0033 33.3331 12.0756 33.3331 12.0756L32.4839 10.884C32.4839 10.884 32.616 13.1443 32.616 13.7582C32.616 14.3719 32.3174 14.9356 31.7651 14.9356C31.2128 14.9356 30.7285 14.254 30.7285 14.254C30.7285 14.254 30.5401 14.3833 30.1517 15.1714C29.7607 15.9556 29.6405 16.0249 29.4741 16.0249C29.3076 16.0249 28.6411 15.6276 28.6411 14.9525C28.6401 14.2732 28.9414 13.6698 28.9414 13.6698Z" fill="white" style="fill:white;fill-opacity:1;"/>
<path d="M34.5652 8.18787C34.5652 8.18787 34.5191 8.15977 34.5191 8.03023C34.5191 7.90216 34.7472 7.5498 34.8525 7.5498C34.9563 7.5498 35.4416 8.60066 35.4416 8.80175C35.4416 9.00415 35.2175 8.77104 35.2175 8.77104C35.2175 8.77104 35.2124 8.962 35.3392 10.5356C35.4635 12.1066 36.1823 14.9525 34.1091 15.7943C32.036 16.6375 34.5268 15.242 34.8779 14.372C35.2265 13.5006 35.0215 12.3653 34.9035 11.1902C34.7857 10.0179 34.5652 8.18787 34.5652 8.18787Z" fill="white" style="fill:white;fill-opacity:1;"/>
<path d="M31.7384 22.6729H29.5011L29.4934 22.4676C29.4934 22.4676 29.646 22.3214 29.646 22.2216C29.646 22.1205 29.5011 21.8477 29.3964 21.8477C29.2925 21.8477 29.1361 22.0757 29.1361 22.2075C29.1361 22.3397 29.2961 22.4712 29.2961 22.4712V22.6765L13.7656 22.6275C14.514 23.3775 14.5845 23.3915 17.9455 23.4748C21.3053 23.5596 29.3346 23.3185 29.3346 23.3185V23.5696C29.3346 23.5696 29.1732 23.6941 29.1732 23.8257C29.1732 23.9574 29.309 24.1808 29.4307 24.1808C29.5524 24.1808 29.6267 23.917 29.6267 23.917H30.4186C30.4186 23.917 30.4033 24.077 30.5983 24.077C30.793 24.077 30.7992 23.8955 30.7992 23.8955H31.6464C31.6464 23.8955 31.7692 24.0846 31.964 24.0846C32.1575 24.0846 32.4049 23.9915 32.4049 23.3046C32.4047 22.6202 31.7384 22.6729 31.7384 22.6729ZM31.5767 23.6941L30.7965 23.7032C30.7965 23.7032 30.7442 23.5609 30.598 23.5609C30.4516 23.5609 30.4286 23.7264 30.4286 23.7264L29.6628 23.7378C29.6628 23.7378 29.6265 23.6199 29.5192 23.5547L29.5065 23.3072L31.6057 23.2561C31.6049 23.2556 31.4935 23.5184 31.5767 23.6941Z" fill="white" style="fill:white;fill-opacity:1;"/>
</svg>
