<svg width="19" height="19" viewBox="0 0 19 19" fill="none" xmlns="http://www.w3.org/2000/svg">
<path fill-rule="evenodd" clip-rule="evenodd" d="M5.75 9.65723C5.43934 9.65723 5.1875 9.90908 5.1875 10.2197V17.5322H2.1875V6.46973C2.1875 6.28166 2.28149 6.10602 2.43798 6.0017L9.18798 1.5017C9.37693 1.37574 9.62308 1.37574 9.812 1.5017L16.562 6.0017C16.7185 6.10602 16.8125 6.28166 16.8125 6.46973V17.5322H13.8125V10.2197C13.8125 9.90908 13.5606 9.65723 13.25 9.65723H5.75ZM10.2558 6.46973H8.74912V4.96973H10.2558V6.46973Z" fill="#161616" style="fill:#161616;fill:color(display-p3 0.0863 0.0863 0.0863);fill-opacity:1;"/>
<path d="M12.6875 17.5322H6.3125V15.2822H12.6875V17.5322Z" fill="#161616" style="fill:#161616;fill:color(display-p3 0.0863 0.0863 0.0863);fill-opacity:1;"/>
<path d="M6.3125 13.0322V14.1572H12.6875V13.0322H6.3125Z" fill="#161616" style="fill:#161616;fill:color(display-p3 0.0863 0.0863 0.0863);fill-opacity:1;"/>
<path d="M6.3125 11.9072H12.6875V10.7822H6.3125V11.9072Z" fill="#161616" style="fill:#161616;fill:color(display-p3 0.0863 0.0863 0.0863);fill-opacity:1;"/>
</svg>
