<svg width="19" height="19" viewBox="0 0 19 19" fill="none" xmlns="http://www.w3.org/2000/svg">
<path fill-rule="evenodd" clip-rule="evenodd" d="M9.5 1.40723C5.87032 1.40723 2.9375 4.37777 2.9375 8.03022C2.9375 10.1263 3.77332 11.7614 5.37694 13.1825C6.42025 14.107 8.29441 16.0727 9.01971 17.2624C9.12019 17.4272 9.29817 17.529 9.49118 17.5321C9.68419 17.5351 9.86528 17.4389 9.97087 17.2773C10.7431 16.0957 12.5898 14.0981 13.6231 13.1825C15.2267 11.7614 16.0625 10.1263 16.0625 8.03022C16.0625 4.37777 13.1297 1.40723 9.5 1.40723ZM8.75 5.71973H7.25V10.2197H8.75V8.71973H10.25V10.2197H11.75V5.71973H10.25V7.21973H8.75V5.71973Z" fill="#161616" style="fill:#161616;fill:color(display-p3 0.0863 0.0863 0.0863);fill-opacity:1;"/>
</svg>
