<svg width="15" height="15" viewBox="0 0 15 15" fill="none" xmlns="http://www.w3.org/2000/svg">
<g clip-path="url(#clip0_297_15927)">
<path d="M7.50629 11.5594C5.86245 11.5594 4.21904 11.5594 2.5752 11.5594C2.409 11.5594 2.33216 11.6355 2.33216 11.7996C2.33216 11.8421 2.33432 11.8846 2.33173 11.9266C2.32828 11.9776 2.3231 12.0286 2.3136 12.0784C2.2782 12.2599 2.10424 12.4052 1.89617 12.4031C1.68723 12.401 1.51413 12.2458 1.48262 12.0465C1.47528 11.9997 1.47139 11.9517 1.47139 11.9045C1.47096 10.9389 1.46449 9.97283 1.47355 9.00719C1.47873 8.44447 1.6868 7.95484 2.08567 7.54725C2.32785 7.29989 2.61578 7.12393 2.94515 7.01173C3.20416 6.92375 3.4718 6.89697 3.74462 6.89697C6.27298 6.89782 8.80133 6.8957 11.3297 6.89867C12.0705 6.89952 12.6705 7.19364 13.1151 7.77846C13.3336 8.0662 13.4639 8.39304 13.5084 8.75005C13.5235 8.87033 13.53 8.99274 13.5304 9.11429C13.5321 10.0519 13.5317 10.9895 13.5313 11.9271C13.5313 12.0737 13.4946 12.2072 13.372 12.3041C13.2425 12.4065 13.0979 12.4333 12.9437 12.3708C12.7961 12.3104 12.7029 12.1995 12.6817 12.041C12.6709 11.9611 12.6722 11.879 12.6701 11.7983C12.6666 11.6678 12.6118 11.5892 12.5021 11.565C12.478 11.5594 12.4525 11.5599 12.4275 11.5599C10.7875 11.5599 9.14754 11.5599 7.50715 11.5599L7.50629 11.5594Z" fill="#1A1A1A" style="fill:#1A1A1A;fill:color(display-p3 0.1020 0.1020 0.1020);fill-opacity:1;"/>
<path d="M7.44613 3.0835C8.51238 3.0835 9.5782 3.0835 10.644 3.0835C11.001 3.0835 11.3347 3.16212 11.6226 3.37931C11.993 3.65855 12.2093 4.02619 12.2274 4.48776C12.243 4.8792 12.2361 5.27149 12.2378 5.66336C12.2391 5.91582 12.2378 6.16828 12.2378 6.42074C12.2378 6.44327 12.2365 6.46707 12.2304 6.48874C12.2119 6.55717 12.1743 6.58437 12.1035 6.5712C12.0263 6.55675 11.9516 6.52572 11.8743 6.51722C11.6926 6.49767 11.5104 6.48407 11.3278 6.47472C11.2061 6.46834 11.1685 6.44667 11.1512 6.32894C11.096 5.95577 10.745 5.62001 10.2961 5.62511C9.79533 5.63063 9.29458 5.62638 8.79427 5.62638C8.42173 5.62638 8.10358 5.84484 7.9771 6.18911C7.95896 6.23841 7.95206 6.29196 7.94256 6.34381C7.92486 6.43689 7.8899 6.47174 7.79579 6.47302C7.59851 6.47514 7.4008 6.47514 7.20352 6.47302C7.11287 6.47217 7.07704 6.43689 7.06064 6.33361C7.03776 6.18868 6.98078 6.05948 6.88753 5.946C6.71875 5.74029 6.50031 5.62851 6.23095 5.62723C5.71422 5.62468 5.1975 5.62596 4.68035 5.62681C4.24608 5.62723 3.90634 5.9613 3.85109 6.32809C3.83339 6.44667 3.79756 6.46749 3.67583 6.47514C3.47423 6.48832 3.27264 6.50702 3.07147 6.52827C3.00974 6.53465 2.9506 6.561 2.8893 6.5712C2.82326 6.58182 2.79261 6.55972 2.77405 6.49597C2.76671 6.47089 2.76325 6.44412 2.76325 6.41777C2.76282 5.81212 2.75462 5.20646 2.76498 4.60081C2.77577 3.96711 3.0732 3.50129 3.65511 3.2195C3.88562 3.10857 4.13557 3.0835 4.38853 3.0835C5.40773 3.0835 6.42693 3.0835 7.44613 3.0835Z" fill="#1A1A1A" style="fill:#1A1A1A;fill:color(display-p3 0.1020 0.1020 0.1020);fill-opacity:1;"/>
</g>
<defs>
<clipPath id="clip0_297_15927">
<rect width="12.062" height="9.32066" fill="white" style="fill:white;fill-opacity:1;" transform="translate(1.46875 3.0835)"/>
</clipPath>
</defs>
</svg>
