<svg width="14" height="14" viewBox="0 0 14 14" fill="none" xmlns="http://www.w3.org/2000/svg">
<path d="M6.56236 4.67676H7.43709V3.80176H6.56236V4.67676Z" fill="#2D3F85" style="fill:#2D3F85;fill:color(display-p3 0.1765 0.2471 0.5216);fill-opacity:1;"/>
<path d="M5.84635 6.27694H6.56437V9.91165H7.43937V5.40194H5.84635V6.27694Z" fill="#2D3F85" style="fill:#2D3F85;fill:color(display-p3 0.1765 0.2471 0.5216);fill-opacity:1;"/>
<path fill-rule="evenodd" clip-rule="evenodd" d="M6.99935 0.729004C3.53606 0.729004 0.728516 3.53655 0.728516 6.99984C0.728516 10.4631 3.53606 13.2707 6.99935 13.2707C10.4626 13.2707 13.2702 10.4631 13.2702 6.99984C13.2702 3.53655 10.4626 0.729004 6.99935 0.729004ZM1.60352 6.99984C1.60352 4.0198 4.01931 1.604 6.99935 1.604C9.97936 1.604 12.3952 4.0198 12.3952 6.99984C12.3952 9.97985 9.97936 12.3957 6.99935 12.3957C4.01931 12.3957 1.60352 9.97985 1.60352 6.99984Z" fill="#2D3F85" style="fill:#2D3F85;fill:color(display-p3 0.1765 0.2471 0.5216);fill-opacity:1;"/>
</svg>
