<svg width="21" height="21" viewBox="0 0 21 21" fill="none" xmlns="http://www.w3.org/2000/svg">
<path fill-rule="evenodd" clip-rule="evenodd" d="M6.76874 6.8957C7.74879 5.91565 9.07802 5.36506 10.464 5.36506C11.85 5.36506 13.1792 5.91565 14.1593 6.8957C15.1393 7.87574 15.6899 9.20498 15.6899 10.591C15.6899 11.977 15.1393 13.3062 14.1593 14.2863C13.1792 15.2663 11.85 15.8169 10.464 15.8169C9.07802 15.8169 7.74879 15.2663 6.76874 14.2863C5.78869 13.3062 5.23811 11.977 5.23811 10.591C5.23811 9.20498 5.78869 7.87574 6.76874 6.8957ZM9.16579 13.7252C9.57738 13.8957 10.0185 13.9834 10.464 13.9834C11.3637 13.9834 12.2266 13.626 12.8628 12.9898C13.499 12.3536 13.8565 11.4907 13.8565 10.591C13.8565 9.69124 13.499 8.82836 12.8628 8.19216C12.2266 7.55595 11.3637 7.19854 10.464 7.19854C10.0185 7.19854 9.57738 7.28628 9.16579 7.45677C8.7542 7.62726 8.38022 7.87714 8.0652 8.19216C7.75019 8.50718 7.5003 8.88115 7.32981 9.29274C7.15933 9.70433 7.07158 10.1455 7.07158 10.591C7.07158 11.0365 7.15933 11.4776 7.32981 11.8892C7.5003 12.3008 7.75019 12.6748 8.0652 12.9898C8.38022 13.3048 8.7542 13.5547 9.16579 13.7252Z" fill="#1A1A1A" style="fill:#1A1A1A;fill:color(display-p3 0.1020 0.1020 0.1020);fill-opacity:1;"/>
<path d="M16.8484 6.14366C17.0801 5.912 17.2102 5.59779 17.2102 5.27017C17.2102 4.94254 17.0801 4.62834 16.8484 4.39667C16.6168 4.16501 16.3026 4.03486 15.9749 4.03486C15.6473 4.03486 15.3331 4.16501 15.1014 4.39667C14.8698 4.62834 14.7396 4.94254 14.7396 5.27017C14.7396 5.59779 14.8698 5.912 15.1014 6.14366C15.3331 6.37533 15.6473 6.50548 15.9749 6.50548C16.3026 6.50548 16.6168 6.37533 16.8484 6.14366Z" fill="#1A1A1A" style="fill:#1A1A1A;fill:color(display-p3 0.1020 0.1020 0.1020);fill-opacity:1;"/>
<path fill-rule="evenodd" clip-rule="evenodd" d="M6.27244 0.484831C7.35694 0.435351 7.70262 0.423828 10.464 0.423828C13.2261 0.423828 13.5711 0.436029 14.6549 0.484831C15.7374 0.534311 16.4775 0.707153 17.1242 0.957264C17.8023 1.2127 18.4167 1.61286 18.9244 2.12987C19.4416 2.63777 19.8418 3.25237 20.097 3.93081C20.3485 4.57744 20.5207 5.31694 20.5702 6.3994C20.6196 7.48389 20.6312 7.82957 20.6312 10.591C20.6312 13.3524 20.6196 13.698 20.5702 14.7825C20.5207 15.865 20.3485 16.6045 20.0977 17.2511C19.8423 17.9293 19.4421 18.5436 18.9251 19.0514C18.4168 19.5692 17.802 19.9691 17.1242 20.224C16.4775 20.4755 15.7381 20.6476 14.6556 20.6971C13.5711 20.7466 13.2254 20.7581 10.464 20.7581C7.70262 20.7581 7.35694 20.7466 6.27244 20.6971C5.18998 20.6476 4.45049 20.4755 3.80386 20.2247C3.12572 19.9692 2.51138 19.5691 2.0036 19.0521C1.48575 18.5437 1.08585 17.9289 0.830989 17.2511C0.579522 16.6045 0.407358 15.865 0.357878 14.7825C0.308398 13.698 0.296875 13.353 0.296875 10.591C0.296875 7.8289 0.309075 7.48389 0.357878 6.40007C0.407358 5.31761 0.5802 4.57744 0.830311 3.93081C1.08575 3.25266 1.4859 2.63832 2.00292 2.13055C2.51128 1.61271 3.12605 1.2128 3.80386 0.957942C4.45049 0.706475 5.18998 0.534311 6.27244 0.484831ZM14.5729 2.31492C13.5006 2.26611 13.1786 2.25595 10.464 2.25595C7.74939 2.25595 7.42743 2.26611 6.35514 2.31492C5.36418 2.36033 4.826 2.52572 4.46744 2.66534C4.02578 2.828 3.62623 3.08765 3.29822 3.42517C2.94304 3.78102 2.72208 4.11992 2.53839 4.59439C2.39808 4.95295 2.23338 5.49113 2.18796 6.48209C2.13916 7.55438 2.12899 7.87634 2.12899 10.591C2.12899 13.3056 2.13916 13.6276 2.18796 14.6999C2.23338 15.6908 2.39876 16.229 2.53839 16.5876C2.70115 17.0292 2.96079 17.4287 3.29822 17.7568C3.62628 18.0942 4.02581 18.3539 4.46744 18.5166C4.826 18.6569 5.36418 18.8216 6.35514 18.867C7.42743 18.9158 7.74871 18.926 10.464 18.926C13.1793 18.926 13.5006 18.9158 14.5729 18.867C15.5639 18.8216 16.102 18.6562 16.4606 18.5166C16.9023 18.354 17.3018 18.0943 17.6298 17.7568C17.9673 17.4287 18.2269 17.0292 18.3896 16.5876C18.53 16.229 18.6947 15.6908 18.7401 14.6999C18.7889 13.6276 18.799 13.3056 18.799 10.591C18.799 7.87634 18.7889 7.55438 18.7401 6.48209C18.6947 5.49113 18.5293 4.95295 18.3896 4.59439C18.206 4.11992 17.9857 3.78102 17.6298 3.42517C17.274 3.07 16.9351 2.84903 16.4606 2.66534C16.102 2.52504 15.5639 2.36033 14.5729 2.31492Z" fill="#1A1A1A" style="fill:#1A1A1A;fill:color(display-p3 0.1020 0.1020 0.1020);fill-opacity:1;"/>
</svg>
