<svg width="19" height="20" viewBox="0 0 19 20" fill="none" xmlns="http://www.w3.org/2000/svg">
<path d="M15.4105 3.85144C14.0513 2.43689 11.8375 2.43689 10.4784 3.85144L9.91663 4.43608C9.69068 4.67124 9.69815 5.04503 9.9333 5.27097C10.1685 5.49691 10.5422 5.48945 10.7682 5.2543L11.3299 4.66965C12.2244 3.73874 13.6645 3.73874 14.5589 4.66965C15.4662 5.61385 15.4662 7.15409 14.5589 8.09828L12.0086 10.7526C11.8671 10.8998 11.713 11.0229 11.5508 11.1226C10.6784 11.6588 9.5358 11.5396 8.77959 10.7526C8.65658 10.6245 8.55037 10.4858 8.46084 10.3392C8.29088 10.0609 7.92749 9.97301 7.64917 10.143C7.37085 10.3129 7.28299 10.6763 7.45294 10.9546C7.58641 11.1732 7.74482 11.3801 7.92803 11.5708C9.07316 12.7626 10.8286 12.9527 12.1691 12.1287C12.4169 11.9764 12.6493 11.7902 12.8601 11.5708L15.4105 8.9165C16.7569 7.51522 16.7569 5.25271 15.4105 3.85144Z" fill="#4FABE8" style="fill:#4FABE8;fill:color(display-p3 0.3098 0.6706 0.9098);fill-opacity:1;"/>
<path d="M11.1349 7.7879C9.77574 6.37335 7.56194 6.37336 6.20276 7.7879L3.65239 10.4422C2.30597 11.8435 2.30597 14.106 3.65239 15.5072C5.01157 16.9218 7.22537 16.9218 8.58454 15.5072L9.14649 14.9224C9.37244 14.6872 9.36497 14.3135 9.12982 14.0875C8.89467 13.8616 8.52088 13.869 8.29494 14.1042L7.73299 14.689C6.83851 15.6199 5.39842 15.6199 4.50394 14.689C3.59671 13.7448 3.59671 12.2046 4.50394 11.2604L7.05431 8.60612C7.94879 7.6752 9.38888 7.6752 10.2834 8.60612C10.4063 8.73411 10.5125 8.8728 10.602 9.01938C10.772 9.2977 11.1354 9.38553 11.4137 9.21556C11.692 9.04559 11.7799 8.68219 11.6099 8.40388C11.4765 8.18536 11.3181 7.97853 11.1349 7.7879Z" fill="#4FABE8" style="fill:#4FABE8;fill:color(display-p3 0.3098 0.6706 0.9098);fill-opacity:1;"/>
</svg>
