<svg width="15" height="16" viewBox="0 0 15 16" fill="none" xmlns="http://www.w3.org/2000/svg">
<path d="M11.253 0.80127H3.25738C1.54008 0.80127 0.147949 2.1934 0.147949 3.9107V11.9064C0.147949 13.6237 1.54008 15.0158 3.25738 15.0158H11.253C12.9703 15.0158 14.3625 13.6237 14.3625 11.9064V3.9107C14.3625 2.1934 12.9703 0.80127 11.253 0.80127ZM13.4741 11.9064C13.4741 13.133 12.4797 14.1274 11.253 14.1274H3.25738C2.03074 14.1274 1.03636 13.133 1.03636 11.9064V3.9107C1.03636 2.68406 2.03074 1.68968 3.25738 1.68968H11.253C12.4797 1.68968 13.4741 2.68406 13.4741 3.9107V11.9064Z" fill="white" style="fill:white;fill-opacity:1;"/>
<path d="M4.58994 3.91064H3.70153C3.45619 3.91064 3.25732 4.10951 3.25732 4.35485V5.24326C3.25732 5.4886 3.45619 5.68746 3.70153 5.68746H4.58994C4.83528 5.68746 5.03414 5.4886 5.03414 5.24326V4.35485C5.03414 4.10951 4.83528 3.91064 4.58994 3.91064Z" fill="white" style="fill:white;fill-opacity:1;"/>
<path d="M4.58994 7.02002H3.70153C3.45619 7.02002 3.25732 7.21888 3.25732 7.46422V8.35263C3.25732 8.59797 3.45619 8.79684 3.70153 8.79684H4.58994C4.83528 8.79684 5.03414 8.59797 5.03414 8.35263V7.46422C5.03414 7.21888 4.83528 7.02002 4.58994 7.02002Z" fill="white" style="fill:white;fill-opacity:1;"/>
<path d="M4.58994 10.1294H3.70153C3.45619 10.1294 3.25732 10.3283 3.25732 10.5736V11.462C3.25732 11.7073 3.45619 11.9062 3.70153 11.9062H4.58994C4.83528 11.9062 5.03414 11.7073 5.03414 11.462V10.5736C5.03414 10.3283 4.83528 10.1294 4.58994 10.1294Z" fill="white" style="fill:white;fill-opacity:1;"/>
<path d="M11.2531 4.35498H5.92261V5.24339H11.2531V4.35498Z" fill="white" style="fill:white;fill-opacity:1;"/>
<path d="M11.2531 7.46436H5.92261V8.35276H11.2531V7.46436Z" fill="white" style="fill:white;fill-opacity:1;"/>
<path d="M11.2531 10.5737H5.92261V11.4621H11.2531V10.5737Z" fill="white" style="fill:white;fill-opacity:1;"/>
</svg>
