<svg width="15" height="16" viewBox="0 0 15 16" fill="none" xmlns="http://www.w3.org/2000/svg">
<path d="M11.2535 0.801514H3.25787C1.54057 0.801514 0.148438 2.19365 0.148438 3.91094V11.9066C0.148438 13.6239 1.54057 15.016 3.25787 15.016H11.2535C12.9708 15.016 14.363 13.6239 14.363 11.9066V3.91094C14.363 2.19365 12.9708 0.801514 11.2535 0.801514ZM13.4746 11.9066C13.4746 13.1333 12.4802 14.1276 11.2535 14.1276H3.25787C2.03122 14.1276 1.03685 13.1333 1.03685 11.9066V3.91094C1.03685 2.6843 2.03122 1.68992 3.25787 1.68992H11.2535C12.4802 1.68992 13.4746 2.6843 13.4746 3.91094V11.9066Z" fill="#1A1A1A" style="fill:#1A1A1A;fill:color(display-p3 0.1020 0.1020 0.1020);fill-opacity:1;"/>
<path d="M4.59042 3.91089H3.70202C3.45668 3.91089 3.25781 4.10975 3.25781 4.35509V5.2435C3.25781 5.48884 3.45668 5.6877 3.70202 5.6877H4.59042C4.83576 5.6877 5.03463 5.48884 5.03463 5.2435V4.35509C5.03463 4.10975 4.83576 3.91089 4.59042 3.91089Z" fill="#1A1A1A" style="fill:#1A1A1A;fill:color(display-p3 0.1020 0.1020 0.1020);fill-opacity:1;"/>
<path d="M4.59042 7.02026H3.70202C3.45668 7.02026 3.25781 7.21913 3.25781 7.46447V8.35288C3.25781 8.59821 3.45668 8.79708 3.70202 8.79708H4.59042C4.83576 8.79708 5.03463 8.59821 5.03463 8.35288V7.46447C5.03463 7.21913 4.83576 7.02026 4.59042 7.02026Z" fill="#1A1A1A" style="fill:#1A1A1A;fill:color(display-p3 0.1020 0.1020 0.1020);fill-opacity:1;"/>
<path d="M4.59042 10.1296H3.70202C3.45668 10.1296 3.25781 10.3285 3.25781 10.5738V11.4623C3.25781 11.7076 3.45668 11.9065 3.70202 11.9065H4.59042C4.83576 11.9065 5.03463 11.7076 5.03463 11.4623V10.5738C5.03463 10.3285 4.83576 10.1296 4.59042 10.1296Z" fill="#1A1A1A" style="fill:#1A1A1A;fill:color(display-p3 0.1020 0.1020 0.1020);fill-opacity:1;"/>
<path d="M11.2533 4.35522H5.92285V5.24363H11.2533V4.35522Z" fill="#1A1A1A" style="fill:#1A1A1A;fill:color(display-p3 0.1020 0.1020 0.1020);fill-opacity:1;"/>
<path d="M11.2533 7.4646H5.92285V8.35301H11.2533V7.4646Z" fill="#1A1A1A" style="fill:#1A1A1A;fill:color(display-p3 0.1020 0.1020 0.1020);fill-opacity:1;"/>
<path d="M11.2533 10.574H5.92285V11.4624H11.2533V10.574Z" fill="#1A1A1A" style="fill:#1A1A1A;fill:color(display-p3 0.1020 0.1020 0.1020);fill-opacity:1;"/>
</svg>
