<svg width="10" height="11" viewBox="0 0 10 11" fill="none" xmlns="http://www.w3.org/2000/svg">
<path fill-rule="evenodd" clip-rule="evenodd" d="M4.92483 9.55052C4.93686 9.55749 4.94632 9.56287 4.95302 9.56664L4.96414 9.57284C5.05294 9.62159 5.16308 9.62122 5.25196 9.573L5.26338 9.56664C5.27008 9.56287 5.27953 9.55749 5.29157 9.55052C5.31563 9.53657 5.35002 9.51624 5.39326 9.48961C5.4797 9.43639 5.60173 9.35789 5.7475 9.25492C6.03853 9.04933 6.42685 8.74428 6.81601 8.34583C7.59058 7.55278 8.39511 6.36126 8.39511 4.8289C8.39511 3.01359 6.92351 1.54199 5.1082 1.54199C3.29289 1.54199 1.82129 3.01359 1.82129 4.8289C1.82129 6.36126 2.62581 7.55278 3.40038 8.34583C3.78955 8.74428 4.17787 9.04933 4.4689 9.25492C4.61466 9.35789 4.73669 9.43639 4.82313 9.48961C4.86637 9.51624 4.90076 9.53657 4.92483 9.55052ZM5.1082 6.02414C5.76831 6.02414 6.30344 5.48901 6.30344 4.8289C6.30344 4.16879 5.76831 3.63366 5.1082 3.63366C4.44809 3.63366 3.91296 4.16879 3.91296 4.8289C3.91296 5.48901 4.44809 6.02414 5.1082 6.02414Z" fill="#B3B3B3" style="fill:#B3B3B3;fill:color(display-p3 0.7020 0.7020 0.7020);fill-opacity:1;"/>
</svg>
