<svg width="24" height="24" viewBox="0 0 24 24" fill="none" xmlns="http://www.w3.org/2000/svg">
<path fill-rule="evenodd" clip-rule="evenodd" d="M4.84158 6.01574C6.05208 3.10493 8.94965 1.25 12.0005 1.25C15.0514 1.25 17.949 3.10493 19.1595 6.01574C20.285 8.72228 19.6745 11.034 18.4106 13.0032C17.367 14.6292 15.8394 16.0769 14.4806 17.3645L14.4795 17.3655C14.2394 17.593 14.004 17.8161 13.7781 18.0337C13.3008 18.4935 12.6633 18.75 12.0005 18.75C11.3377 18.75 10.7003 18.4935 10.223 18.0338L10.2214 18.0322C9.98199 17.8002 9.73237 17.5628 9.47688 17.3198C8.13245 16.0411 6.62554 14.6079 5.59274 13.0023C4.32729 11.035 3.71464 8.72562 4.84158 6.01574ZM9 9C9 7.34315 10.3431 6 12 6C13.6569 6 15 7.34315 15 9C15 10.6569 13.6569 12 12 12C10.3431 12 9 10.6569 9 9Z" fill="white" style="fill:white;fill-opacity:1;"/>
<path d="M6.99581 19.6578C6.94927 19.1487 6.5212 18.75 6 18.75C5.44772 18.75 5 19.1977 5 19.75C5 20.4639 5.43495 20.9848 5.85254 21.3139C6.2814 21.6519 6.84 21.9125 7.44113 22.1129C8.65384 22.5171 10.2656 22.75 12 22.75C13.7344 22.75 15.3462 22.5171 16.5589 22.1129C17.16 21.9125 17.7186 21.6519 18.1475 21.3139C18.5651 20.9848 19 20.4639 19 19.75C19 19.1977 18.5523 18.75 18 18.75C17.4788 18.75 17.0507 19.1487 17.0042 19.6578C16.9869 19.6768 16.9574 19.7053 16.9095 19.7431C16.7311 19.8836 16.4111 20.054 15.9264 20.2155C14.9675 20.5352 13.5793 20.75 12 20.75C10.4207 20.75 9.03245 20.5352 8.07359 20.2155C7.58893 20.054 7.26885 19.8836 7.09048 19.7431C7.04258 19.7053 7.01311 19.6768 6.99581 19.6578Z" fill="white" style="fill:white;fill-opacity:1;"/>
</svg>
