<svg width="24" height="27" viewBox="0 0 24 27" fill="none" xmlns="http://www.w3.org/2000/svg">
<path fill-rule="evenodd" clip-rule="evenodd" d="M11.8739 8.61508C9.65637 8.61508 7.8587 10.4127 7.8587 12.6303C7.8587 14.8478 9.65637 16.6455 11.8739 16.6455C14.0914 16.6455 15.8891 14.8478 15.8891 12.6303C15.8891 10.4127 14.0914 8.61508 11.8739 8.61508ZM9.27583 12.6303C9.27583 11.1954 10.439 10.0322 11.8739 10.0322C13.3088 10.0322 14.472 11.1954 14.472 12.6303C14.472 14.0651 13.3088 15.2283 11.8739 15.2283C10.439 15.2283 9.27583 14.0651 9.27583 12.6303Z" fill="#4FABE8" style="fill:#4FABE8;fill:color(display-p3 0.3098 0.6706 0.9098);fill-opacity:1;"/>
<path fill-rule="evenodd" clip-rule="evenodd" d="M11.8749 3.41895C8.26012 3.41895 4.81147 5.55694 3.36797 8.93127C2.02457 12.0716 2.75183 14.744 4.26603 17.0324C5.50748 18.9086 7.31817 20.583 8.95172 22.0936C9.26317 22.3817 9.56834 22.6639 9.86174 22.9402L9.8633 22.9417C10.4066 23.4503 11.1282 23.7311 11.8749 23.7311C12.6216 23.7311 13.3432 23.4503 13.8865 22.9417C14.1638 22.682 14.4513 22.4172 14.7445 22.147C16.3959 20.6255 18.232 18.9337 19.4865 17.0336C20.9989 14.7429 21.7235 12.0677 20.3818 8.93127C18.9383 5.55695 15.4897 3.41895 11.8749 3.41895ZM4.67088 9.48864C5.87905 6.66443 8.79558 4.83607 11.8749 4.83607C14.9542 4.83607 17.8707 6.66443 19.0789 9.48864C20.1862 12.077 19.6274 14.248 18.3038 16.2528C17.1535 17.9951 15.4685 19.5498 13.8122 21.0781C13.512 21.355 13.2128 21.6311 12.9179 21.9072C12.6417 22.1658 12.2681 22.314 11.8749 22.314C11.482 22.314 11.1086 22.1661 10.8325 21.9078C10.5184 21.612 10.1994 21.3165 9.87944 21.0203C8.2442 19.5059 6.58588 17.9703 5.44786 16.2504C4.12297 14.2481 3.56217 12.0804 4.67088 9.48864Z" fill="#4FABE8" style="fill:#4FABE8;fill:color(display-p3 0.3098 0.6706 0.9098);fill-opacity:1;"/>
</svg>
