<svg width="20" height="20" viewBox="0 0 20 20" fill="none" xmlns="http://www.w3.org/2000/svg">
<rect x="0.565552" y="0.56543" width="18.8689" height="18.8689" rx="9.43445" fill="#CB544B" style="fill:#CB544B;fill:color(display-p3 0.7961 0.3294 0.2941);fill-opacity:1;"/>
<path d="M10.3058 11.5898L11.4239 10.4717L10.3058 9.35352" stroke="white" style="stroke:white;stroke-opacity:1;" stroke-width="0.628964" stroke-linecap="round" stroke-linejoin="round"/>
<path d="M6.95117 10.4717H11.3932" stroke="white" style="stroke:white;stroke-opacity:1;" stroke-width="0.628964" stroke-linecap="round" stroke-linejoin="round"/>
<path d="M10.4456 6.95091C10.9102 6.92919 11.3742 7.0047 11.808 7.17261C12.2418 7.34053 12.6357 7.59715 12.9647 7.92606C13.2936 8.25496 13.5502 8.64891 13.7181 9.08269C13.886 9.51646 13.9615 9.98052 13.9398 10.4452C13.9615 10.9098 13.886 11.3738 13.7181 11.8076C13.5502 12.2414 13.2936 12.6353 12.9647 12.9643C12.6357 13.2932 12.2418 13.5498 11.808 13.7177C11.3742 13.8856 10.9102 13.9611 10.4456 13.9394" stroke="white" style="stroke:white;stroke-opacity:1;" stroke-width="0.628964" stroke-linecap="round" stroke-linejoin="round"/>
</svg>
