<svg width="1100" height="630" viewBox="0 0 1100 630" fill="none" xmlns="http://www.w3.org/2000/svg">
<mask id="mask0_2012_4485" style="mask-type:alpha" maskUnits="userSpaceOnUse" x="0" y="0" width="1100" height="630">
<path d="M252.585 491.117C251.458 491.117 250.542 490.752 249.838 490.022C249.133 489.292 248.781 488.389 248.781 487.313C248.781 486.865 248.922 486.301 249.204 485.622L270.759 434.731C271.208 433.719 271.842 432.887 272.661 432.233C273.481 431.593 274.48 431.273 275.658 431.273H276.503C277.695 431.273 278.694 431.593 279.501 432.233C280.32 432.887 280.954 433.719 281.402 434.731L302.958 485.622C303.24 486.301 303.38 486.865 303.38 487.313C303.38 488.389 303.028 489.292 302.324 490.022C301.619 490.752 300.704 491.117 299.577 491.117C298.795 491.117 298.078 490.906 297.425 490.483C296.784 490.06 296.291 489.484 295.946 488.754L290.451 475.555H261.711L256.216 488.754C255.883 489.484 255.39 490.06 254.737 490.483C254.096 490.906 253.379 491.117 252.585 491.117ZM276.081 441.071L264.669 468.543H287.493L276.081 441.071ZM355.463 510.559C354.387 510.559 353.471 510.194 352.716 509.464C351.947 508.734 351.563 507.805 351.563 506.678V485.123C347.452 489.401 342.636 491.539 337.116 491.539C333.619 491.539 330.309 490.649 327.184 488.869C324.058 487.102 321.523 484.514 319.576 481.108C317.629 477.688 316.656 473.698 316.656 469.139C316.656 464.579 317.629 460.59 319.576 457.17C321.523 453.763 324.058 451.176 327.184 449.409C330.309 447.628 333.619 446.738 337.116 446.738C342.636 446.738 347.452 448.877 351.563 453.155V450.965C351.563 449.889 351.947 448.986 352.716 448.256C353.471 447.526 354.387 447.161 355.463 447.161C356.526 447.161 357.429 447.526 358.172 448.256C358.902 448.986 359.267 449.889 359.267 450.965V506.678C359.267 507.741 358.902 508.657 358.172 509.425C357.429 510.181 356.526 510.559 355.463 510.559ZM338.211 484.354C340.811 484.354 343.251 483.778 345.531 482.625C347.81 481.473 349.821 479.936 351.563 478.015V460.263C349.821 458.342 347.81 456.805 345.531 455.652C343.251 454.5 340.811 453.923 338.211 453.923C334.048 453.923 330.699 455.249 328.163 457.9C325.627 460.551 324.359 464.298 324.359 469.139C324.359 473.98 325.627 477.726 328.163 480.378C330.699 483.029 334.048 484.354 338.211 484.354ZM389.602 491.539C387.13 491.539 384.837 491.034 382.724 490.022C380.611 489.01 378.933 487.531 377.691 485.584C376.448 483.637 375.827 481.396 375.827 478.86C375.827 474.685 377.479 471.361 380.784 468.889C384.075 466.404 388.904 465.162 395.269 465.162H405.509V464.49C405.509 460.775 404.593 458.099 402.762 456.459C400.93 454.82 398.068 454 394.174 454C392.035 454 390.133 454.173 388.468 454.519C386.803 454.852 384.959 455.358 382.935 456.037C382.487 456.152 382.122 456.209 381.84 456.209C380.995 456.209 380.259 455.896 379.631 455.268C379.016 454.653 378.709 453.898 378.709 453.001C378.709 451.477 379.439 450.401 380.899 449.774C385.689 447.75 390.562 446.738 395.519 446.738C399.413 446.738 402.698 447.526 405.375 449.101C408.051 450.677 410.024 452.719 411.292 455.23C412.56 457.74 413.194 460.462 413.194 463.395V487.313C413.194 488.389 412.816 489.292 412.06 490.022C411.292 490.752 410.376 491.117 409.313 491.117C408.237 491.117 407.334 490.752 406.604 490.022C405.874 489.292 405.509 488.389 405.509 487.313V485.123C401.334 489.401 396.031 491.539 389.602 491.539ZM392.484 484.777C394.968 484.777 397.363 484.169 399.669 482.952C401.974 481.748 403.921 480.243 405.509 478.437V471.329H396.287C387.783 471.329 383.531 473.557 383.531 478.015C383.531 480.038 384.216 481.671 385.587 482.914C386.97 484.156 389.269 484.777 392.484 484.777ZM435.94 491.117C434.864 491.117 433.961 490.752 433.231 490.022C432.501 489.292 432.136 488.389 432.136 487.313V451.042C432.136 449.979 432.501 449.063 433.231 448.294C433.961 447.539 434.864 447.161 435.94 447.161C437.003 447.161 437.919 447.539 438.687 448.294C439.443 449.063 439.821 449.979 439.821 451.042V454.692C443.766 449.389 448.191 446.738 453.096 446.738H453.519C454.582 446.738 455.465 447.103 456.17 447.833C456.874 448.563 457.226 449.466 457.226 450.542C457.226 451.618 456.861 452.489 456.131 453.155C455.401 453.834 454.473 454.173 453.346 454.173H452.923C450.221 454.173 447.742 454.839 445.488 456.171C443.234 457.49 441.345 459.303 439.821 461.608V487.313C439.821 488.389 439.443 489.292 438.687 490.022C437.919 490.752 437.003 491.117 435.94 491.117ZM492.23 491.117C489.924 491.117 488.176 489.823 486.985 487.236L466.102 436.594C465.936 436.146 465.852 435.666 465.852 435.154C465.852 433.975 466.192 433.034 466.871 432.33C467.549 431.625 468.478 431.273 469.656 431.273C470.45 431.273 471.168 431.51 471.808 431.984C472.461 432.47 472.954 433.104 473.287 433.886L493.152 483.432L513.017 433.886C513.363 433.104 513.856 432.47 514.496 431.984C515.149 431.51 515.873 431.273 516.667 431.273C517.845 431.273 518.774 431.625 519.453 432.33C520.131 433.034 520.471 433.975 520.471 435.154C520.471 435.666 520.381 436.146 520.202 436.594L499.338 487.236C498.147 489.823 496.399 491.117 494.093 491.117H492.23ZM537.953 438.785C536.775 438.785 535.763 438.362 534.918 437.517C534.073 436.671 533.65 435.66 533.65 434.481V434.135C533.65 432.957 534.073 431.945 534.918 431.1C535.763 430.255 536.775 429.832 537.953 429.832H538.472C539.65 429.832 540.662 430.255 541.507 431.1C542.353 431.945 542.775 432.957 542.775 434.135V434.481C542.775 435.66 542.353 436.671 541.507 437.517C540.662 438.362 539.65 438.785 538.472 438.785H537.953ZM538.126 491.117C537.063 491.117 536.16 490.752 535.417 490.022C534.687 489.292 534.322 488.389 534.322 487.313V451.042C534.322 449.979 534.687 449.063 535.417 448.294C536.16 447.539 537.063 447.161 538.126 447.161C539.253 447.161 540.182 447.526 540.912 448.256C541.655 448.986 542.026 449.914 542.026 451.042V487.313C542.026 488.389 541.642 489.292 540.874 490.022C540.118 490.752 539.202 491.117 538.126 491.117ZM575.32 491.539C569.684 491.539 564.555 490.272 559.931 487.736C558.984 487.057 558.51 486.128 558.51 484.95C558.51 484.041 558.817 483.253 559.432 482.587C560.047 481.908 560.834 481.569 561.795 481.569C562.307 481.569 562.813 481.678 563.313 481.895C565.118 482.689 566.924 483.311 568.73 483.759C570.536 484.207 572.566 484.431 574.82 484.431C581.07 484.431 584.196 482.433 584.196 478.437C584.196 477.144 583.478 476.157 582.044 475.479C580.609 474.8 578.259 474.038 574.993 473.192C571.663 472.411 568.916 471.598 566.751 470.753C564.574 469.907 562.711 468.62 561.161 466.891C559.611 465.175 558.836 462.908 558.836 460.09C558.836 456.145 560.258 452.937 563.101 450.465C565.957 447.981 570.03 446.738 575.32 446.738C579.662 446.738 583.747 447.443 587.577 448.851C588.371 449.082 588.979 449.505 589.402 450.119C589.824 450.734 590.036 451.381 590.036 452.06C590.036 452.969 589.709 453.757 589.056 454.423C588.416 455.102 587.615 455.441 586.655 455.441C586.373 455.441 586.008 455.383 585.56 455.268C582.281 454.256 579.066 453.75 575.915 453.75C572.867 453.75 570.485 454.301 568.769 455.403C567.052 456.504 566.194 457.926 566.194 459.668C566.194 461.358 566.982 462.601 568.557 463.395C570.133 464.176 572.585 464.938 575.915 465.681C579.245 466.526 581.948 467.352 584.023 468.159C586.11 468.979 587.903 470.266 589.402 472.021C590.888 473.762 591.63 476.1 591.63 479.033C591.63 482.632 590.209 485.616 587.365 487.985C584.522 490.355 580.507 491.539 575.32 491.539ZM611.591 438.785C610.4 438.785 609.382 438.362 608.537 437.517C607.691 436.671 607.269 435.66 607.269 434.481V434.135C607.269 432.957 607.691 431.945 608.537 431.1C609.382 430.255 610.4 429.832 611.591 429.832H612.091C613.282 429.832 614.3 430.255 615.145 431.1C615.991 431.945 616.413 432.957 616.413 434.135V434.481C616.413 435.66 615.991 436.671 615.145 437.517C614.3 438.362 613.282 438.785 612.091 438.785H611.591ZM611.764 491.117C610.688 491.117 609.785 490.752 609.055 490.022C608.325 489.292 607.96 488.389 607.96 487.313V451.042C607.96 449.979 608.325 449.063 609.055 448.294C609.785 447.539 610.688 447.161 611.764 447.161C612.891 447.161 613.82 447.526 614.55 448.256C615.28 448.986 615.645 449.914 615.645 451.042V487.313C615.645 488.389 615.267 489.292 614.511 490.022C613.743 490.752 612.827 491.117 611.764 491.117ZM654.029 491.539C649.688 491.539 645.884 490.611 642.618 488.754C639.339 486.897 636.816 484.258 635.048 480.839C633.268 477.432 632.378 473.532 632.378 469.139C632.378 464.746 633.268 460.846 635.048 457.439C636.816 454.019 639.339 451.381 642.618 449.524C645.884 447.667 649.688 446.738 654.029 446.738C658.307 446.738 662.079 447.667 665.345 449.524C668.611 451.381 671.147 454.019 672.953 457.439C674.759 460.846 675.662 464.746 675.662 469.139C675.662 473.532 674.759 477.432 672.953 480.839C671.147 484.258 668.611 486.897 665.345 488.754C662.079 490.611 658.307 491.539 654.029 491.539ZM654.029 484.527C656.335 484.527 658.544 483.989 660.657 482.914C662.771 481.85 664.519 480.16 665.902 477.842C667.285 475.536 667.977 472.61 667.977 469.062C667.977 465.565 667.285 462.658 665.902 460.34C664.519 458.035 662.771 456.363 660.657 455.326C658.544 454.276 656.335 453.75 654.029 453.75C651.66 453.75 649.419 454.276 647.305 455.326C645.192 456.363 643.457 458.035 642.099 460.34C640.754 462.658 640.082 465.565 640.082 469.062C640.082 472.61 640.754 475.536 642.099 477.842C643.457 480.16 645.192 481.85 647.305 482.914C649.419 483.989 651.66 484.527 654.029 484.527ZM696.199 491.117C695.136 491.117 694.233 490.752 693.49 490.022C692.76 489.292 692.395 488.389 692.395 487.313V451.042C692.395 449.979 692.76 449.063 693.49 448.294C694.233 447.539 695.136 447.161 696.199 447.161C697.275 447.161 698.19 447.539 698.946 448.294C699.715 449.063 700.099 449.979 700.099 451.042V454.519C702.238 452.149 704.543 450.26 707.015 448.851C709.5 447.443 712.433 446.738 715.814 446.738C718.913 446.738 721.603 447.468 723.883 448.928C726.162 450.401 727.911 452.406 729.127 454.942C730.344 457.477 730.952 460.263 730.952 463.299V487.313C730.952 488.389 730.568 489.292 729.8 490.022C729.044 490.752 728.128 491.117 727.053 491.117C725.989 491.117 725.087 490.752 724.344 490.022C723.614 489.292 723.249 488.389 723.249 487.313V464.144C723.249 457.279 720.149 453.846 713.95 453.846C711.133 453.846 708.609 454.576 706.381 456.037C704.165 457.497 702.071 459.469 700.099 461.954V487.313C700.099 488.389 699.715 489.292 698.946 490.022C698.19 490.752 697.275 491.117 696.199 491.117ZM753.776 490.944C752.469 490.944 751.355 490.483 750.433 489.561C749.498 488.626 749.03 487.511 749.03 486.218V485.699C749.03 484.406 749.498 483.298 750.433 482.376C751.355 481.441 752.469 480.973 753.776 480.973H754.621C755.915 480.973 757.023 481.441 757.945 482.376C758.88 483.298 759.347 484.406 759.347 485.699V486.218C759.347 487.511 758.88 488.626 757.945 489.561C757.023 490.483 755.915 490.944 754.621 490.944H753.776ZM791.815 491.539C786.179 491.539 781.05 490.272 776.426 487.736C775.466 487.057 774.985 486.128 774.985 484.95C774.985 484.041 775.293 483.253 775.907 482.587C776.535 481.908 777.329 481.569 778.29 481.569C778.789 481.569 779.295 481.678 779.807 481.895C781.613 482.689 783.413 483.311 785.206 483.759C787.012 484.207 789.042 484.431 791.296 484.431C797.559 484.431 800.69 482.433 800.69 478.437C800.69 477.144 799.967 476.157 798.519 475.479C797.085 474.8 794.735 474.038 791.469 473.192C788.139 472.411 785.392 471.598 783.227 470.753C781.063 469.907 779.205 468.62 777.656 466.891C776.106 465.175 775.331 462.908 775.331 460.09C775.331 456.145 776.753 452.937 779.596 450.465C782.439 447.981 786.512 446.738 791.815 446.738C796.144 446.738 800.229 447.443 804.072 448.851C804.853 449.082 805.455 449.505 805.877 450.119C806.3 450.734 806.511 451.381 806.511 452.06C806.511 452.969 806.191 453.757 805.551 454.423C804.898 455.102 804.091 455.441 803.13 455.441C802.848 455.441 802.483 455.383 802.035 455.268C798.769 454.256 795.554 453.75 792.391 453.75C789.356 453.75 786.98 454.301 785.263 455.403C783.534 456.504 782.67 457.926 782.67 459.668C782.67 461.358 783.464 462.601 785.052 463.395C786.627 464.176 789.074 464.938 792.391 465.681C795.721 466.526 798.43 467.352 800.517 468.159C802.605 468.979 804.392 470.266 805.877 472.021C807.376 473.762 808.125 476.1 808.125 479.033C808.125 482.632 806.704 485.616 803.86 487.985C801.004 490.355 796.989 491.539 791.815 491.539ZM835.425 491.539C832.94 491.539 830.641 491.034 828.528 490.022C826.415 489.01 824.743 487.531 823.514 485.584C822.271 483.637 821.65 481.396 821.65 478.86C821.65 474.685 823.296 471.361 826.587 468.889C829.892 466.404 834.727 465.162 841.092 465.162H851.313V464.49C851.313 460.775 850.397 458.099 848.565 456.459C846.734 454.82 843.878 454 839.997 454C837.845 454 835.943 454.173 834.291 454.519C832.626 454.852 830.776 455.358 828.739 456.037C828.291 456.152 827.926 456.209 827.644 456.209C826.799 456.209 826.069 455.896 825.454 455.268C824.826 454.653 824.513 453.898 824.513 453.001C824.513 451.477 825.249 450.401 826.722 449.774C831.512 447.75 836.385 446.738 841.342 446.738C845.236 446.738 848.521 447.526 851.197 449.101C853.874 450.677 855.847 452.719 857.115 455.23C858.383 457.74 859.017 460.462 859.017 463.395V487.313C859.017 488.389 858.632 489.292 857.864 490.022C857.108 490.752 856.192 491.117 855.117 491.117C854.054 491.117 853.151 490.752 852.408 490.022C851.678 489.292 851.313 488.389 851.313 487.313V485.123C847.15 489.401 841.854 491.539 835.425 491.539ZM838.307 484.777C840.778 484.777 843.173 484.169 845.492 482.952C847.797 481.748 849.737 480.243 851.313 478.437V471.329H842.11C833.593 471.329 829.335 473.557 829.335 478.015C829.335 480.038 830.026 481.671 831.41 482.914C832.793 484.156 835.092 484.777 838.307 484.777Z" fill="#2361A3"/>
<path d="M376.184 606.486H381.486C381.486 599.858 378.182 597.207 369.172 597.207C358.432 597.207 355.781 600.953 355.781 607.197C355.781 611.174 358.471 615.285 364.177 615.535L373.859 615.938C376.645 616.073 377.202 616.688 377.202 619.031C377.202 622.662 376.145 623.719 369.133 623.719C361.871 623.719 361.084 623.008 361.084 619.031H355.781C355.781 625.928 358.605 629.021 369.133 629.021C379.335 629.021 382.505 625.659 382.505 619.031C382.505 613.556 379.373 610.866 374.109 610.636L364.446 610.252C362.102 610.156 361.084 608.792 361.084 607.197C361.084 603.528 362.063 602.509 369.172 602.509C375.358 602.509 376.184 603.124 376.184 606.486ZM406.73 628.579V597.649H401.428V628.579H406.73ZM430.937 628.579V605.026L446.767 628.579H453.472V597.649H448.17V621.202L432.358 597.649H425.634V628.579H430.937ZM500.982 623.815L496.563 620.895C495.315 622.797 492.76 623.719 487.899 623.719C479.811 623.719 477.698 621.548 477.698 613.114C477.698 604.623 479.849 602.509 487.899 602.509C491.953 602.509 494.393 603.124 495.814 604.411L499.349 600.511C496.736 598.091 492.932 597.207 487.899 597.207C476.929 597.207 472.395 601.587 472.395 613.114C472.395 624.468 476.814 629.021 487.899 629.021C494.047 629.021 498.465 627.657 500.982 623.815ZM519.886 628.579H542.863V623.277H525.189V615.765H538.445V610.463H525.189V602.951H542.863V597.649H519.886V628.579ZM610.027 623.143H591.91V623.008C591.91 618.82 592.967 617.936 598.404 617.936C606.492 617.936 610.161 615.016 610.161 607.6C610.161 600.089 606.357 597.207 598.404 597.207C590.181 597.207 586.608 600.204 586.608 607.6H591.91C591.91 603.393 592.967 602.509 598.404 602.509C603.706 602.509 604.859 603.393 604.859 607.6C604.859 611.75 603.802 612.634 598.404 612.634C590.181 612.634 586.608 615.631 586.608 623.008V628.445H610.027V623.143ZM641.668 623.719C635.886 623.719 634.368 621.74 634.368 613.114C634.368 604.488 635.886 602.509 641.668 602.509C647.451 602.509 648.949 604.488 648.949 613.114C648.949 621.74 647.451 623.719 641.668 623.719ZM641.668 629.021C650.813 629.021 654.252 624.372 654.252 613.114C654.252 601.856 650.813 597.207 641.668 597.207C632.523 597.207 629.065 601.856 629.065 613.114C629.065 624.372 632.523 629.021 641.668 629.021ZM696.594 623.143H678.477V623.008C678.477 618.82 679.534 617.936 684.971 617.936C693.059 617.936 696.728 615.016 696.728 607.6C696.728 600.089 692.925 597.207 684.971 597.207C676.748 597.207 673.175 600.204 673.175 607.6H678.477C678.477 603.393 679.534 602.509 684.971 602.509C690.273 602.509 691.426 603.393 691.426 607.6C691.426 611.75 690.35 612.634 684.971 612.634C676.748 612.634 673.175 615.631 673.175 623.008V628.445H696.594V623.143ZM715.729 614.651H721.069C721.992 613.767 723.855 613.594 727.428 613.594C733.922 613.594 734.729 614.171 734.729 618.647C734.729 623.104 733.884 623.719 727.428 623.719C722.702 623.719 721.031 623.412 720.455 621.548L715.633 623.546C717.131 627.388 720.935 629.021 727.428 629.021C736.054 629.021 740.031 626.159 740.031 618.647C740.031 611.174 736.131 608.292 727.428 608.292C724.163 608.292 722.222 608.696 721.031 609.579V602.951H736.362V597.649H715.729V614.651Z" fill="#08B3F3"/>
<path d="M518.688 123.09C552.554 128.424 549.647 177.01 515.157 178.063C500.675 178.063 488.806 166.909 487.655 152.723C462.496 198.122 496.669 255.975 548.918 255.444C641.263 251.78 641.246 119.856 548.917 116.202C538.085 116.202 527.83 118.677 518.688 123.09Z" fill="url(#paint0_linear_2012_4485)"/>
<path d="M536.994 83.3332C544.742 82.2098 552.626 82.2081 560.386 83.334C558.381 72.8961 554.306 62.4539 548.703 53.4152C542.852 62.8504 538.979 72.9879 536.994 83.3332Z" fill="url(#paint1_linear_2012_4485)"/>
<path d="M615.124 35.2726C616.963 43.2764 617.446 51.5375 616.565 59.6855C623.028 54.9362 630.382 51.1846 638.472 48.72C639.189 40.7953 638.532 32.8343 636.518 25.1237C628.945 27.226 621.721 30.632 615.124 35.2726Z" fill="url(#paint2_linear_2012_4485)"/>
<path d="M665.588 78.8312C672.956 80.0459 680.143 82.5058 686.89 86.1758C692.488 81.5911 697.354 76.0294 701.194 69.6346C694.916 66.0124 688.009 63.462 680.694 62.1174C676.699 68.3894 671.455 74.1952 665.588 78.8312Z" fill="url(#paint3_linear_2012_4485)"/>
<path d="M629.367 76.2836C635.556 78.7439 641.726 82.3009 647.041 86.5176C647.047 86.5138 647.054 86.5095 647.06 86.5057C650.098 77.7395 651.567 68.0665 651.271 58.7883C642.732 63.3616 635.385 69.3367 629.367 76.2836Z" fill="url(#paint4_linear_2012_4485)"/>
<path d="M587.449 75.3363C587.45 75.3426 587.453 75.3494 587.455 75.3557C594.128 75.7522 600.787 77.1078 607.219 79.459C607.34 70.1656 605.778 60.9085 602.614 52.1711C596.109 59.0101 591.002 66.8476 587.449 75.3363Z" fill="url(#paint5_linear_2012_4485)"/>
<path d="M647.696 110.255C647.69 110.262 647.685 110.269 647.68 110.275C650.852 115.464 653.176 120.988 654.671 126.666C661.467 122.066 667.39 116.266 672.127 109.567C668.66 109.034 665.188 108.77 661.739 108.77C656.996 108.769 652.294 109.268 647.696 110.255Z" fill="url(#paint6_linear_2012_4485)"/>
<path d="M717.75 153.747C725.467 160.079 731.878 167.459 736.937 175.525C739.819 162.1 740.684 148.245 739.441 134.449C733.21 142.129 725.859 148.602 717.75 153.747Z" fill="url(#paint7_linear_2012_4485)"/>
<path d="M670.839 185.818C678.819 189.319 686.346 194.2 693.061 200.469C700.788 196.895 707.969 191.994 714.227 185.842C708.214 179.92 701.116 174.918 693.058 171.18C686.517 177.267 678.996 182.216 670.839 185.818Z" fill="url(#paint8_linear_2012_4485)"/>
<path d="M678.865 136.493C686.518 136.987 694.21 138.757 701.65 141.92C706.968 136.634 711.434 130.414 714.759 123.436C707.91 120.318 700.518 118.373 692.824 117.718C689.249 124.713 684.523 131.064 678.865 136.493Z" fill="url(#paint9_linear_2012_4485)"/>
<path d="M651.518 177.027C659.938 174.438 667.837 170.34 674.801 164.947C666.638 161.018 658.074 158.761 649.508 158.042C651.095 164.265 651.763 170.663 651.518 177.027Z" fill="url(#paint10_linear_2012_4485)"/>
<path d="M530.846 12.991C538.833 15.5902 546.308 19.4501 553.03 24.4512C555.708 16.4144 559.612 8.98048 564.575 2.35683C552.858 4.19436 541.48 7.78351 530.846 12.991Z" fill="url(#paint11_linear_2012_4485)"/>
<path d="M588.664 4.20077C596.514 8.6171 603.453 14.2236 609.315 20.7148C613.762 12.9027 619.361 5.97399 625.899 0.111917C624.142 0.0370278 622.386 -0.000211323 620.637 -0.000211323C609.731 -0.000634424 598.992 1.44384 588.664 4.20077Z" fill="url(#paint12_linear_2012_4485)"/>
<path d="M508.877 51.5934C516.629 57.447 523.348 64.5657 528.743 72.6211C530.987 63.4021 534.793 54.4091 540.251 46.0241C534.887 38.3021 528.248 31.5929 520.579 26.1641C515.373 33.7186 511.358 42.2614 508.877 51.5934Z" fill="url(#paint13_linear_2012_4485)"/>
<path d="M559.273 42.3212C563.768 49.2325 567.213 57.1919 569.179 65.2461C573.787 58.3745 579.567 52.259 586.365 47.142C584.314 39.3921 580.941 31.9319 576.255 25.1234C569.727 29.7843 563.985 35.571 559.273 42.3212Z" fill="url(#paint14_linear_2012_4485)"/>
<path d="M706.354 207.352C711.312 216.64 714.572 226.422 716.234 236.326C724.541 224.297 730.919 211.137 735.221 197.35C726.066 202.298 716.311 205.623 706.354 207.352Z" fill="url(#paint15_linear_2012_4485)"/>
<path d="M720.788 89.1521C729.578 87.959 738.26 88.2514 746.57 89.8418C739.678 79.9738 731.234 71.0315 721.348 63.4081C722.574 72.0931 722.341 80.7768 720.788 89.1521Z" fill="url(#paint16_linear_2012_4485)"/>
<path d="M663.668 27.6254C672.095 29.6563 680.013 32.9895 687.198 37.4727C686.341 33.9888 685.333 30.5118 684.149 27.0529C681.337 18.8388 677.719 11.1308 673.425 3.97487C671.471 12.3561 668.189 20.3269 663.668 27.6254Z" fill="url(#paint17_linear_2012_4485)"/>
<path d="M589.807 350.381C601.355 347.514 612.544 343.447 623.221 338.236C615.191 335.39 607.51 331.686 600.274 327.167C597.629 335.284 594.124 343.055 589.807 350.381Z" fill="url(#paint18_linear_2012_4485)"/>
<path d="M474.218 338.272C484.869 343.466 496.031 347.521 507.557 350.383C503.249 343.058 499.756 335.294 497.121 327.186C489.868 331.718 482.203 335.428 474.218 338.272Z" fill="url(#paint19_linear_2012_4485)"/>
<path d="M530.945 354.482C536.837 355.095 542.775 355.404 548.68 355.404C554.585 355.404 560.524 355.095 566.415 354.481C559.822 349.056 553.97 343.012 548.695 336.27C543.439 342.984 537.498 349.079 530.945 354.482Z" fill="url(#paint20_linear_2012_4485)"/>
<path d="M504.035 92.5996C510.156 89.6574 516.556 87.3316 523.154 85.6506C517.921 77.7411 511.69 70.5708 504.566 64.3254C503.114 73.7141 502.936 83.1869 504.035 92.5996Z" fill="url(#paint21_linear_2012_4485)"/>
<path d="M422.478 79.5844C423.788 89.6948 426.567 99.5602 430.76 108.986C440.907 108.66 451.067 109.637 460.951 111.885C457.006 102.542 454.294 92.7301 452.862 82.6129C444.497 80.5279 435.933 79.4705 427.347 79.4705C425.724 79.4705 424.1 79.5086 422.478 79.5844Z" fill="url(#paint22_linear_2012_4485)"/>
<path d="M474.972 113.49C479.728 108.618 484.946 104.232 490.538 100.402C482.913 94.7502 474.622 90.1689 465.793 86.7282C467.64 96.0517 470.714 105.018 474.972 113.49Z" fill="url(#paint23_linear_2012_4485)"/>
<path d="M430.739 261.987C426.561 271.368 423.793 281.23 422.487 291.375C424.077 291.447 444.457 290.421 452.886 288.325C454.327 278.258 457.04 268.466 460.978 259.109C451.104 261.368 440.907 262.335 430.739 261.987Z" fill="url(#paint24_linear_2012_4485)"/>
<path d="M421.739 207.869C430.784 210.961 440.083 212.805 449.495 213.371C447.655 206.809 446.47 200.081 445.955 193.276C437.249 197.052 429.136 201.941 421.739 207.869Z" fill="url(#paint25_linear_2012_4485)"/>
<path d="M393.401 116.336C401.371 113.361 409.635 111.265 418.088 110.077C414.897 102.172 412.581 93.9792 411.17 85.6069C404.173 95.216 398.223 105.505 393.401 116.336Z" fill="url(#paint26_linear_2012_4485)"/>
<path d="M437.043 249.957C446.543 249.754 455.914 248.282 464.985 245.566C461.012 240.045 457.603 234.149 454.803 227.957C447.915 234.484 441.965 241.855 437.043 249.957Z" fill="url(#paint27_linear_2012_4485)"/>
<path d="M393.863 241.852C403.279 245.776 413.215 248.304 423.47 249.387C428.261 240.424 434.153 232.155 441.045 224.71C431.037 223.435 421.199 220.861 411.69 217.023C404.545 224.42 398.563 232.751 393.863 241.852Z" fill="url(#paint28_linear_2012_4485)"/>
<path d="M383.915 185.5C391.421 192.406 399.893 198.181 409.16 202.705C416.741 195.91 425.122 190.145 434.164 185.503C425.138 180.881 416.754 175.106 409.15 168.269C399.909 172.777 391.441 178.559 383.915 185.5Z" fill="url(#paint29_linear_2012_4485)"/>
<path d="M393.901 129.138C398.59 138.226 404.556 146.551 411.682 153.945C421.118 150.158 430.95 147.61 441.017 146.339C434.161 138.924 428.278 130.633 423.466 121.6C413.257 122.671 403.335 125.201 393.901 129.138Z" fill="url(#paint30_linear_2012_4485)"/>
<path d="M504.613 306.633C511.762 300.375 517.988 293.23 523.198 285.309C516.602 283.632 510.2 281.306 504.077 278.362C502.996 287.791 503.176 297.263 504.613 306.633Z" fill="url(#paint31_linear_2012_4485)"/>
<path d="M647.905 213.271C657.381 212.699 666.68 210.878 675.659 207.835C668.25 201.879 660.129 196.985 651.417 193.229C650.909 200.019 649.733 206.729 647.905 213.271Z" fill="url(#paint32_linear_2012_4485)"/>
<path d="M385.306 232.305C389.495 224.912 394.47 218.007 400.171 211.675C392.641 207.67 385.608 202.899 379.166 197.424C379.996 209.244 382.051 220.923 385.306 232.305Z" fill="url(#paint33_linear_2012_4485)"/>
<path d="M454.758 143.08C457.557 136.881 460.972 130.97 464.957 125.427C455.869 122.728 446.5 121.257 437.02 121.04C441.951 129.198 447.894 136.583 454.758 143.08Z" fill="url(#paint34_linear_2012_4485)"/>
<path d="M421.71 163.108C429.12 169.063 437.241 173.957 445.953 177.713C446.461 170.922 447.637 164.212 449.465 157.669C439.99 158.242 430.692 160.064 421.71 163.108Z" fill="url(#paint35_linear_2012_4485)"/>
<path d="M661.674 226.617C666.912 232.398 671.426 238.798 675.15 245.729C683.024 244.862 690.693 242.906 698.019 239.898C694.333 232.883 689.703 226.439 684.208 220.683C676.944 223.563 669.396 225.55 661.674 226.617Z" fill="url(#paint36_linear_2012_4485)"/>
<path d="M632.367 245.581C641.461 248.276 650.914 249.757 660.393 249.977C655.464 241.828 649.5 234.438 642.588 227.917C639.783 234.12 636.361 240.034 632.367 245.581Z" fill="url(#paint37_linear_2012_4485)"/>
<path d="M426.504 303.587C434.737 312.114 443.834 319.735 453.633 326.365C452.091 318.01 451.463 309.52 451.76 301.004C443.428 302.772 434.958 303.64 426.504 303.587Z" fill="url(#paint38_linear_2012_4485)"/>
<path d="M411.176 285.361C412.584 276.98 414.899 268.786 418.093 260.882C409.643 259.683 401.375 257.573 393.391 254.581C398.218 265.439 404.173 275.746 411.176 285.361Z" fill="url(#paint39_linear_2012_4485)"/>
<path d="M426.456 67.3988C434.942 67.3341 443.43 68.1934 451.744 69.959C451.454 61.4233 452.09 52.9207 453.641 44.5598C443.834 51.1881 434.718 58.8433 426.456 67.3988Z" fill="url(#paint40_linear_2012_4485)"/>
<path d="M463.998 73.2592C473.677 76.4287 482.86 80.8044 491.401 86.3145C490.892 76.193 491.699 66.0504 493.814 56.0526C485.305 50.3098 476.079 45.8719 466.323 42.8247C464.073 52.7993 463.293 63.0109 463.998 73.2592Z" fill="url(#paint41_linear_2012_4485)"/>
<path d="M507.516 319.899C510.343 329.762 514.558 339.091 520.073 347.695C528.215 341.497 535.383 334.17 541.433 325.861C536.056 317.212 531.835 307.96 528.833 298.254C522.713 306.341 515.569 313.596 507.516 319.899Z" fill="url(#paint42_linear_2012_4485)"/>
<path d="M465.83 284.252C474.689 280.815 482.983 276.231 490.587 270.57C484.989 266.736 479.759 262.351 475.005 257.483C470.76 265.979 467.686 274.948 465.83 284.252Z" fill="url(#paint43_linear_2012_4485)"/>
<path d="M474.167 32.6982C482.184 35.5411 489.86 39.247 497.098 43.7695C499.744 35.654 503.248 27.885 507.563 20.5616C496.021 23.4272 484.841 27.4911 474.167 32.6982Z" fill="url(#paint44_linear_2012_4485)"/>
<path d="M555.977 325.873C562.007 334.176 569.157 341.499 577.283 347.697C582.817 339.085 587.047 329.747 589.89 319.865C581.789 313.531 574.836 306.432 568.638 298.291C565.644 307.938 561.401 317.183 555.977 325.873Z" fill="url(#paint45_linear_2012_4485)"/>
<path d="M643.729 326.381C653.519 319.765 662.621 312.124 670.876 303.583C662.396 303.663 653.916 302.812 645.629 301.059C645.913 309.569 645.277 318.044 643.729 326.381Z" fill="url(#paint46_linear_2012_4485)"/>
<path d="M603.561 314.895C612.069 320.635 621.292 325.073 631.046 328.119C633.291 318.168 634.074 307.982 633.378 297.763C623.773 294.612 614.504 290.198 605.977 284.706C606.479 294.803 605.67 304.922 603.561 314.895Z" fill="url(#paint47_linear_2012_4485)"/>
<path d="M379.156 173.588C385.618 168.079 392.653 163.294 400.174 159.295C394.464 152.943 389.487 146.022 385.301 138.619C382.038 150.027 379.98 161.735 379.156 173.588Z" fill="url(#paint48_linear_2012_4485)"/>
<path d="M606.771 270.583C614.426 276.242 622.677 280.809 631.592 284.27C629.748 274.883 626.683 265.884 622.441 257.409C617.654 262.317 612.401 266.733 606.771 270.583Z" fill="url(#paint49_linear_2012_4485)"/>
<path d="M644.526 288.392C652.802 290.452 673.186 291.456 674.871 291.374C673.579 281.245 670.829 271.398 666.676 262.025C656.533 262.345 646.388 261.383 636.457 259.116C640.394 268.458 643.099 278.27 644.526 288.392Z" fill="url(#paint50_linear_2012_4485)"/>
<path d="M574.216 285.292C579.444 293.196 585.681 300.37 592.806 306.617C594.259 297.228 594.437 287.756 593.337 278.343C587.216 281.285 580.815 283.611 574.216 285.292Z" fill="url(#paint51_linear_2012_4485)"/>
<path d="M679.315 260.933C682.489 268.826 684.789 277.001 686.186 285.357C693.179 275.757 699.125 265.477 703.947 254.655C695.981 257.643 687.736 259.745 679.315 260.933Z" fill="url(#paint52_linear_2012_4485)"/>
<path d="M464.021 297.711C463.303 307.966 464.077 318.191 466.326 328.18C476.06 325.132 485.297 320.683 493.848 314.921C491.755 304.956 490.952 294.816 491.452 284.665C482.937 290.17 473.744 294.542 464.021 297.711Z" fill="url(#paint53_linear_2012_4485)"/>
<path d="M538.534 287.999C540.743 297.237 544.153 306.083 548.713 314.404C553.321 306.042 556.749 297.191 558.943 287.986C552.151 288.664 545.327 288.665 538.534 287.999Z" fill="url(#paint54_linear_2012_4485)"/>
<path d="M16.8869 564.434C16.1569 564.434 15.5357 564.184 15.0234 563.685C14.4983 563.185 14.2358 562.57 14.2358 561.84V547.143L0.461077 527.836C0.153692 527.336 0 526.818 0 526.28C0 525.55 0.243346 524.929 0.730039 524.416C1.20392 523.891 1.80589 523.629 2.53592 523.629C3.4965 523.629 4.26496 524.07 4.84131 524.954L16.8869 542.475L28.9326 524.954C29.5089 524.07 30.2774 523.629 31.238 523.629C31.968 523.629 32.5828 523.891 33.0823 524.416C33.5818 524.929 33.8123 525.55 33.7739 526.28C33.7739 526.818 33.6202 527.336 33.3128 527.836L19.4805 547.143V561.84C19.4805 562.57 19.2308 563.185 18.7313 563.685C18.2318 564.184 17.617 564.434 16.8869 564.434ZM48.4707 564.722C45.5121 564.722 42.9186 564.088 40.69 562.82C38.4615 561.552 36.7389 559.759 35.5221 557.441C34.3182 555.11 33.7163 552.446 33.7163 549.449C33.7163 546.452 34.3182 543.794 35.5221 541.476C36.7389 539.145 38.4615 537.346 40.69 536.078C42.9186 534.81 45.5121 534.176 48.4707 534.176C51.3909 534.176 53.9652 534.81 56.1938 536.078C58.4223 537.346 60.1513 539.145 61.3809 541.476C62.6104 543.794 63.2252 546.452 63.2252 549.449C63.2252 552.446 62.6104 555.11 61.3809 557.441C60.1513 559.759 58.4223 561.552 56.1938 562.82C53.9652 564.088 51.3909 564.722 48.4707 564.722ZM48.4707 559.938C50.0461 559.938 51.551 559.573 52.9854 558.843C54.4327 558.113 55.6238 556.961 56.5588 555.385C57.5065 553.81 57.9804 551.812 57.9804 549.391C57.9804 547.009 57.5065 545.03 56.5588 543.455C55.6238 541.88 54.4327 540.74 52.9854 540.035C51.551 539.318 50.0461 538.959 48.4707 538.959C46.8569 538.959 45.3264 539.318 43.8792 540.035C42.4447 540.74 41.2664 541.88 40.3442 543.455C39.4221 545.03 38.961 547.009 38.961 549.391C38.961 551.812 39.4221 553.81 40.3442 555.385C41.2664 556.961 42.4447 558.113 43.8792 558.843C45.3264 559.573 46.8569 559.938 48.4707 559.938ZM80.5732 564.722C78.4599 564.722 76.622 564.223 75.0595 563.224C73.5098 562.225 72.3186 560.861 71.4861 559.131C70.6664 557.402 70.2566 555.501 70.2566 553.426V537.057C70.2566 536.327 70.5127 535.713 71.0251 535.213C71.5502 534.714 72.1777 534.464 72.9078 534.464C73.6378 534.464 74.2526 534.714 74.7521 535.213C75.2516 535.713 75.5013 536.327 75.5013 537.057V552.849C75.5013 557.537 77.6146 559.881 81.8412 559.881C83.7623 559.881 85.4785 559.381 86.9898 558.382C88.514 557.383 89.9484 556.038 91.2932 554.348V537.057C91.2932 536.327 91.5494 535.713 92.0617 535.213C92.5868 534.714 93.2144 534.464 93.9444 534.464C94.6745 534.464 95.2892 534.714 95.7887 535.213C96.2882 535.713 96.538 536.327 96.538 537.057V561.783C96.538 562.513 96.2882 563.134 95.7887 563.646C95.2892 564.171 94.6745 564.434 93.9444 564.434C93.2144 564.434 92.5868 564.171 92.0617 563.646C91.5494 563.134 91.2932 562.513 91.2932 561.783V559.42C89.8332 561.033 88.2578 562.321 86.5672 563.281C84.8766 564.242 82.8786 564.722 80.5732 564.722ZM108.238 564.434C107.508 564.434 106.893 564.184 106.393 563.685C105.894 563.185 105.644 562.57 105.644 561.84V537.115C105.644 536.385 105.894 535.764 106.393 535.252C106.893 534.726 107.508 534.464 108.238 534.464C108.968 534.464 109.589 534.726 110.101 535.252C110.626 535.764 110.889 536.385 110.889 537.115V539.593C113.579 535.982 116.595 534.176 119.938 534.176H120.226C120.956 534.176 121.558 534.425 122.032 534.925C122.518 535.424 122.762 536.039 122.762 536.769C122.762 537.499 122.512 538.095 122.012 538.556C121.513 539.017 120.879 539.248 120.111 539.248H119.822C117.978 539.248 116.287 539.702 114.751 540.612C113.214 541.508 111.926 542.744 110.889 544.319V561.84C110.889 562.57 110.626 563.185 110.101 563.685C109.589 564.184 108.968 564.434 108.238 564.434ZM153.135 564.434C152.444 564.434 151.81 564.235 151.233 563.838C150.657 563.428 150.234 562.916 149.965 562.301L139.937 538.325C139.745 537.864 139.649 537.461 139.649 537.115C139.649 536.385 139.898 535.764 140.398 535.252C140.897 534.726 141.512 534.464 142.242 534.464C142.742 534.464 143.209 534.611 143.645 534.906C144.093 535.188 144.413 535.54 144.605 535.962L153.423 558.325L162.241 535.962C162.434 535.54 162.747 535.188 163.183 534.906C163.631 534.611 164.105 534.464 164.604 534.464C165.335 534.464 165.949 534.726 166.449 535.252C166.948 535.764 167.198 536.385 167.198 537.115C167.198 537.461 167.102 537.864 166.91 538.325L156.881 562.301C156.612 562.916 156.19 563.428 155.613 563.838C155.037 564.235 154.403 564.434 153.712 564.434H153.135ZM175.728 528.758C174.921 528.758 174.229 528.47 173.653 527.894C173.077 527.317 172.789 526.626 172.789 525.819V525.588C172.789 524.781 173.077 524.09 173.653 523.513C174.229 522.937 174.921 522.649 175.728 522.649H176.074C176.881 522.649 177.572 522.937 178.149 523.513C178.725 524.09 179.013 524.781 179.013 525.588V525.819C179.013 526.626 178.725 527.317 178.149 527.894C177.572 528.47 176.881 528.758 176.074 528.758H175.728ZM175.843 564.434C175.113 564.434 174.498 564.184 173.999 563.685C173.499 563.185 173.25 562.57 173.25 561.84V537.115C173.25 536.385 173.499 535.764 173.999 535.252C174.498 534.726 175.113 534.464 175.843 534.464C176.612 534.464 177.246 534.714 177.745 535.213C178.245 535.713 178.494 536.347 178.494 537.115V561.84C178.494 562.57 178.232 563.185 177.707 563.685C177.194 564.184 176.573 564.434 175.843 564.434ZM197.11 564.722C193.268 564.722 189.772 563.858 186.621 562.128C185.968 561.667 185.641 561.033 185.641 560.227C185.641 559.612 185.852 559.074 186.275 558.613C186.698 558.152 187.236 557.921 187.889 557.921C188.235 557.921 188.58 557.998 188.926 558.152C190.156 558.69 191.385 559.112 192.615 559.42C193.844 559.727 195.228 559.881 196.765 559.881C201.03 559.881 203.162 558.517 203.162 555.789C203.162 554.905 202.669 554.233 201.683 553.771C200.709 553.31 199.108 552.792 196.88 552.215C194.613 551.677 192.737 551.12 191.251 550.544C189.778 549.968 188.51 549.09 187.447 547.912C186.397 546.746 185.872 545.203 185.872 543.282C185.872 540.592 186.839 538.402 188.773 536.712C190.719 535.021 193.499 534.176 197.11 534.176C200.069 534.176 202.855 534.656 205.467 535.617C206.005 535.77 206.415 536.058 206.697 536.481C206.992 536.904 207.139 537.346 207.139 537.807C207.139 538.421 206.915 538.959 206.466 539.42C206.031 539.882 205.487 540.112 204.833 540.112C204.641 540.112 204.392 540.074 204.084 539.997C201.856 539.305 199.666 538.959 197.514 538.959C195.439 538.959 193.812 539.331 192.634 540.074C191.469 540.829 190.886 541.803 190.886 542.994C190.886 544.146 191.424 544.992 192.5 545.53C193.575 546.068 195.247 546.586 197.514 547.086C199.781 547.662 201.625 548.226 203.047 548.776C204.468 549.34 205.685 550.217 206.697 551.408C207.722 552.6 208.234 554.194 208.234 556.192C208.234 558.651 207.26 560.688 205.314 562.301C203.38 563.915 200.645 564.722 197.11 564.722ZM217.744 528.758C216.937 528.758 216.245 528.47 215.669 527.894C215.092 527.317 214.804 526.626 214.804 525.819V525.588C214.804 524.781 215.092 524.09 215.669 523.513C216.245 522.937 216.937 522.649 217.744 522.649H218.089C218.896 522.649 219.588 522.937 220.164 523.513C220.741 524.09 221.029 524.781 221.029 525.588V525.819C221.029 526.626 220.741 527.317 220.164 527.894C219.588 528.47 218.896 528.758 218.089 528.758H217.744ZM217.859 564.434C217.129 564.434 216.514 564.184 216.015 563.685C215.515 563.185 215.265 562.57 215.265 561.84V537.115C215.265 536.385 215.515 535.764 216.015 535.252C216.514 534.726 217.129 534.464 217.859 534.464C218.627 534.464 219.261 534.714 219.761 535.213C220.26 535.713 220.51 536.347 220.51 537.115V561.84C220.51 562.57 220.247 563.185 219.722 563.685C219.21 564.184 218.589 564.434 217.859 564.434ZM242.584 564.722C239.626 564.722 237.032 564.088 234.803 562.82C232.575 561.552 230.852 559.759 229.636 557.441C228.432 555.11 227.83 552.446 227.83 549.449C227.83 546.452 228.432 543.794 229.636 541.476C230.852 539.145 232.575 537.346 234.803 536.078C237.032 534.81 239.626 534.176 242.584 534.176C245.504 534.176 248.079 534.81 250.307 536.078C252.536 537.346 254.265 539.145 255.494 541.476C256.724 543.794 257.339 546.452 257.339 549.449C257.339 552.446 256.724 555.11 255.494 557.441C254.265 559.759 252.536 561.552 250.307 562.82C248.079 564.088 245.504 564.722 242.584 564.722ZM242.584 559.938C244.159 559.938 245.664 559.573 247.099 558.843C248.546 558.113 249.737 556.961 250.672 555.385C251.62 553.81 252.094 551.812 252.094 549.391C252.094 547.009 251.62 545.03 250.672 543.455C249.737 541.88 248.546 540.74 247.099 540.035C245.664 539.318 244.159 538.959 242.584 538.959C240.97 538.959 239.44 539.318 237.993 540.035C236.558 540.74 235.38 541.88 234.458 543.455C233.535 545.03 233.074 547.009 233.074 549.391C233.074 551.812 233.535 553.81 234.458 555.385C235.38 556.961 236.558 558.113 237.993 558.843C239.44 559.573 240.97 559.938 242.584 559.938ZM267.252 564.434C266.522 564.434 265.907 564.184 265.407 563.685C264.908 563.185 264.658 562.57 264.658 561.84V537.115C264.658 536.385 264.908 535.764 265.407 535.252C265.907 534.726 266.522 534.464 267.252 534.464C267.982 534.464 268.603 534.726 269.115 535.252C269.64 535.764 269.903 536.385 269.903 537.115V539.478C271.363 537.864 272.938 536.577 274.629 535.617C276.32 534.656 278.318 534.176 280.623 534.176C282.736 534.176 284.568 534.675 286.117 535.674C287.68 536.673 288.871 538.037 289.691 539.766C290.523 541.495 290.94 543.397 290.94 545.472V561.84C290.94 562.57 290.677 563.185 290.152 563.685C289.64 564.184 289.018 564.434 288.288 564.434C287.558 564.434 286.944 564.184 286.444 563.685C285.945 563.185 285.695 562.57 285.695 561.84V546.048C285.695 541.361 283.582 539.017 279.355 539.017C277.434 539.017 275.711 539.517 274.187 540.516C272.676 541.515 271.248 542.859 269.903 544.55V561.84C269.903 562.57 269.64 563.185 269.115 563.685C268.603 564.184 267.982 564.434 267.252 564.434ZM317.221 528.758C316.414 528.758 315.722 528.47 315.146 527.894C314.57 527.317 314.282 526.626 314.282 525.819V525.588C314.282 524.781 314.57 524.09 315.146 523.513C315.722 522.937 316.414 522.649 317.221 522.649H317.567C318.374 522.649 319.065 522.937 319.642 523.513C320.218 524.09 320.506 524.781 320.506 525.588V525.819C320.506 526.626 320.218 527.317 319.642 527.894C319.065 528.47 318.374 528.758 317.567 528.758H317.221ZM317.336 564.434C316.606 564.434 315.991 564.184 315.492 563.685C314.992 563.185 314.743 562.57 314.743 561.84V537.115C314.743 536.385 314.992 535.764 315.492 535.252C315.991 534.726 316.606 534.464 317.336 534.464C318.105 534.464 318.739 534.714 319.238 535.213C319.738 535.713 319.987 536.347 319.987 537.115V561.84C319.987 562.57 319.731 563.185 319.219 563.685C318.694 564.184 318.066 564.434 317.336 564.434ZM338.603 564.722C334.761 564.722 331.265 563.858 328.114 562.128C327.461 561.667 327.134 561.033 327.134 560.227C327.134 559.612 327.345 559.074 327.768 558.613C328.191 558.152 328.729 557.921 329.382 557.921C329.728 557.921 330.073 557.998 330.419 558.152C331.649 558.69 332.878 559.112 334.108 559.42C335.337 559.727 336.721 559.881 338.258 559.881C342.523 559.881 344.655 558.517 344.655 555.789C344.655 554.905 344.168 554.233 343.195 553.771C342.209 553.31 340.601 552.792 338.373 552.215C336.106 551.677 334.236 551.12 332.763 550.544C331.277 549.968 330.003 549.09 328.94 547.912C327.89 546.746 327.365 545.203 327.365 543.282C327.365 540.592 328.338 538.402 330.285 536.712C332.219 535.021 334.992 534.176 338.603 534.176C341.562 534.176 344.348 534.656 346.96 535.617C347.498 535.77 347.915 536.058 348.209 536.481C348.491 536.904 348.632 537.346 348.632 537.807C348.632 538.421 348.414 538.959 347.979 539.42C347.53 539.882 346.98 540.112 346.326 540.112C346.134 540.112 345.885 540.074 345.577 539.997C343.349 539.305 341.159 538.959 339.007 538.959C336.932 538.959 335.312 539.331 334.146 540.074C332.968 540.829 332.379 541.803 332.379 542.994C332.379 544.146 332.917 544.992 333.993 545.53C335.068 546.068 336.74 546.586 339.007 547.086C341.274 547.662 343.118 548.226 344.54 548.776C345.961 549.34 347.185 550.217 348.209 551.408C349.221 552.6 349.727 554.194 349.727 556.192C349.727 558.651 348.76 560.688 346.826 562.301C344.879 563.915 342.138 564.722 338.603 564.722ZM381.887 564.722C376.277 564.722 373.472 562.186 373.472 557.114V539.248H369.38C369.073 539.248 368.817 539.139 368.612 538.921C368.394 538.716 368.285 538.46 368.285 538.152C368.285 537.768 368.458 537.442 368.804 537.173L376.642 529.507C376.988 529.161 377.315 528.989 377.622 528.989C377.929 528.989 378.192 529.104 378.41 529.334C378.615 529.565 378.717 529.834 378.717 530.141V534.752H385.23C385.883 534.752 386.421 534.963 386.844 535.386C387.266 535.809 387.478 536.347 387.478 537C387.478 537.615 387.266 538.146 386.844 538.594C386.421 539.03 385.883 539.248 385.23 539.248H378.717V556.653C378.717 558.152 379.076 559.099 379.793 559.497C380.497 559.906 381.387 560.111 382.463 560.111C383.232 560.111 384 559.996 384.769 559.765C384.922 559.727 385.089 559.689 385.268 559.65C385.435 559.612 385.652 559.593 385.921 559.593C386.459 559.593 386.94 559.797 387.362 560.207C387.785 560.604 387.996 561.091 387.996 561.667C387.996 562.551 387.554 563.224 386.671 563.685C385.172 564.376 383.578 564.722 381.887 564.722ZM396.353 564.434C395.623 564.434 395.008 564.184 394.509 563.685C394.009 563.185 393.76 562.57 393.76 561.84V524.435C393.76 523.705 394.009 523.084 394.509 522.572C395.008 522.047 395.623 521.784 396.353 521.784C397.083 521.784 397.711 522.047 398.236 522.572C398.748 523.084 399.004 523.705 399.004 524.435V539.478C400.465 537.864 402.04 536.577 403.731 535.617C405.421 534.656 407.419 534.176 409.725 534.176C411.838 534.176 413.676 534.675 415.238 535.674C416.788 536.673 417.979 538.037 418.812 539.766C419.631 541.495 420.041 543.397 420.041 545.472V561.84C420.041 562.57 419.785 563.185 419.273 563.685C418.748 564.184 418.12 564.434 417.39 564.434C416.66 564.434 416.045 564.184 415.546 563.685C415.046 563.185 414.796 562.57 414.796 561.84V546.048C414.796 541.361 412.683 539.017 408.457 539.017C406.535 539.017 404.819 539.517 403.308 540.516C401.784 541.515 400.349 542.859 399.004 544.55V561.84C399.004 562.57 398.748 563.185 398.236 563.685C397.711 564.184 397.083 564.434 396.353 564.434ZM442 564.722C437.312 564.722 433.656 563.39 431.03 560.726C428.392 558.049 427.073 554.29 427.073 549.449C427.073 546.721 427.572 544.204 428.571 541.899C429.57 539.593 431.107 537.73 433.182 536.308C435.257 534.887 437.812 534.176 440.847 534.176C443.69 534.176 446.15 534.842 448.224 536.174C450.299 537.493 451.875 539.26 452.95 541.476C454.026 543.679 454.564 546.087 454.564 548.7C454.564 549.43 454.327 550.044 453.853 550.544C453.367 551.043 452.72 551.293 451.913 551.293H432.375C432.682 553.983 433.681 556.077 435.372 557.575C437.063 559.074 439.426 559.823 442.461 559.823C444.075 559.823 445.49 559.669 446.707 559.362C447.911 559.055 449.089 558.613 450.242 558.036C450.549 557.883 450.895 557.806 451.279 557.806C451.894 557.806 452.432 558.017 452.893 558.44C453.354 558.863 453.584 559.4 453.584 560.054C453.584 560.899 453.085 561.61 452.086 562.186C450.587 563.031 449.108 563.665 447.648 564.088C446.188 564.511 444.305 564.722 442 564.722ZM432.375 547.028H449.377C449.262 545.145 448.775 543.57 447.917 542.302C447.046 541.034 445.977 540.106 444.709 539.517C443.441 538.915 442.154 538.614 440.847 538.614C439.541 538.614 438.254 538.915 436.986 539.517C435.718 540.106 434.661 541.034 433.816 542.302C432.97 543.57 432.49 545.145 432.375 547.028ZM481.249 564.434C480.519 564.434 479.904 564.184 479.405 563.685C478.905 563.185 478.656 562.57 478.656 561.84V539.248H475.255C474.64 539.248 474.115 539.03 473.68 538.594C473.231 538.146 473.007 537.615 473.007 537C473.007 536.347 473.231 535.809 473.68 535.386C474.115 534.963 474.64 534.752 475.255 534.752H478.656V531.409C478.656 529.104 479.072 527.208 479.904 525.723C480.724 524.25 481.8 523.174 483.132 522.495C484.451 521.829 485.841 521.496 487.301 521.496C489.107 521.496 490.778 521.88 492.315 522.649C492.699 522.841 493.019 523.123 493.275 523.494C493.519 523.853 493.641 524.243 493.641 524.666C493.641 525.242 493.429 525.755 493.007 526.203C492.584 526.638 492.084 526.856 491.508 526.856C491.085 526.856 490.644 526.798 490.182 526.683C489.26 526.568 488.742 526.51 488.626 526.51C487.051 526.51 485.873 526.875 485.091 527.605C484.297 528.335 483.9 529.661 483.9 531.582V534.752H491.105C491.758 534.752 492.296 534.963 492.718 535.386C493.141 535.809 493.352 536.347 493.352 537C493.352 537.615 493.141 538.146 492.718 538.594C492.296 539.03 491.758 539.248 491.105 539.248H483.9V561.84C483.9 562.57 483.644 563.185 483.132 563.685C482.607 564.184 481.979 564.434 481.249 564.434ZM508.51 564.722C506.397 564.722 504.565 564.223 503.016 563.224C501.453 562.225 500.262 560.861 499.442 559.131C498.61 557.402 498.194 555.501 498.194 553.426V537.057C498.194 536.327 498.456 535.713 498.981 535.213C499.494 534.714 500.115 534.464 500.845 534.464C501.575 534.464 502.19 534.714 502.689 535.213C503.189 535.713 503.438 536.327 503.438 537.057V552.849C503.438 557.537 505.552 559.881 509.778 559.881C511.699 559.881 513.422 559.381 514.946 558.382C516.457 557.383 517.885 556.038 519.23 554.348V537.057C519.23 536.327 519.493 535.713 520.018 535.213C520.53 534.714 521.151 534.464 521.881 534.464C522.611 534.464 523.226 534.714 523.726 535.213C524.225 535.713 524.475 536.327 524.475 537.057V561.783C524.475 562.513 524.225 563.134 523.726 563.646C523.226 564.171 522.611 564.434 521.881 564.434C521.151 564.434 520.53 564.171 520.018 563.646C519.493 563.134 519.23 562.513 519.23 561.783V559.42C517.77 561.033 516.195 562.321 514.504 563.281C512.814 564.242 510.816 564.722 508.51 564.722ZM543.725 564.722C538.115 564.722 535.31 562.186 535.31 557.114V539.248H531.218C530.911 539.248 530.655 539.139 530.45 538.921C530.232 538.716 530.123 538.46 530.123 538.152C530.123 537.768 530.296 537.442 530.642 537.173L538.48 529.507C538.826 529.161 539.153 528.989 539.46 528.989C539.767 528.989 540.024 529.104 540.229 529.334C540.446 529.565 540.555 529.834 540.555 530.141V534.752H547.068C547.721 534.752 548.259 534.963 548.682 535.386C549.104 535.809 549.316 536.347 549.316 537C549.316 537.615 549.104 538.146 548.682 538.594C548.259 539.03 547.721 539.248 547.068 539.248H540.555V556.653C540.555 558.152 540.914 559.099 541.631 559.497C542.335 559.906 543.225 560.111 544.301 560.111C545.07 560.111 545.838 559.996 546.607 559.765C546.76 559.727 546.92 559.689 547.087 559.65C547.266 559.612 547.49 559.593 547.759 559.593C548.297 559.593 548.778 559.797 549.2 560.207C549.623 560.604 549.834 561.091 549.834 561.667C549.834 562.551 549.392 563.224 548.509 563.685C547.01 564.376 545.416 564.722 543.725 564.722ZM565.626 564.722C563.513 564.722 561.681 564.223 560.132 563.224C558.569 562.225 557.372 560.861 556.539 559.131C555.719 557.402 555.31 555.501 555.31 553.426V537.057C555.31 536.327 555.566 535.713 556.078 535.213C556.603 534.714 557.231 534.464 557.961 534.464C558.691 534.464 559.306 534.714 559.805 535.213C560.305 535.713 560.554 536.327 560.554 537.057V552.849C560.554 557.537 562.668 559.881 566.894 559.881C568.815 559.881 570.531 559.381 572.043 558.382C573.567 557.383 575.001 556.038 576.346 554.348V537.057C576.346 536.327 576.602 535.713 577.115 535.213C577.64 534.714 578.267 534.464 578.997 534.464C579.727 534.464 580.342 534.714 580.842 535.213C581.341 535.713 581.591 536.327 581.591 537.057V561.783C581.591 562.513 581.341 563.134 580.842 563.646C580.342 564.171 579.727 564.434 578.997 564.434C578.267 564.434 577.64 564.171 577.115 563.646C576.602 563.134 576.346 562.513 576.346 561.783V559.42C574.886 561.033 573.311 562.321 571.62 563.281C569.93 564.242 567.932 564.722 565.626 564.722ZM593.291 564.434C592.561 564.434 591.946 564.184 591.446 563.685C590.947 563.185 590.697 562.57 590.697 561.84V537.115C590.697 536.385 590.947 535.764 591.446 535.252C591.946 534.726 592.561 534.464 593.291 534.464C594.021 534.464 594.642 534.726 595.154 535.252C595.679 535.764 595.942 536.385 595.942 537.115V539.593C598.632 535.982 601.648 534.176 604.991 534.176H605.279C606.009 534.176 606.611 534.425 607.085 534.925C607.571 535.424 607.815 536.039 607.815 536.769C607.815 537.499 607.565 538.095 607.065 538.556C606.566 539.017 605.932 539.248 605.163 539.248H604.875C603.031 539.248 601.34 539.702 599.803 540.612C598.267 541.508 596.979 542.744 595.942 544.319V561.84C595.942 562.57 595.679 563.185 595.154 563.685C594.642 564.184 594.021 564.434 593.291 564.434ZM625.047 564.722C620.36 564.722 616.697 563.39 614.058 560.726C611.433 558.049 610.12 554.29 610.12 549.449C610.12 546.721 610.62 544.204 611.619 541.899C612.618 539.593 614.154 537.73 616.229 536.308C618.304 534.887 620.859 534.176 623.895 534.176C626.738 534.176 629.197 534.842 631.272 536.174C633.347 537.493 634.922 539.26 635.998 541.476C637.074 543.679 637.612 546.087 637.612 548.7C637.612 549.43 637.368 550.044 636.882 550.544C636.408 551.043 635.767 551.293 634.961 551.293H615.422C615.73 553.983 616.729 556.077 618.419 557.575C620.11 559.074 622.473 559.823 625.508 559.823C627.122 559.823 628.531 559.669 629.735 559.362C630.952 559.055 632.137 558.613 633.289 558.036C633.597 557.883 633.942 557.806 634.327 557.806C634.941 557.806 635.479 558.017 635.94 558.44C636.401 558.863 636.632 559.4 636.632 560.054C636.632 560.899 636.132 561.61 635.133 562.186C633.635 563.031 632.156 563.665 630.696 564.088C629.236 564.511 627.353 564.722 625.047 564.722ZM615.422 547.028H632.425C632.309 545.145 631.823 543.57 630.965 542.302C630.094 541.034 629.024 540.106 627.756 539.517C626.488 538.915 625.201 538.614 623.895 538.614C622.588 538.614 621.301 538.915 620.033 539.517C618.765 540.106 617.709 541.034 616.863 542.302C616.018 543.57 615.538 545.145 615.422 547.028ZM672.481 564.722C669.522 564.722 666.929 564.088 664.7 562.82C662.471 561.552 660.755 559.759 659.551 557.441C658.335 555.11 657.726 552.446 657.726 549.449C657.726 546.452 658.335 543.794 659.551 541.476C660.755 539.145 662.471 537.346 664.7 536.078C666.929 534.81 669.522 534.176 672.481 534.176C675.401 534.176 677.975 534.81 680.204 536.078C682.432 537.346 684.161 539.145 685.391 541.476C686.62 543.794 687.235 546.452 687.235 549.449C687.235 552.446 686.62 555.11 685.391 557.441C684.161 559.759 682.432 561.552 680.204 562.82C677.975 564.088 675.401 564.722 672.481 564.722ZM672.481 559.938C674.056 559.938 675.567 559.573 677.015 558.843C678.449 558.113 679.634 556.961 680.569 555.385C681.517 553.81 681.99 551.812 681.99 549.391C681.99 547.009 681.517 545.03 680.569 543.455C679.634 541.88 678.449 540.74 677.015 540.035C675.567 539.318 674.056 538.959 672.481 538.959C670.867 538.959 669.343 539.318 667.908 540.035C666.461 540.74 665.276 541.88 664.354 543.455C663.432 545.03 662.971 547.009 662.971 549.391C662.971 551.812 663.432 553.81 664.354 555.385C665.276 556.961 666.461 558.113 667.908 558.843C669.343 559.573 670.867 559.938 672.481 559.938ZM699.05 564.434C698.32 564.434 697.705 564.184 697.206 563.685C696.706 563.185 696.457 562.57 696.457 561.84V539.248H693.056C692.442 539.248 691.916 539.03 691.481 538.594C691.033 538.146 690.809 537.615 690.809 537C690.809 536.347 691.033 535.809 691.481 535.386C691.916 534.963 692.442 534.752 693.056 534.752H696.457V531.409C696.457 529.104 696.873 527.208 697.705 525.723C698.525 524.25 699.601 523.174 700.933 522.495C702.252 521.829 703.642 521.496 705.102 521.496C706.908 521.496 708.579 521.88 710.116 522.649C710.5 522.841 710.821 523.123 711.077 523.494C711.32 523.853 711.442 524.243 711.442 524.666C711.442 525.242 711.23 525.755 710.808 526.203C710.385 526.638 709.886 526.856 709.309 526.856C708.887 526.856 708.445 526.798 707.984 526.683C707.061 526.568 706.543 526.51 706.427 526.51C704.852 526.51 703.674 526.875 702.893 527.605C702.098 528.335 701.701 529.661 701.701 531.582V534.752H708.906C709.559 534.752 710.097 534.963 710.52 535.386C710.942 535.809 711.154 536.347 711.154 537C711.154 537.615 710.942 538.146 710.52 538.594C710.097 539.03 709.559 539.248 708.906 539.248H701.701V561.84C701.701 562.57 701.445 563.185 700.933 563.685C700.408 564.184 699.78 564.434 699.05 564.434ZM737.838 577.69C737.147 577.69 736.564 577.44 736.09 576.941C735.603 576.441 735.36 575.846 735.36 575.154C735.36 574.847 735.418 574.539 735.533 574.232L739.279 564.607L728.444 538.21C728.29 537.826 728.213 537.461 728.213 537.115C728.213 536.385 728.463 535.764 728.963 535.252C729.462 534.726 730.077 534.464 730.807 534.464C731.345 534.464 731.838 534.618 732.286 534.925C732.722 535.232 733.035 535.617 733.228 536.078L742.103 558.094L751.152 536.193C751.651 535.04 752.458 534.464 753.573 534.464C754.303 534.464 754.917 534.726 755.417 535.252C755.916 535.764 756.166 536.385 756.166 537.115C756.166 537.461 756.109 537.787 755.993 538.095L740.259 575.903C739.721 577.094 738.914 577.69 737.838 577.69ZM774.782 564.722C771.824 564.722 769.23 564.088 767.001 562.82C764.773 561.552 763.057 559.759 761.853 557.441C760.636 555.11 760.028 552.446 760.028 549.449C760.028 546.452 760.636 543.794 761.853 541.476C763.057 539.145 764.773 537.346 767.001 536.078C769.23 534.81 771.824 534.176 774.782 534.176C777.702 534.176 780.277 534.81 782.505 536.078C784.734 537.346 786.463 539.145 787.692 541.476C788.922 543.794 789.537 546.452 789.537 549.449C789.537 552.446 788.922 555.11 787.692 557.441C786.463 559.759 784.734 561.552 782.505 562.82C780.277 564.088 777.702 564.722 774.782 564.722ZM774.782 559.938C776.358 559.938 777.869 559.573 779.316 558.843C780.751 558.113 781.942 556.961 782.889 555.385C783.824 553.81 784.292 551.812 784.292 549.391C784.292 547.009 783.824 545.03 782.889 543.455C781.942 541.88 780.751 540.74 779.316 540.035C777.869 539.318 776.358 538.959 774.782 538.959C773.168 538.959 771.644 539.318 770.21 540.035C768.763 540.74 767.578 541.88 766.656 543.455C765.734 545.03 765.272 547.009 765.272 549.391C765.272 551.812 765.734 553.81 766.656 555.385C767.578 556.961 768.763 558.113 770.21 558.843C771.644 559.573 773.168 559.938 774.782 559.938ZM806.885 564.722C804.771 564.722 802.94 564.223 801.39 563.224C799.828 562.225 798.636 560.861 797.817 559.131C796.984 557.402 796.568 555.501 796.568 553.426V537.057C796.568 536.327 796.831 535.713 797.356 535.213C797.868 534.714 798.489 534.464 799.219 534.464C799.949 534.464 800.564 534.714 801.064 535.213C801.563 535.713 801.813 536.327 801.813 537.057V552.849C801.813 557.537 803.926 559.881 808.153 559.881C810.074 559.881 811.796 559.381 813.321 558.382C814.832 557.383 816.26 556.038 817.605 554.348V537.057C817.605 536.327 817.867 535.713 818.392 535.213C818.905 534.714 819.526 534.464 820.256 534.464C820.986 534.464 821.601 534.714 822.1 535.213C822.6 535.713 822.849 536.327 822.849 537.057V561.783C822.849 562.513 822.6 563.134 822.1 563.646C821.601 564.171 820.986 564.434 820.256 564.434C819.526 564.434 818.905 564.171 818.392 563.646C817.867 563.134 817.605 562.513 817.605 561.783V559.42C816.145 561.033 814.569 562.321 812.879 563.281C811.188 564.242 809.19 564.722 806.885 564.722ZM834.549 564.434C833.819 564.434 833.204 564.184 832.705 563.685C832.205 563.185 831.956 562.57 831.956 561.84V537.115C831.956 536.385 832.205 535.764 832.705 535.252C833.204 534.726 833.819 534.464 834.549 534.464C835.279 534.464 835.907 534.726 836.432 535.252C836.944 535.764 837.2 536.385 837.2 537.115V539.593C839.89 535.982 842.906 534.176 846.249 534.176H846.537C847.267 534.176 847.876 534.425 848.362 534.925C848.836 535.424 849.073 536.039 849.073 536.769C849.073 537.499 848.823 538.095 848.324 538.556C847.824 539.017 847.19 539.248 846.422 539.248H846.134C844.289 539.248 842.599 539.702 841.062 540.612C839.525 541.508 838.238 542.744 837.2 544.319V561.84C837.2 562.57 836.944 563.185 836.432 563.685C835.907 564.184 835.279 564.434 834.549 564.434ZM871.608 577.69C870.878 577.69 870.264 577.427 869.764 576.902C869.265 576.39 869.015 575.769 869.015 575.039V537.057C869.015 536.327 869.265 535.713 869.764 535.213C870.264 534.714 870.878 534.464 871.608 534.464C872.338 534.464 872.966 534.714 873.491 535.213C874.003 535.713 874.26 536.327 874.26 537.057V538.556C877.064 535.636 880.35 534.176 884.115 534.176C886.497 534.176 888.758 534.784 890.897 536.001C893.023 537.205 894.752 538.972 896.084 541.303C897.403 543.621 898.063 546.337 898.063 549.449C898.063 552.561 897.403 555.283 896.084 557.614C894.752 559.932 893.023 561.693 890.897 562.897C888.758 564.114 886.497 564.722 884.115 564.722C880.35 564.722 877.064 563.262 874.26 560.342V575.039C874.26 575.807 874.01 576.441 873.51 576.941C873.011 577.44 872.377 577.69 871.608 577.69ZM883.366 559.823C886.209 559.823 888.495 558.92 890.224 557.114C891.953 555.308 892.818 552.753 892.818 549.449C892.818 546.144 891.953 543.589 890.224 541.783C888.495 539.978 886.209 539.075 883.366 539.075C881.598 539.075 879.94 539.472 878.39 540.266C876.827 541.047 875.451 542.091 874.26 543.397V555.501C875.451 556.807 876.827 557.857 878.39 558.651C879.94 559.432 881.598 559.823 883.366 559.823ZM907.976 564.434C907.246 564.434 906.631 564.184 906.131 563.685C905.632 563.185 905.382 562.57 905.382 561.84V537.115C905.382 536.385 905.632 535.764 906.131 535.252C906.631 534.726 907.246 534.464 907.976 534.464C908.706 534.464 909.333 534.726 909.859 535.252C910.371 535.764 910.627 536.385 910.627 537.115V539.593C913.317 535.982 916.333 534.176 919.676 534.176H919.964C920.694 534.176 921.302 534.425 921.789 534.925C922.263 535.424 922.5 536.039 922.5 536.769C922.5 537.499 922.25 538.095 921.75 538.556C921.251 539.017 920.617 539.248 919.848 539.248H919.56C917.716 539.248 916.025 539.702 914.488 540.612C912.952 541.508 911.664 542.744 910.627 544.319V561.84C910.627 562.57 910.371 563.185 909.859 563.685C909.333 564.184 908.706 564.434 907.976 564.434ZM939.56 564.722C936.601 564.722 934.007 564.088 931.779 562.82C929.55 561.552 927.834 559.759 926.63 557.441C925.413 555.11 924.805 552.446 924.805 549.449C924.805 546.452 925.413 543.794 926.63 541.476C927.834 539.145 929.55 537.346 931.779 536.078C934.007 534.81 936.601 534.176 939.56 534.176C942.48 534.176 945.054 534.81 947.283 536.078C949.511 537.346 951.24 539.145 952.47 541.476C953.699 543.794 954.314 546.452 954.314 549.449C954.314 552.446 953.699 555.11 952.47 557.441C951.24 559.759 949.511 561.552 947.283 562.82C945.054 564.088 942.48 564.722 939.56 564.722ZM939.56 559.938C941.135 559.938 942.646 559.573 944.093 558.843C945.528 558.113 946.719 556.961 947.667 555.385C948.602 553.81 949.069 551.812 949.069 549.391C949.069 547.009 948.602 545.03 947.667 543.455C946.719 541.88 945.528 540.74 944.093 540.035C942.646 539.318 941.135 538.959 939.56 538.959C937.946 538.959 936.422 539.318 934.987 540.035C933.54 540.74 932.355 541.88 931.433 543.455C930.511 545.03 930.05 547.009 930.05 549.391C930.05 551.812 930.511 553.81 931.433 555.385C932.355 556.961 933.54 558.113 934.987 558.843C936.422 559.573 937.946 559.938 939.56 559.938ZM964.227 577.69C963.497 577.69 962.882 577.427 962.383 576.902C961.883 576.39 961.634 575.769 961.634 575.039V537.057C961.634 536.327 961.883 535.713 962.383 535.213C962.882 534.714 963.497 534.464 964.227 534.464C964.957 534.464 965.585 534.714 966.11 535.213C966.622 535.713 966.878 536.327 966.878 537.057V538.556C969.683 535.636 972.968 534.176 976.734 534.176C979.116 534.176 981.377 534.784 983.516 536.001C985.642 537.205 987.371 538.972 988.703 541.303C990.022 543.621 990.681 546.337 990.681 549.449C990.681 552.561 990.022 555.283 988.703 557.614C987.371 559.932 985.642 561.693 983.516 562.897C981.377 564.114 979.116 564.722 976.734 564.722C972.968 564.722 969.683 563.262 966.878 560.342V575.039C966.878 575.807 966.629 576.441 966.129 576.941C965.63 577.44 964.996 577.69 964.227 577.69ZM975.985 559.823C978.828 559.823 981.114 558.92 982.843 557.114C984.572 555.308 985.437 552.753 985.437 549.449C985.437 546.144 984.572 543.589 982.843 541.783C981.114 539.978 978.828 539.075 975.985 539.075C974.217 539.075 972.559 539.472 971.009 540.266C969.446 541.047 968.069 542.091 966.878 543.397V555.501C968.069 556.807 969.446 557.857 971.009 558.651C972.559 559.432 974.217 559.823 975.985 559.823ZM1011.14 564.722C1006.45 564.722 1002.8 563.39 1000.17 560.726C997.534 558.049 996.214 554.29 996.214 549.449C996.214 546.721 996.714 544.204 997.713 541.899C998.712 539.593 1000.25 537.73 1002.32 536.308C1004.4 534.887 1006.95 534.176 1009.99 534.176C1012.83 534.176 1015.29 534.842 1017.37 536.174C1019.44 537.493 1021.02 539.26 1022.09 541.476C1023.17 543.679 1023.71 546.087 1023.71 548.7C1023.71 549.43 1023.47 550.044 1023 550.544C1022.51 551.043 1021.86 551.293 1021.05 551.293H1001.52C1001.82 553.983 1002.82 556.077 1004.51 557.575C1006.2 559.074 1008.57 559.823 1011.6 559.823C1013.22 559.823 1014.63 559.669 1015.85 559.362C1017.05 559.055 1018.23 558.613 1019.38 558.036C1019.69 557.883 1020.04 557.806 1020.42 557.806C1021.04 557.806 1021.57 558.017 1022.03 558.44C1022.5 558.863 1022.73 559.4 1022.73 560.054C1022.73 560.899 1022.23 561.61 1021.23 562.186C1019.73 563.031 1018.25 563.665 1016.79 564.088C1015.33 564.511 1013.45 564.722 1011.14 564.722ZM1001.52 547.028H1018.52C1018.4 545.145 1017.92 543.57 1017.06 542.302C1016.19 541.034 1015.12 540.106 1013.85 539.517C1012.58 538.915 1011.3 538.614 1009.99 538.614C1008.68 538.614 1007.4 538.915 1006.13 539.517C1004.86 540.106 1003.8 541.034 1002.96 542.302C1002.11 543.57 1001.63 545.145 1001.52 547.028ZM1033.22 564.434C1032.49 564.434 1031.87 564.184 1031.37 563.685C1030.87 563.185 1030.62 562.57 1030.62 561.84V537.115C1030.62 536.385 1030.87 535.764 1031.37 535.252C1031.87 534.726 1032.49 534.464 1033.22 534.464C1033.95 534.464 1034.57 534.726 1035.1 535.252C1035.61 535.764 1035.87 536.385 1035.87 537.115V539.593C1038.56 535.982 1041.57 534.176 1044.92 534.176H1045.2C1045.93 534.176 1046.54 534.425 1047.03 534.925C1047.5 535.424 1047.74 536.039 1047.74 536.769C1047.74 537.499 1047.49 538.095 1046.99 538.556C1046.49 539.017 1045.86 539.248 1045.09 539.248H1044.8C1042.96 539.248 1041.27 539.702 1039.73 540.612C1038.19 541.508 1036.9 542.744 1035.87 544.319V561.84C1035.87 562.57 1035.61 563.185 1035.1 563.685C1034.57 564.184 1033.95 564.434 1033.22 564.434ZM1062.84 564.722C1057.23 564.722 1054.43 562.186 1054.43 557.114V539.248H1050.33C1050.03 539.248 1049.77 539.139 1049.56 538.921C1049.35 538.716 1049.24 538.46 1049.24 538.152C1049.24 537.768 1049.41 537.442 1049.76 537.173L1057.6 529.507C1057.94 529.161 1058.27 528.989 1058.58 528.989C1058.88 528.989 1059.14 529.104 1059.36 529.334C1059.57 529.565 1059.67 529.834 1059.67 530.141V534.752H1066.18C1066.84 534.752 1067.37 534.963 1067.8 535.386C1068.22 535.809 1068.43 536.347 1068.43 537C1068.43 537.615 1068.22 538.146 1067.8 538.594C1067.37 539.03 1066.84 539.248 1066.18 539.248H1059.67V556.653C1059.67 558.152 1060.03 559.099 1060.75 559.497C1061.45 559.906 1062.34 560.111 1063.42 560.111C1064.18 560.111 1064.95 559.996 1065.72 559.765C1065.88 559.727 1066.04 559.689 1066.22 559.65C1066.39 559.612 1066.61 559.593 1066.87 559.593C1067.41 559.593 1067.89 559.797 1068.32 560.207C1068.74 560.604 1068.95 561.091 1068.95 561.667C1068.95 562.551 1068.51 563.224 1067.62 563.685C1066.13 564.376 1064.53 564.722 1062.84 564.722ZM1080.99 577.69C1080.3 577.69 1079.72 577.44 1079.25 576.941C1078.76 576.441 1078.52 575.846 1078.52 575.154C1078.52 574.847 1078.57 574.539 1078.69 574.232L1082.44 564.607L1071.6 538.21C1071.45 537.826 1071.37 537.461 1071.37 537.115C1071.37 536.385 1071.62 535.764 1072.12 535.252C1072.62 534.726 1073.23 534.464 1073.96 534.464C1074.5 534.464 1074.99 534.618 1075.44 534.925C1075.88 535.232 1076.19 535.617 1076.38 536.078L1085.26 558.094L1094.31 536.193C1094.81 535.04 1095.61 534.464 1096.73 534.464C1097.46 534.464 1098.07 534.726 1098.57 535.252C1099.07 535.764 1099.32 536.385 1099.32 537.115C1099.32 537.461 1099.27 537.787 1099.15 538.095L1083.42 575.903C1082.88 577.094 1082.07 577.69 1080.99 577.69Z" fill="#1A4D7E"/>
</mask>
<g mask="url(#mask0_2012_4485)">
<rect x="-85.0234" y="-211.82" width="1280" height="1024" fill="white"/>
</g>
<defs>
<linearGradient id="paint0_linear_2012_4485" x1="479.209" y1="185.824" x2="618.17" y2="185.824" gradientUnits="userSpaceOnUse">
<stop stop-color="#2F3A79"/>
<stop offset="1" stop-color="#1E71B5"/>
</linearGradient>
<linearGradient id="paint1_linear_2012_4485" x1="548.69" y1="310.401" x2="548.69" y2="43.9204" gradientUnits="userSpaceOnUse">
<stop stop-color="#08B3F3"/>
<stop offset="0.89253" stop-color="#1E71B5"/>
<stop offset="1" stop-color="#1E71B5"/>
</linearGradient>
<linearGradient id="paint2_linear_2012_4485" x1="626.938" y1="278.74" x2="626.938" y2="43.742" gradientUnits="userSpaceOnUse">
<stop stop-color="#08B3F3"/>
<stop offset="0.89253" stop-color="#1E71B5"/>
<stop offset="1" stop-color="#1E71B5"/>
</linearGradient>
<linearGradient id="paint3_linear_2012_4485" x1="683.391" y1="264.411" x2="683.391" y2="49.8052" gradientUnits="userSpaceOnUse">
<stop stop-color="#08B3F3"/>
<stop offset="0.89253" stop-color="#1E71B5"/>
<stop offset="1" stop-color="#1E71B5"/>
</linearGradient>
<linearGradient id="paint4_linear_2012_4485" x1="640.338" y1="310.403" x2="640.338" y2="43.9222" gradientUnits="userSpaceOnUse">
<stop stop-color="#08B3F3"/>
<stop offset="0.89253" stop-color="#1E71B5"/>
<stop offset="1" stop-color="#1E71B5"/>
</linearGradient>
<linearGradient id="paint5_linear_2012_4485" x1="597.337" y1="310.402" x2="597.337" y2="43.9205" gradientUnits="userSpaceOnUse">
<stop stop-color="#08B3F3"/>
<stop offset="0.89253" stop-color="#1E71B5"/>
<stop offset="1" stop-color="#1E71B5"/>
</linearGradient>
<linearGradient id="paint6_linear_2012_4485" x1="659.903" y1="310.403" x2="659.903" y2="43.9216" gradientUnits="userSpaceOnUse">
<stop stop-color="#08B3F3"/>
<stop offset="0.89253" stop-color="#1E71B5"/>
<stop offset="1" stop-color="#1E71B5"/>
</linearGradient>
<linearGradient id="paint7_linear_2012_4485" x1="728.871" y1="310.402" x2="728.871" y2="43.9204" gradientUnits="userSpaceOnUse">
<stop stop-color="#08B3F3"/>
<stop offset="0.89253" stop-color="#1E71B5"/>
<stop offset="1" stop-color="#1E71B5"/>
</linearGradient>
<linearGradient id="paint8_linear_2012_4485" x1="692.533" y1="302.667" x2="692.533" y2="53.4718" gradientUnits="userSpaceOnUse">
<stop stop-color="#08B3F3"/>
<stop offset="0.89253" stop-color="#1E71B5"/>
<stop offset="1" stop-color="#1E71B5"/>
</linearGradient>
<linearGradient id="paint9_linear_2012_4485" x1="696.812" y1="260.401" x2="696.812" y2="67.7056" gradientUnits="userSpaceOnUse">
<stop stop-color="#08B3F3"/>
<stop offset="0.89253" stop-color="#1E71B5"/>
<stop offset="1" stop-color="#1E71B5"/>
</linearGradient>
<linearGradient id="paint10_linear_2012_4485" x1="662.154" y1="310.403" x2="662.154" y2="43.9222" gradientUnits="userSpaceOnUse">
<stop stop-color="#08B3F3"/>
<stop offset="0.89253" stop-color="#1E71B5"/>
<stop offset="1" stop-color="#1E71B5"/>
</linearGradient>
<linearGradient id="paint11_linear_2012_4485" x1="547.71" y1="274.173" x2="547.71" y2="40.198" gradientUnits="userSpaceOnUse">
<stop stop-color="#08B3F3"/>
<stop offset="0.89253" stop-color="#1E71B5"/>
<stop offset="1" stop-color="#1E71B5"/>
</linearGradient>
<linearGradient id="paint12_linear_2012_4485" x1="607.282" y1="277.415" x2="607.282" y2="40.2311" gradientUnits="userSpaceOnUse">
<stop stop-color="#08B3F3"/>
<stop offset="0.89253" stop-color="#1E71B5"/>
<stop offset="1" stop-color="#1E71B5"/>
</linearGradient>
<linearGradient id="paint13_linear_2012_4485" x1="524.564" y1="310.402" x2="524.564" y2="43.9204" gradientUnits="userSpaceOnUse">
<stop stop-color="#08B3F3"/>
<stop offset="0.89253" stop-color="#1E71B5"/>
<stop offset="1" stop-color="#1E71B5"/>
</linearGradient>
<linearGradient id="paint14_linear_2012_4485" x1="572.819" y1="274.617" x2="572.819" y2="44.0914" gradientUnits="userSpaceOnUse">
<stop stop-color="#08B3F3"/>
<stop offset="0.89253" stop-color="#1E71B5"/>
<stop offset="1" stop-color="#1E71B5"/>
</linearGradient>
<linearGradient id="paint15_linear_2012_4485" x1="720.788" y1="294.067" x2="720.788" y2="72.5914" gradientUnits="userSpaceOnUse">
<stop stop-color="#08B3F3"/>
<stop offset="0.89253" stop-color="#1E71B5"/>
<stop offset="1" stop-color="#1E71B5"/>
</linearGradient>
<linearGradient id="paint16_linear_2012_4485" x1="733.679" y1="310.402" x2="733.679" y2="43.9204" gradientUnits="userSpaceOnUse">
<stop stop-color="#08B3F3"/>
<stop offset="0.89253" stop-color="#1E71B5"/>
<stop offset="1" stop-color="#1E71B5"/>
</linearGradient>
<linearGradient id="paint17_linear_2012_4485" x1="675.433" y1="310.402" x2="675.433" y2="43.9211" gradientUnits="userSpaceOnUse">
<stop stop-color="#08B3F3"/>
<stop offset="0.89253" stop-color="#1E71B5"/>
<stop offset="1" stop-color="#1E71B5"/>
</linearGradient>
<linearGradient id="paint18_linear_2012_4485" x1="606.514" y1="319.074" x2="606.514" y2="133.402" gradientUnits="userSpaceOnUse">
<stop stop-color="#08B3F3"/>
<stop offset="0.89253" stop-color="#1E71B5"/>
<stop offset="1" stop-color="#1E71B5"/>
</linearGradient>
<linearGradient id="paint19_linear_2012_4485" x1="490.888" y1="319.081" x2="490.888" y2="133.441" gradientUnits="userSpaceOnUse">
<stop stop-color="#08B3F3"/>
<stop offset="0.89253" stop-color="#1E71B5"/>
<stop offset="1" stop-color="#1E71B5"/>
</linearGradient>
<linearGradient id="paint20_linear_2012_4485" x1="548.68" y1="322.289" x2="548.68" y2="139.571" gradientUnits="userSpaceOnUse">
<stop stop-color="#08B3F3"/>
<stop offset="0.89253" stop-color="#1E71B5"/>
<stop offset="1" stop-color="#1E71B5"/>
</linearGradient>
<linearGradient id="paint21_linear_2012_4485" x1="513.239" y1="245.109" x2="513.239" y2="54.102" gradientUnits="userSpaceOnUse">
<stop stop-color="#08B3F3"/>
<stop offset="0.89253" stop-color="#1E71B5"/>
<stop offset="1" stop-color="#1E71B5"/>
</linearGradient>
<linearGradient id="paint22_linear_2012_4485" x1="441.714" y1="266.341" x2="441.714" y2="53.7365" gradientUnits="userSpaceOnUse">
<stop stop-color="#08B3F3"/>
<stop offset="0.89253" stop-color="#1E71B5"/>
<stop offset="1" stop-color="#1E71B5"/>
</linearGradient>
<linearGradient id="paint23_linear_2012_4485" x1="478.165" y1="250.35" x2="478.165" y2="59.6864" gradientUnits="userSpaceOnUse">
<stop stop-color="#08B3F3"/>
<stop offset="0.89253" stop-color="#1E71B5"/>
<stop offset="1" stop-color="#1E71B5"/>
</linearGradient>
<linearGradient id="paint24_linear_2012_4485" x1="441.732" y1="303.8" x2="441.732" y2="91.9766" gradientUnits="userSpaceOnUse">
<stop stop-color="#08B3F3"/>
<stop offset="0.89253" stop-color="#1E71B5"/>
<stop offset="1" stop-color="#1E71B5"/>
</linearGradient>
<linearGradient id="paint25_linear_2012_4485" x1="435.617" y1="279.658" x2="435.617" y2="90.8666" gradientUnits="userSpaceOnUse">
<stop stop-color="#08B3F3"/>
<stop offset="0.89253" stop-color="#1E71B5"/>
<stop offset="1" stop-color="#1E71B5"/>
</linearGradient>
<linearGradient id="paint26_linear_2012_4485" x1="405.744" y1="244.331" x2="405.744" y2="62.8854" gradientUnits="userSpaceOnUse">
<stop stop-color="#08B3F3"/>
<stop offset="0.89253" stop-color="#1E71B5"/>
<stop offset="1" stop-color="#1E71B5"/>
</linearGradient>
<linearGradient id="paint27_linear_2012_4485" x1="451.014" y1="290.668" x2="451.014" y2="100.767" gradientUnits="userSpaceOnUse">
<stop stop-color="#08B3F3"/>
<stop offset="0.89253" stop-color="#1E71B5"/>
<stop offset="1" stop-color="#1E71B5"/>
</linearGradient>
<linearGradient id="paint28_linear_2012_4485" x1="417.454" y1="296.23" x2="417.454" y2="79.2358" gradientUnits="userSpaceOnUse">
<stop stop-color="#08B3F3"/>
<stop offset="0.89253" stop-color="#1E71B5"/>
<stop offset="1" stop-color="#1E71B5"/>
</linearGradient>
<linearGradient id="paint29_linear_2012_4485" x1="409.039" y1="287.206" x2="409.039" y2="70.2082" gradientUnits="userSpaceOnUse">
<stop stop-color="#08B3F3"/>
<stop offset="0.89253" stop-color="#1E71B5"/>
<stop offset="1" stop-color="#1E71B5"/>
</linearGradient>
<linearGradient id="paint30_linear_2012_4485" x1="417.459" y1="278.175" x2="417.459" y2="61.1888" gradientUnits="userSpaceOnUse">
<stop stop-color="#08B3F3"/>
<stop offset="0.89253" stop-color="#1E71B5"/>
<stop offset="1" stop-color="#1E71B5"/>
</linearGradient>
<linearGradient id="paint31_linear_2012_4485" x1="513.29" y1="304.933" x2="513.29" y2="113.967" gradientUnits="userSpaceOnUse">
<stop stop-color="#08B3F3"/>
<stop offset="0.89253" stop-color="#1E71B5"/>
<stop offset="1" stop-color="#1E71B5"/>
</linearGradient>
<linearGradient id="paint32_linear_2012_4485" x1="661.782" y1="279.593" x2="661.782" y2="90.8949" gradientUnits="userSpaceOnUse">
<stop stop-color="#08B3F3"/>
<stop offset="0.89253" stop-color="#1E71B5"/>
<stop offset="1" stop-color="#1E71B5"/>
</linearGradient>
<linearGradient id="paint33_linear_2012_4485" x1="389.669" y1="279.576" x2="389.669" y2="98.328" gradientUnits="userSpaceOnUse">
<stop stop-color="#08B3F3"/>
<stop offset="0.89253" stop-color="#1E71B5"/>
<stop offset="1" stop-color="#1E71B5"/>
</linearGradient>
<linearGradient id="paint34_linear_2012_4485" x1="450.988" y1="258.411" x2="450.988" y2="68.4283" gradientUnits="userSpaceOnUse">
<stop stop-color="#08B3F3"/>
<stop offset="0.89253" stop-color="#1E71B5"/>
<stop offset="1" stop-color="#1E71B5"/>
</linearGradient>
<linearGradient id="paint35_linear_2012_4485" x1="435.587" y1="268.279" x2="435.587" y2="79.5825" gradientUnits="userSpaceOnUse">
<stop stop-color="#08B3F3"/>
<stop offset="0.89253" stop-color="#1E71B5"/>
<stop offset="1" stop-color="#1E71B5"/>
</linearGradient>
<linearGradient id="paint36_linear_2012_4485" x1="679.846" y1="292.983" x2="679.846" y2="87.1591" gradientUnits="userSpaceOnUse">
<stop stop-color="#08B3F3"/>
<stop offset="0.89253" stop-color="#1E71B5"/>
<stop offset="1" stop-color="#1E71B5"/>
</linearGradient>
<linearGradient id="paint37_linear_2012_4485" x1="646.38" y1="290.709" x2="646.38" y2="100.622" gradientUnits="userSpaceOnUse">
<stop stop-color="#08B3F3"/>
<stop offset="0.89253" stop-color="#1E71B5"/>
<stop offset="1" stop-color="#1E71B5"/>
</linearGradient>
<linearGradient id="paint38_linear_2012_4485" x1="440.068" y1="310.414" x2="440.068" y2="125.988" gradientUnits="userSpaceOnUse">
<stop stop-color="#08B3F3"/>
<stop offset="0.89253" stop-color="#1E71B5"/>
<stop offset="1" stop-color="#1E71B5"/>
</linearGradient>
<linearGradient id="paint39_linear_2012_4485" x1="405.742" y1="296.748" x2="405.742" y2="115.268" gradientUnits="userSpaceOnUse">
<stop stop-color="#08B3F3"/>
<stop offset="0.89253" stop-color="#1E71B5"/>
<stop offset="1" stop-color="#1E71B5"/>
</linearGradient>
<linearGradient id="paint40_linear_2012_4485" x1="440.049" y1="233.531" x2="440.049" y2="49.0245" gradientUnits="userSpaceOnUse">
<stop stop-color="#08B3F3"/>
<stop offset="0.89253" stop-color="#1E71B5"/>
<stop offset="1" stop-color="#1E71B5"/>
</linearGradient>
<linearGradient id="paint41_linear_2012_4485" x1="478.781" y1="260.613" x2="478.781" y2="47.0203" gradientUnits="userSpaceOnUse">
<stop stop-color="#08B3F3"/>
<stop offset="0.89253" stop-color="#1E71B5"/>
<stop offset="1" stop-color="#1E71B5"/>
</linearGradient>
<linearGradient id="paint42_linear_2012_4485" x1="524.474" y1="314.038" x2="524.474" y2="100.465" gradientUnits="userSpaceOnUse">
<stop stop-color="#08B3F3"/>
<stop offset="0.89253" stop-color="#1E71B5"/>
<stop offset="1" stop-color="#1E71B5"/>
</linearGradient>
<linearGradient id="paint43_linear_2012_4485" x1="478.208" y1="299.384" x2="478.208" y2="108.686" gradientUnits="userSpaceOnUse">
<stop stop-color="#08B3F3"/>
<stop offset="0.89253" stop-color="#1E71B5"/>
<stop offset="1" stop-color="#1E71B5"/>
</linearGradient>
<linearGradient id="paint44_linear_2012_4485" x1="490.865" y1="225.946" x2="490.865" y2="40.2837" gradientUnits="userSpaceOnUse">
<stop stop-color="#08B3F3"/>
<stop offset="0.89253" stop-color="#1E71B5"/>
<stop offset="1" stop-color="#1E71B5"/>
</linearGradient>
<linearGradient id="paint45_linear_2012_4485" x1="572.933" y1="314.029" x2="572.933" y2="100.407" gradientUnits="userSpaceOnUse">
<stop stop-color="#08B3F3"/>
<stop offset="0.89253" stop-color="#1E71B5"/>
<stop offset="1" stop-color="#1E71B5"/>
</linearGradient>
<linearGradient id="paint46_linear_2012_4485" x1="657.302" y1="310.424" x2="657.302" y2="126.082" gradientUnits="userSpaceOnUse">
<stop stop-color="#08B3F3"/>
<stop offset="0.89253" stop-color="#1E71B5"/>
<stop offset="1" stop-color="#1E71B5"/>
</linearGradient>
<linearGradient id="paint47_linear_2012_4485" x1="618.592" y1="310.604" x2="618.592" y2="97.0205" gradientUnits="userSpaceOnUse">
<stop stop-color="#08B3F3"/>
<stop offset="0.89253" stop-color="#1E71B5"/>
<stop offset="1" stop-color="#1E71B5"/>
</linearGradient>
<linearGradient id="paint48_linear_2012_4485" x1="389.665" y1="261.401" x2="389.665" y2="80.0191" gradientUnits="userSpaceOnUse">
<stop stop-color="#08B3F3"/>
<stop offset="0.89253" stop-color="#1E71B5"/>
<stop offset="1" stop-color="#1E71B5"/>
</linearGradient>
<linearGradient id="paint49_linear_2012_4485" x1="619.181" y1="299.405" x2="619.181" y2="108.478" gradientUnits="userSpaceOnUse">
<stop stop-color="#08B3F3"/>
<stop offset="0.89253" stop-color="#1E71B5"/>
<stop offset="1" stop-color="#1E71B5"/>
</linearGradient>
<linearGradient id="paint50_linear_2012_4485" x1="655.664" y1="303.789" x2="655.664" y2="91.9721" gradientUnits="userSpaceOnUse">
<stop stop-color="#08B3F3"/>
<stop offset="0.89253" stop-color="#1E71B5"/>
<stop offset="1" stop-color="#1E71B5"/>
</linearGradient>
<linearGradient id="paint51_linear_2012_4485" x1="584.131" y1="304.929" x2="584.131" y2="113.927" gradientUnits="userSpaceOnUse">
<stop stop-color="#08B3F3"/>
<stop offset="0.89253" stop-color="#1E71B5"/>
<stop offset="1" stop-color="#1E71B5"/>
</linearGradient>
<linearGradient id="paint52_linear_2012_4485" x1="691.631" y1="296.73" x2="691.631" y2="115.451" gradientUnits="userSpaceOnUse">
<stop stop-color="#08B3F3"/>
<stop offset="0.89253" stop-color="#1E71B5"/>
<stop offset="1" stop-color="#1E71B5"/>
</linearGradient>
<linearGradient id="paint53_linear_2012_4485" x1="478.805" y1="310.613" x2="478.805" y2="97.0305" gradientUnits="userSpaceOnUse">
<stop stop-color="#08B3F3"/>
<stop offset="0.89253" stop-color="#1E71B5"/>
<stop offset="1" stop-color="#1E71B5"/>
</linearGradient>
<linearGradient id="paint54_linear_2012_4485" x1="548.739" y1="306.838" x2="548.739" y2="115.44" gradientUnits="userSpaceOnUse">
<stop stop-color="#08B3F3"/>
<stop offset="0.89253" stop-color="#1E71B5"/>
<stop offset="1" stop-color="#1E71B5"/>
</linearGradient>
</defs>
</svg>
