<svg width="16" height="16" viewBox="0 0 16 16" fill="none" xmlns="http://www.w3.org/2000/svg">
<path fill-rule="evenodd" clip-rule="evenodd" d="M8.26098 1.16724C4.53778 1.16724 1.51953 4.18548 1.51953 7.90868C1.51953 11.6319 4.53778 14.6501 8.26098 14.6501C8.52074 14.6501 8.73131 14.4396 8.73131 14.1798C8.73131 13.92 8.52074 13.7095 8.26098 13.7095C7.70895 13.7095 7.17492 13.6324 6.66909 13.4883C6.97226 12.8656 6.84306 12.2036 6.65337 11.6599C6.48593 11.1801 6.42202 10.9917 6.38915 10.7719C6.35483 10.5424 6.35356 10.2734 6.35356 9.63438C6.35356 9.01334 6.28487 8.40974 5.81439 8.02448C5.58835 7.83939 5.30998 7.7395 5.00693 7.68273C4.70458 7.6261 4.3446 7.60655 3.92687 7.60655C3.39387 7.60655 2.91101 7.39013 2.51604 7.10055C2.82899 4.85534 4.42709 3.02161 6.5432 2.36646C6.5294 2.54271 6.5365 2.71884 6.56616 2.88988C6.65232 3.3867 6.93517 3.85479 7.45369 4.10647C7.65138 4.20243 7.73084 4.29931 7.77457 4.38022C7.82707 4.47733 7.85292 4.59494 7.88198 4.79022C7.88508 4.81109 7.88818 4.83274 7.89137 4.8551C7.94475 5.22881 8.02632 5.79982 8.65728 6.20816C9.08339 6.48393 9.61667 6.58288 10.1818 6.41658C10.7363 6.25343 11.2829 5.84759 11.7925 5.18788C12.1067 4.78122 12.5325 4.57282 12.9411 4.48081C13.6456 5.44114 14.0618 6.62632 14.0618 7.90868C14.0618 8.16844 14.2723 8.37902 14.5321 8.37902C14.7919 8.37902 15.0024 8.16844 15.0024 7.90868C15.0024 4.18548 11.9841 1.16724 8.26098 1.16724ZM12.2617 3.70831C11.2209 2.71667 9.81203 2.1079 8.26098 2.1079C8.01485 2.1079 7.7723 2.12323 7.53423 2.15299C7.47551 2.35388 7.46271 2.55453 7.49299 2.72914C7.53672 2.98126 7.66366 3.16277 7.86444 3.26022C8.21857 3.43211 8.4542 3.65932 8.60209 3.93292C8.74122 4.19031 8.78351 4.4576 8.8124 4.65178L8.81486 4.66834C8.87398 5.06595 8.90062 5.24517 9.16837 5.41845C9.36913 5.54838 9.61945 5.60151 9.91627 5.51417C10.2238 5.42369 10.6175 5.1702 11.0481 4.61278C11.3982 4.15967 11.8314 3.87768 12.2617 3.70831ZM2.46621 8.17513C2.56577 10.3773 3.89321 12.2596 5.78013 13.1537C5.9668 12.848 5.94216 12.477 5.76521 11.9698L5.75267 11.9339C5.60134 11.5003 5.50617 11.2276 5.45882 10.911C5.41284 10.6035 5.41286 10.2597 5.41289 9.68096L5.41289 9.63438C5.41289 9.00942 5.31856 8.83427 5.21843 8.75228C5.15917 8.70375 5.05035 8.64789 4.83374 8.60732C4.61643 8.56661 4.32429 8.54722 3.92687 8.54722C3.37791 8.54722 2.88573 8.39376 2.46621 8.17513Z" fill="white" style="fill:white;fill-opacity:1;"/>
<path fill-rule="evenodd" clip-rule="evenodd" d="M13.8579 12.8548C14.2258 12.3562 14.4432 11.7401 14.4432 11.0731C14.4432 9.41111 13.0935 8.06546 11.4305 8.06546C9.76751 8.06546 8.41776 9.41111 8.41776 11.0731C8.41776 12.735 9.76751 14.0806 11.4305 14.0806C12.0864 14.0806 12.6936 13.8713 13.1885 13.5158L14.2019 14.5148C14.3869 14.6971 14.6847 14.695 14.8671 14.51C15.0494 14.325 15.0473 14.0272 14.8623 13.8448L13.8579 12.8548ZM11.4305 9.00613C10.2852 9.00613 9.35842 9.93242 9.35842 11.0731C9.35842 12.2137 10.2852 13.14 11.4305 13.14C11.9978 13.14 12.5114 12.9127 12.8854 12.5447C13.2665 12.1698 13.5026 11.6487 13.5026 11.0731C13.5026 9.93242 12.5758 9.00613 11.4305 9.00613Z" fill="white" style="fill:white;fill-opacity:1;"/>
</svg>
