<svg width="14" height="14" viewBox="0 0 14 14" fill="none" xmlns="http://www.w3.org/2000/svg">
<path fill-rule="evenodd" clip-rule="evenodd" d="M7.26147 0.167236C3.53827 0.167236 0.52002 3.18548 0.52002 6.90868C0.52002 10.6319 3.53827 13.6501 7.26147 13.6501C7.52123 13.6501 7.7318 13.4396 7.7318 13.1798C7.7318 12.92 7.52123 12.7095 7.26147 12.7095C6.70943 12.7095 6.17541 12.6324 5.66958 12.4883C5.97274 11.8656 5.84355 11.2036 5.65385 10.6599C5.48642 10.1801 5.42251 9.99171 5.38963 9.77189C5.35532 9.54242 5.35405 9.27338 5.35405 8.63438C5.35405 8.01334 5.28535 7.40974 4.81488 7.02448C4.58884 6.83939 4.31047 6.7395 4.00742 6.68273C3.70506 6.6261 3.34509 6.60655 2.92736 6.60655C2.39436 6.60655 1.9115 6.39013 1.51653 6.10055C1.82948 3.85534 3.42757 2.02161 5.54369 1.36646C5.52989 1.54271 5.53699 1.71884 5.56665 1.88988C5.65281 2.3867 5.93566 2.85479 6.45418 3.10647C6.65187 3.20243 6.73133 3.29931 6.77506 3.38022C6.82755 3.47733 6.85341 3.59494 6.88247 3.79022C6.88557 3.81109 6.88866 3.83274 6.89186 3.8551C6.94524 4.22881 7.02681 4.79982 7.65777 5.20816C8.08388 5.48393 8.61716 5.58288 9.18229 5.41658C9.73676 5.25343 10.2833 4.84759 10.793 4.18788C11.1072 3.78122 11.5329 3.57282 11.9416 3.48081C12.6461 4.44114 13.0622 5.62632 13.0622 6.90868C13.0622 7.16844 13.2728 7.37902 13.5326 7.37902C13.7923 7.37902 14.0029 7.16844 14.0029 6.90868C14.0029 3.18548 10.9846 0.167236 7.26147 0.167236ZM11.2622 2.70831C10.2214 1.71667 8.81252 1.1079 7.26147 1.1079C7.01534 1.1079 6.77278 1.12323 6.53472 1.15299C6.476 1.35388 6.4632 1.55453 6.49348 1.72914C6.53721 1.98126 6.66415 2.16277 6.86493 2.26022C7.21905 2.43211 7.45469 2.65932 7.60257 2.93292C7.7417 3.19031 7.784 3.4576 7.81289 3.65178L7.81535 3.66834C7.87446 4.06595 7.90111 4.24517 8.16886 4.41845C8.36962 4.54838 8.61994 4.60151 8.91676 4.51417C9.22424 4.42369 9.61798 4.1702 10.0486 3.61278C10.3987 3.15967 10.8319 2.87768 11.2622 2.70831ZM1.4667 7.17513C1.56626 9.37729 2.8937 11.2596 4.78062 12.1537C4.96728 11.848 4.94265 11.477 4.7657 10.9698L4.75316 10.9339C4.60183 10.5003 4.50666 10.2276 4.45931 9.911C4.41333 9.60351 4.41335 9.25966 4.41338 8.68096L4.41338 8.63438C4.41338 8.00942 4.31905 7.83427 4.21892 7.75228C4.15966 7.70375 4.05083 7.64789 3.83423 7.60732C3.61692 7.56661 3.32478 7.54722 2.92736 7.54722C2.3784 7.54722 1.88622 7.39376 1.4667 7.17513Z" fill="#1A1A1A" style="fill:#1A1A1A;fill:color(display-p3 0.1020 0.1020 0.1020);fill-opacity:1;"/>
<path fill-rule="evenodd" clip-rule="evenodd" d="M12.8584 11.8548C13.2263 11.3562 13.4437 10.7401 13.4437 10.0731C13.4437 8.41111 12.094 7.06546 10.431 7.06546C8.76799 7.06546 7.41825 8.41111 7.41825 10.0731C7.41825 11.735 8.76799 13.0806 10.431 13.0806C11.0869 13.0806 11.6941 12.8713 12.189 12.5158L13.2024 13.5148C13.3874 13.6971 13.6852 13.695 13.8675 13.51C14.0499 13.325 14.0478 13.0272 13.8628 12.8448L12.8584 11.8548ZM10.431 8.00613C9.28571 8.00613 8.35891 8.93242 8.35891 10.0731C8.35891 11.2137 9.28571 12.14 10.431 12.14C10.9983 12.14 11.5119 11.9127 11.8859 11.5447C12.267 11.1698 12.5031 10.6487 12.5031 10.0731C12.5031 8.93242 11.5763 8.00613 10.431 8.00613Z" fill="#1A1A1A" style="fill:#1A1A1A;fill:color(display-p3 0.1020 0.1020 0.1020);fill-opacity:1;"/>
</svg>
