<svg width="24" height="23" viewBox="0 0 24 23" fill="none" xmlns="http://www.w3.org/2000/svg">
<path fill-rule="evenodd" clip-rule="evenodd" d="M17.5779 0.322763C16.6453 0.246571 15.485 0.246582 14.0051 0.246582H9.61705C8.1371 0.246582 6.97682 0.246571 6.04428 0.322763C5.09468 0.400347 4.31021 0.560952 3.60015 0.922739C2.43286 1.5175 1.48381 2.46655 0.889048 3.63384C0.52726 4.34391 0.366655 5.12839 0.289072 6.07797C0.21288 7.01051 0.212891 8.1708 0.212891 9.65074V14.2489C0.212891 16.9432 2.39702 19.1273 5.09131 19.1273H5.74053C6.00864 19.1273 6.19197 19.3981 6.09239 19.647C5.35156 21.4992 7.48456 23.1735 9.10778 22.0141L11.9244 20.0022L11.9775 19.9644C12.7424 19.4255 13.6537 19.1334 14.5893 19.1274L14.6544 19.1273H15.405C17.0758 19.1275 18.095 19.1278 18.9511 18.8767C20.9786 18.2822 22.5641 16.6967 23.1586 14.6692C23.4097 13.8131 23.4094 12.794 23.4092 11.1232V9.65072C23.4092 8.17081 23.4092 7.01049 23.333 6.07797C23.2555 5.12837 23.0948 4.34391 22.7331 3.63384C22.1383 2.46655 21.1893 1.5175 20.0219 0.922739C19.3119 0.560952 18.5274 0.400347 17.5779 0.322763ZM4.33487 2.3647C4.77876 2.13853 5.32655 2.00514 6.17605 1.93574C7.03501 1.86556 8.1293 1.86493 9.65326 1.86493H13.9689C15.4928 1.86493 16.5871 1.86556 17.446 1.93574C18.2956 2.00514 18.8433 2.13853 19.2873 2.3647C20.15 2.80431 20.8515 3.50577 21.2911 4.36856C21.5173 4.81245 21.6506 5.36024 21.7201 6.20974C21.7902 7.0687 21.7909 8.16299 21.7909 9.68695V10.9646C21.7909 12.8439 21.7827 13.6102 21.6056 14.2138C21.1662 15.7124 19.9943 16.8843 18.4957 17.3237C17.8921 17.5008 17.1258 17.509 15.2465 17.509H14.6544L14.579 17.5091C13.3131 17.5172 12.08 17.9124 11.0453 18.6415L8.16713 20.6972C7.85915 20.9172 7.45443 20.5995 7.595 20.2481C8.11979 18.9361 7.15357 17.509 5.74053 17.509H5.09131C3.29082 17.509 1.83124 16.0494 1.83124 14.2489V9.68695C1.83124 8.16299 1.83186 7.0687 1.90205 6.20974C1.97145 5.36024 2.10484 4.81245 2.33101 4.36856C2.77061 3.50577 3.47208 2.80431 4.33487 2.3647Z" fill="#303E7C" style="fill:#303E7C;fill:color(display-p3 0.1882 0.2431 0.4863);fill-opacity:1;"/>
<path d="M8.57479 9.68657C8.57479 10.2824 8.09175 10.7655 7.49589 10.7655C6.90004 10.7655 6.41699 10.2824 6.41699 9.68657C6.41699 9.09071 6.90004 8.60767 7.49589 8.60767C8.09175 8.60767 8.57479 9.09071 8.57479 9.68657Z" fill="#303E7C" style="fill:#303E7C;fill:color(display-p3 0.1882 0.2431 0.4863);fill-opacity:1;"/>
<path d="M12.8892 9.68657C12.8892 10.2824 12.4062 10.7655 11.8103 10.7655C11.2145 10.7655 10.7314 10.2824 10.7314 9.68657C10.7314 9.09071 11.2145 8.60767 11.8103 8.60767C12.4062 8.60767 12.8892 9.09071 12.8892 9.68657Z" fill="#303E7C" style="fill:#303E7C;fill:color(display-p3 0.1882 0.2431 0.4863);fill-opacity:1;"/>
<path d="M17.2037 9.68657C17.2037 10.2824 16.7207 10.7655 16.1248 10.7655C15.5289 10.7655 15.0459 10.2824 15.0459 9.68657C15.0459 9.09071 15.5289 8.60767 16.1248 8.60767C16.7207 8.60767 17.2037 9.09071 17.2037 9.68657Z" fill="#303E7C" style="fill:#303E7C;fill:color(display-p3 0.1882 0.2431 0.4863);fill-opacity:1;"/>
</svg>
