<svg width="25" height="25" viewBox="0 0 25 25" fill="none" xmlns="http://www.w3.org/2000/svg">
<path d="M12.7705 0C19.5138 0 25 5.48622 25 12.2296C25 18.9728 19.5138 24.459 12.7705 24.459C6.02716 24.459 0.541016 18.9728 0.541016 12.2296C0.541016 5.48622 6.02716 0 12.7705 0Z" fill="#303E7C" style="fill:#303E7C;fill:color(display-p3 0.1882 0.2431 0.4863);fill-opacity:1;"/>
<path d="M11.2419 6.99624C11.6761 6.56213 12.38 6.56213 12.8142 6.99624C13.2484 7.43035 13.2484 8.13432 12.8142 8.5685L10.2649 11.1178L17.9576 11.1182C18.5716 11.1182 19.0694 11.6161 19.0693 12.2301C19.0693 12.8441 18.5715 13.3418 17.9575 13.3418L10.2652 13.3413L12.8143 15.8905C13.2485 16.3246 13.2485 17.0286 12.8143 17.4628C12.5972 17.6798 12.3127 17.7884 12.0282 17.7884C11.7436 17.7884 11.4591 17.6798 11.2421 17.4628L6.795 13.0156C6.58629 12.807 6.46918 12.5243 6.46918 12.2293C6.46918 11.9344 6.58636 11.6517 6.79486 11.4433L11.2419 6.99624Z" fill="white" style="fill:white;fill-opacity:1;"/>
</svg>
