<svg width="20" height="20" viewBox="0 0 20 20" fill="none" xmlns="http://www.w3.org/2000/svg">
<path d="M10 0C15.514 0 20 4.48606 20 10.0001C20 15.514 15.514 20 10 20C4.486 20 0 15.514 0 10.0001C0 4.48606 4.486 0 10 0Z" fill="white" style="fill:white;fill-opacity:1;"/>
<path d="M8.74997 5.72131C9.10494 5.36634 9.68057 5.36634 10.0356 5.72131C10.3906 6.07628 10.3906 6.65191 10.0356 7.00694L7.95106 9.09149L14.2414 9.09185C14.7434 9.09185 15.1505 9.49894 15.1504 10.001C15.1504 10.5031 14.7433 10.91 14.2412 10.91L7.9513 10.9097L10.0357 12.9941C10.3907 13.3491 10.3907 13.9247 10.0357 14.2797C9.85815 14.4572 9.62554 14.546 9.39288 14.546C9.16021 14.546 8.92754 14.4572 8.75009 14.2797L5.11373 10.6433C4.94306 10.4727 4.8473 10.2415 4.8473 10.0004C4.8473 9.75924 4.94312 9.52803 5.1136 9.35761L8.74997 5.72131Z" fill="#303E7C" style="fill:#303E7C;fill:color(display-p3 0.1882 0.2431 0.4863);fill-opacity:1;"/>
</svg>
