<svg width="16" height="15" viewBox="0 0 16 15" fill="none" xmlns="http://www.w3.org/2000/svg">
<g clip-path="url(#clip0_300_13912)">
<path d="M9.06742 7.29003L6.41116 9.94629C6.17803 10.1788 5.85615 10.3125 5.5274 10.3125H5.16115V9.94629C5.16115 9.61253 5.29115 9.29878 5.5274 9.06253L8.18366 6.40627L9.06742 7.29003ZM9.71929 4.87064L9.06742 5.52252L9.95117 6.40627L10.603 5.7544C10.8468 5.51064 10.8468 5.11439 10.603 4.87064C10.3668 4.63377 9.95492 4.63377 9.71929 4.87064ZM15.1612 3.12501V11.875C15.1612 13.5982 13.7593 15.0001 12.0362 15.0001H3.28614C1.56301 15.0001 0.161133 13.5982 0.161133 11.875V3.12501C0.161133 1.40188 1.56301 0 3.28614 0H12.0362C13.7593 0 15.1612 1.40188 15.1612 3.12501ZM11.4874 3.98689C10.7787 3.27876 9.54367 3.27876 8.83554 3.98689L4.64365 8.17878C4.17177 8.65066 3.91115 9.27878 3.91115 9.94629V10.9375C3.91115 11.2832 4.19115 11.5625 4.53615 11.5625H5.5274C6.1949 11.5625 6.82303 11.3025 7.29491 10.83L11.4868 6.63815C12.2181 5.9069 12.2187 4.71814 11.4874 3.98689Z" fill="#979797" style="fill:#979797;fill:color(display-p3 0.5922 0.5922 0.5922);fill-opacity:1;"/>
</g>
<defs>
<clipPath id="clip0_300_13912">
<rect width="15.0001" height="15.0001" fill="white" style="fill:white;fill-opacity:1;" transform="translate(0.161133)"/>
</clipPath>
</defs>
</svg>
