<svg width="22" height="22" viewBox="0 0 22 22" fill="none" xmlns="http://www.w3.org/2000/svg">
<g clip-path="url(#clip0_131_6197)">
<path d="M19.7846 15.6179C19.7501 15.5893 15.8435 12.8098 14.7886 12.9798C14.2798 13.0698 13.9892 13.417 13.4061 14.1116C13.3122 14.2236 13.0862 14.4914 12.9116 14.6823C12.543 14.5622 12.1835 14.4159 11.8359 14.2445C10.0412 13.3708 8.59118 11.9208 7.71748 10.1261C7.54603 9.77845 7.39971 9.41897 7.27964 9.05041C7.47119 8.87515 7.73963 8.64906 7.8543 8.55264C8.54558 7.97277 8.8922 7.68153 8.98211 7.17202C9.1665 6.11718 6.3727 2.21185 6.34403 2.17667C6.2168 1.99623 6.05109 1.84629 5.85887 1.73767C5.66665 1.62906 5.45272 1.56447 5.2325 1.54858C4.10013 1.54858 0.867188 5.74189 0.867188 6.44881C0.867188 6.48986 0.926478 10.6623 6.07169 15.8961C11.2996 21.0355 15.4721 21.0948 15.5131 21.0948C16.2194 21.0948 20.4134 17.8618 20.4134 16.7295C20.3973 16.5092 20.3326 16.2953 20.2239 16.1031C20.1152 15.9109 19.9651 15.7452 19.7846 15.6179ZM15.4408 19.7878C14.8753 19.7396 11.37 19.2776 6.99166 14.9768C2.67 10.577 2.21978 7.06582 2.17483 6.52179C3.02885 5.18134 4.06025 3.96255 5.24097 2.89857C5.26704 2.92464 5.30157 2.96373 5.34587 3.01455C6.2514 4.25067 7.03145 5.57397 7.67447 6.96483C7.46537 7.1752 7.24435 7.37338 7.01251 7.55839C6.65299 7.83233 6.32284 8.14282 6.02738 8.48488C5.97739 8.55502 5.9418 8.63438 5.92268 8.71837C5.90355 8.80236 5.90127 8.88931 5.91597 8.97418C6.05385 9.57147 6.26503 10.1494 6.5447 10.6949C7.5467 12.7525 9.20935 14.4149 11.2671 15.4166C11.8124 15.6967 12.3904 15.9081 12.9878 16.046C13.0726 16.061 13.1597 16.0589 13.2437 16.0398C13.3277 16.0206 13.4071 15.9849 13.4771 15.9346C13.8203 15.6379 14.1319 15.3065 14.4068 14.9455C14.6114 14.7019 14.8844 14.3767 14.988 14.2849C16.3824 14.9273 17.7087 15.7083 18.9468 16.6161C19.0008 16.6617 19.0393 16.6969 19.0647 16.7197C18.0007 17.9008 16.7816 18.9324 15.4408 19.7865V19.7878Z" fill="white" style="fill:white;fill-opacity:1;"/>
<path d="M15.2012 10.6698H16.5043C16.5028 9.28792 15.9531 7.96305 14.9759 6.98589C13.9988 6.00872 12.6739 5.45907 11.292 5.45752V6.7606C12.3285 6.76163 13.3222 7.17383 14.0551 7.90673C14.788 8.63963 15.2002 9.63336 15.2012 10.6698Z" fill="white" style="fill:white;fill-opacity:1;"/>
<path d="M18.4589 10.6702H19.762C19.7594 8.42462 18.8662 6.27174 17.2783 4.68386C15.6905 3.09599 13.5376 2.20278 11.292 2.2002V3.50327C13.1921 3.50552 15.0137 4.26132 16.3573 5.6049C17.7009 6.94847 18.4567 8.77011 18.4589 10.6702Z" fill="white" style="fill:white;fill-opacity:1;"/>
</g>
<defs>
<clipPath id="clip0_131_6197">
<rect width="20.8493" height="20.8493" fill="white" style="fill:white;fill-opacity:1;" transform="translate(0.21582 0.896973)"/>
</clipPath>
</defs>
</svg>
