<svg width="21" height="21" viewBox="0 0 21 21" fill="none" xmlns="http://www.w3.org/2000/svg">
<g clip-path="url(#clip0_628_12789)">
<path d="M20.291 18.7903L18.7685 10.4024C18.7534 10.3187 18.7014 10.2461 18.627 10.2048L14.795 8.07345C14.7453 8.04574 14.6895 8.03473 14.6348 8.03897L15.3319 17.0324L15.3086 17.0428L19.8946 19.1003C19.9319 19.1169 19.9716 19.1252 20.0111 19.1252C20.0736 19.1252 20.1355 19.1046 20.1864 19.0648C20.2696 18.9998 20.3098 18.8942 20.291 18.7903Z" fill="#44C868" style="fill:#44C868;fill:color(display-p3 0.2667 0.7843 0.4078);fill-opacity:1;"/>
<path d="M10.6067 10.1111L6.68755 8.06978C6.64058 8.04529 6.5885 8.0353 6.53721 8.03875C6.5508 8.03791 6.56447 8.03799 6.57802 8.03905L5.88086 17.0325L10.4903 19.1004C10.5275 19.117 10.5672 19.1253 10.6067 19.1253V10.1111Z" fill="#44C868" style="fill:#44C868;fill:color(display-p3 0.2667 0.7843 0.4078);fill-opacity:1;"/>
<path d="M6.57879 8.03994C6.52402 8.0357 6.46827 8.04672 6.41854 8.07439L2.5865 10.2057C2.51209 10.2471 2.46016 10.3196 2.44498 10.4033L0.922544 18.7913C0.903695 18.8951 0.943967 19.0007 1.02712 19.0658C1.07811 19.1056 1.13999 19.1262 1.20244 19.1262C1.24192 19.1262 1.28163 19.118 1.31891 19.1012L5.87997 17.055L6.57879 8.03994Z" fill="#4CE166" style="fill:#4CE166;fill:color(display-p3 0.2980 0.8824 0.4000);fill-opacity:1;"/>
<path d="M14.6361 8.04004C14.5984 8.04295 14.5611 8.05298 14.5266 8.071L10.6074 10.1122V19.1265H10.6075C10.647 19.1265 10.6868 19.1182 10.7239 19.1016L15.3333 17.0337L14.6361 8.04004Z" fill="#4CE166" style="fill:#4CE166;fill:color(display-p3 0.2980 0.8824 0.4000);fill-opacity:1;"/>
<path d="M1.9831 12.9449L1.67383 14.6488L6.25344 12.23L6.35976 10.8583L6.3774 10.6309L1.9831 12.9449Z" fill="#FFDB56" style="fill:#FFDB56;fill:color(display-p3 1.0000 0.8588 0.3373);fill-opacity:1;"/>
<path d="M6.29515 11.6982L6.25393 12.2301L1.67432 14.6489L0.922544 18.791C0.903695 18.8948 0.943967 19.0004 1.02712 19.0655C1.07811 19.1053 1.13999 19.1259 1.20244 19.1259C1.24192 19.1259 1.28163 19.1177 1.31891 19.1009L5.87997 17.0547L6.29515 11.6982Z" fill="#A8EEFC" style="fill:#A8EEFC;fill:color(display-p3 0.6588 0.9333 0.9882);fill-opacity:1;"/>
<path d="M10.6087 11.2358L6.37786 10.6309L6.25391 12.23L10.6075 18.8416V16.4374L8.00961 12.3467L10.6087 12.6575V11.2358Z" fill="#FFBB24" style="fill:#FFBB24;fill:color(display-p3 1.0000 0.7333 0.1412);fill-opacity:1;"/>
<path d="M18.3257 10.0375L16.4849 9.01367L14.7422 9.42086L14.764 9.70231L14.8501 10.8126L18.3257 10.0375Z" fill="#FFBB24" style="fill:#FFBB24;fill:color(display-p3 1.0000 0.7333 0.1412);fill-opacity:1;"/>
<path d="M15.0065 12.8065L14.8414 10.6775L14.7441 9.4209L10.6094 11.2359V12.6576L13.3102 11.4831L15.0065 12.8065Z" fill="#FFDB56" style="fill:#FFDB56;fill:color(display-p3 1.0000 0.8588 0.3373);fill-opacity:1;"/>
<path d="M20.2929 18.7908L19.9105 16.6838L14.8516 10.8125L15.0061 12.8064L20.1942 19.06C20.2731 18.9946 20.3112 18.8919 20.2929 18.7908Z" fill="#FFBB24" style="fill:#FFBB24;fill:color(display-p3 1.0000 0.7333 0.1412);fill-opacity:1;"/>
<path d="M10.6253 1.82617C8.43137 1.82617 6.64648 3.60958 6.64648 5.8017C6.64648 7.15771 7.29027 8.61357 8.56002 10.1288C9.49261 11.2417 10.4125 11.9575 10.4512 11.9874C10.5025 12.027 10.5639 12.0468 10.6253 12.0468C10.6867 12.0468 10.7481 12.027 10.7994 11.9874C10.8381 11.9575 11.758 11.2417 12.6906 10.1288C13.9603 8.61357 14.6041 7.15775 14.6041 5.8017C14.604 3.60958 12.8192 1.82617 10.6253 1.82617ZM12.0988 5.80166C12.0988 6.61475 11.439 7.27395 10.6253 7.27395C9.81149 7.27395 9.15177 6.61479 9.15177 5.80166C9.15177 4.98853 9.81149 4.32937 10.6253 4.32937C11.439 4.32937 12.0988 4.98857 12.0988 5.80166Z" fill="#FF4A4A" style="fill:#FF4A4A;fill:color(display-p3 1.0000 0.2902 0.2902);fill-opacity:1;"/>
<path d="M10.6245 1.82617C10.4507 1.82617 10.2794 1.83745 10.1113 1.85918C12.0637 2.11152 13.5769 3.78331 13.5769 5.8017C13.5769 7.15771 12.9332 8.61357 11.6634 10.1288C11.0637 10.8444 10.4696 11.3955 10.1114 11.7059C10.3102 11.8782 10.4367 11.9767 10.4505 11.9874C10.5017 12.027 10.5631 12.0468 10.6246 12.0468C10.686 12.0468 10.7474 12.027 10.7986 11.9874C10.8373 11.9575 11.7573 11.2417 12.6899 10.1288C13.9596 8.61357 14.6034 7.15775 14.6034 5.8017C14.6033 3.60958 12.8184 1.82617 10.6245 1.82617Z" fill="#E7343F" style="fill:#E7343F;fill:color(display-p3 0.9059 0.2039 0.2471);fill-opacity:1;"/>
<path d="M10.7239 19.1009L12.438 18.3319L10.6074 16.4375V19.1258H10.6075C10.647 19.1258 10.6867 19.1176 10.7239 19.1009Z" fill="#FFDB56" style="fill:#FFDB56;fill:color(display-p3 1.0000 0.8588 0.3373);fill-opacity:1;"/>
<path d="M18.7704 10.4035C18.7552 10.3198 18.7033 10.2472 18.6289 10.2059L18.3272 10.0381L14.8516 10.8131L19.9104 16.6845L18.7704 10.4035Z" fill="#1EA4E9" style="fill:#1EA4E9;fill:color(display-p3 0.1176 0.6431 0.9137);fill-opacity:1;"/>
<path d="M10.6068 19.1262C10.6068 19.1262 10.6068 19.1262 10.6068 19.1262V18.8421L6.25319 12.2305L5.88086 17.0334L10.4903 19.1013C10.5275 19.118 10.5672 19.1262 10.6068 19.1262Z" fill="#1EA4E9" style="fill:#1EA4E9;fill:color(display-p3 0.1176 0.6431 0.9137);fill-opacity:1;"/>
</g>
<defs>
<clipPath id="clip0_628_12789">
<rect width="19.3791" height="19.3791" fill="white" style="fill:white;fill-opacity:1;" transform="translate(0.917969 0.786133)"/>
</clipPath>
</defs>
</svg>
