<svg width="24" height="24" viewBox="0 0 24 24" fill="none" xmlns="http://www.w3.org/2000/svg">
<path fill-rule="evenodd" clip-rule="evenodd" d="M2.5 20.75C2.5 20.1977 2.94772 19.75 3.5 19.75H4.5L4.5 7.72048C4.49997 7.4348 4.49995 7.1683 4.52237 6.94323C4.54718 6.69409 4.60385 6.43405 4.75493 6.18029C4.90701 5.92488 5.10924 5.75215 5.31842 5.614C5.50499 5.49078 5.73727 5.37026 5.98214 5.24322L10.0621 3.12574C10.6661 2.81223 11.195 2.53768 11.6331 2.38887C12.0956 2.23177 12.6558 2.14478 13.1807 2.4815C13.6961 2.81212 13.8637 3.3517 13.9332 3.83733C14.0001 4.30519 14.0001 4.91448 14 5.61929V7.13182L18.3754 9.3195C18.6152 9.43933 18.8578 9.56058 19.0553 9.68627C19.2816 9.83027 19.5196 10.0222 19.7015 10.3165C19.8834 10.6109 19.9487 10.9096 19.9762 11.1764C20.0003 11.4093 20.0003 11.6805 20.0002 11.9485L20.0002 19.75H20.5C21.0523 19.75 21.5 20.1977 21.5 20.75C21.5 21.3023 21.0523 21.75 20.5 21.75H3.5C2.94772 21.75 2.5 21.3023 2.5 20.75ZM14 19.75L14 9.36789L17.4474 11.0916C17.7348 11.2353 17.8821 11.3103 17.9816 11.3736L17.9863 11.3766L17.9869 11.3821C17.999 11.4994 18.0002 11.6648 18.0002 11.986V19.75H14ZM8 9C8 8.58579 8.33579 8.25 8.75 8.25H9.75C10.1642 8.25 10.5 8.58579 10.5 9C10.5 9.41421 10.1642 9.75 9.75 9.75H8.75C8.33579 9.75 8 9.41421 8 9ZM8 13C8 12.5858 8.33579 12.25 8.75 12.25H9.75C10.1642 12.25 10.5 12.5858 10.5 13C10.5 13.4142 10.1642 13.75 9.75 13.75H8.75C8.33579 13.75 8 13.4142 8 13ZM8 17C8 16.5858 8.33579 16.25 8.75 16.25H9.75C10.1642 16.25 10.5 16.5858 10.5 17C10.5 17.4142 10.1642 17.75 9.75 17.75H8.75C8.33579 17.75 8 17.4142 8 17Z" fill="white" style="fill:white;fill-opacity:1;"/>
</svg>
