<svg width="12" height="12" viewBox="0 0 12 12" fill="none" xmlns="http://www.w3.org/2000/svg">
<path d="M6.2981 0.692383C5.2103 0.692383 4.14693 1.01495 3.24246 1.6193C2.33799 2.22365 1.63304 3.08263 1.21676 4.08762C0.800479 5.09262 0.69156 6.19848 0.903779 7.26538C1.116 8.33228 1.63982 9.31228 2.40901 10.0815C3.1782 10.8507 4.15821 11.3745 5.2251 11.5867C6.292 11.7989 7.39786 11.69 8.40286 11.2737C9.40785 10.8574 10.2668 10.1525 10.8712 9.24802C11.4755 8.34355 11.7981 7.28018 11.7981 6.19238C11.7964 4.73422 11.2164 3.33627 10.1853 2.3052C9.15421 1.27412 7.75626 0.694103 6.2981 0.692383ZM8.7981 6.69238H6.7981V8.69238C6.7981 8.82499 6.74542 8.95217 6.65165 9.04594C6.55788 9.13971 6.43071 9.19238 6.2981 9.19238C6.16549 9.19238 6.03831 9.13971 5.94454 9.04594C5.85078 8.95217 5.7981 8.82499 5.7981 8.69238V6.69238H3.7981C3.66549 6.69238 3.53831 6.63971 3.44454 6.54594C3.35078 6.45217 3.2981 6.32499 3.2981 6.19238C3.2981 6.05978 3.35078 5.9326 3.44454 5.83883C3.53831 5.74506 3.66549 5.69238 3.7981 5.69238H5.7981V3.69238C5.7981 3.55977 5.85078 3.4326 5.94454 3.33883C6.03831 3.24506 6.16549 3.19238 6.2981 3.19238C6.43071 3.19238 6.55788 3.24506 6.65165 3.33883C6.74542 3.4326 6.7981 3.55977 6.7981 3.69238V5.69238H8.7981C8.93071 5.69238 9.05788 5.74506 9.15165 5.83883C9.24542 5.9326 9.2981 6.05978 9.2981 6.19238C9.2981 6.32499 9.24542 6.45217 9.15165 6.54594C9.05788 6.63971 8.93071 6.69238 8.7981 6.69238Z" fill="white" style="fill:white;fill-opacity:1;"/>
</svg>
