<svg width="25" height="24" viewBox="0 0 25 24" fill="none" xmlns="http://www.w3.org/2000/svg">
<path d="M9.81592 13.875C9.8162 13.5643 10.0683 13.3122 10.3789 13.312L11.9396 13.3106L11.9409 11.7573C11.9412 11.4467 12.1933 11.1946 12.5039 11.1943C12.8146 11.1941 13.0662 11.4457 13.066 11.7563L13.0646 13.3096L14.6179 13.3083C14.9285 13.308 15.1802 13.5596 15.1799 13.8703C15.1796 14.181 14.9276 14.433 14.6169 14.4333L13.0636 14.4346L13.0623 15.9953C13.062 16.306 12.8099 16.558 12.4993 16.5583C12.1886 16.5586 11.937 16.307 11.9373 15.9963L11.9386 14.4356L10.3779 14.437C10.0673 14.4372 9.81566 14.1856 9.81592 13.875Z" fill="white" style="fill:white;fill-opacity:1;"/>
<path fill-rule="evenodd" clip-rule="evenodd" d="M13.1063 2.42745C12.7367 2.19085 12.2631 2.19085 11.8935 2.42745L2.51845 8.42745C1.99514 8.76237 1.84241 9.45812 2.17734 9.98144C2.51226 10.5048 3.208 10.6575 3.73133 10.3226L4.6249 9.75068V18.75C4.6249 20.4069 5.96804 21.75 7.6249 21.75H17.3749C19.0317 21.75 20.3749 20.4069 20.3749 18.75V9.75068L21.2684 10.3226C21.7917 10.6575 22.4875 10.5048 22.8224 9.98144C23.1574 9.45812 23.0046 8.76237 22.4813 8.42745L13.1063 2.42745ZM16.6249 13.875C16.6249 16.1532 14.7781 18 12.4999 18C10.2217 18 8.3749 16.1532 8.3749 13.875C8.3749 11.5968 10.2217 9.75 12.4999 9.75C14.7781 9.75 16.6249 11.5968 16.6249 13.875Z" fill="white" style="fill:white;fill-opacity:1;"/>
</svg>
