<svg width="19" height="19" viewBox="0 0 19 19" fill="none" xmlns="http://www.w3.org/2000/svg">
<path fill-rule="evenodd" clip-rule="evenodd" d="M12.5 4.76879H10.0625V5.29812C10.0736 5.30352 10.0846 5.30901 10.0955 5.31456C10.2487 5.39248 10.4183 5.50293 10.5977 5.61973L12.2001 6.66304C12.5192 6.87078 12.791 7.0477 13.0035 7.21666C13.23 7.39683 13.4215 7.59225 13.5617 7.85226C13.7017 8.11195 13.7601 8.3798 13.7871 8.66884C13.8125 8.94056 13.8125 9.26714 13.8125 9.65173V10.0562C13.8292 10.0605 13.8458 10.0654 13.8624 10.0709C13.936 10.0955 14.0097 10.1198 14.0829 10.1439C14.3735 10.2397 14.6568 10.3332 14.9033 10.4308C15.2172 10.5551 15.5377 10.7104 15.8137 10.9447C16.4274 11.4655 16.6252 12.199 16.6252 13.1541V16.0322H17C17.4142 16.0322 17.75 16.368 17.75 16.7822C17.75 17.1964 17.4142 17.5322 17 17.5322H15.8928L15.8752 17.5324L15.8576 17.5322H3.18072L3.16309 17.5324L3.14546 17.5322H2C1.58579 17.5322 1.25 17.1964 1.25 16.7822C1.25 16.368 1.58579 16.0322 2 16.0322H2.41309V13.1541C2.41309 12.199 2.61092 11.4655 3.22462 10.9447C3.50062 10.7104 3.82106 10.5551 4.13494 10.4308C4.38153 10.3332 4.66477 10.2397 4.95537 10.1439C5.02844 10.1198 5.10238 10.0954 5.17592 10.0709C5.17977 10.0696 5.18364 10.0684 5.1875 10.0672V9.65174C5.18749 9.26717 5.18748 8.94055 5.21287 8.66884C5.23988 8.3798 5.29831 8.11195 5.4383 7.85226C5.57846 7.59225 5.76999 7.39683 5.99653 7.21666C6.209 7.04769 6.48076 6.87077 6.79987 6.66303L8.40233 5.61975C8.58169 5.50294 8.75131 5.39248 8.90447 5.31456C8.91539 5.309 8.9264 5.30351 8.93751 5.29811L8.93751 2.67157C8.93745 2.51666 8.93738 2.34975 8.9562 2.20896C8.97819 2.04447 9.03467 1.83417 9.21093 1.65687C9.51104 1.35498 9.92897 1.39586 10.1367 1.43228C10.3919 1.47703 10.6664 1.57799 10.9143 1.68619C11.4169 1.9056 11.934 2.2105 12.2101 2.38056C12.9281 2.82261 13.0625 3.65357 13.0625 4.20629C13.0625 4.51695 12.8107 4.76879 12.5 4.76879ZM5.1875 11.6472C4.99868 11.7102 4.83586 11.7666 4.68728 11.8254C4.43475 11.9254 4.28904 12.0087 4.19526 12.0883C4.06939 12.1951 3.91309 12.3906 3.91309 13.1541V16.0322H5.1875V11.6472ZM7.4375 16.0322H8.56251V14.7197C8.56251 14.3503 8.5637 14.1298 8.58495 13.9717C8.60192 13.8455 8.63164 13.8209 8.752 13.8047C8.91005 13.7834 9.13055 13.7822 9.50001 13.7822C9.86946 13.7822 10.09 13.7834 10.248 13.8047C10.3684 13.8209 10.3981 13.8455 10.4151 13.9717C10.4363 14.1298 10.4375 14.3503 10.4375 14.7197V16.0322H11.5625L11.5625 14.6862C11.5625 14.3616 11.5626 14.0639 11.53 13.8218C11.4942 13.5552 11.4099 13.2734 11.1781 13.0417C10.9463 12.8099 10.6645 12.7256 10.3979 12.6897C10.1558 12.6572 9.85818 12.6572 9.53357 12.6572H9.46645C9.14183 12.6572 8.84421 12.6572 8.6021 12.6897C8.33549 12.7256 8.0537 12.8099 7.82193 13.0417C7.59016 13.2734 7.50583 13.5552 7.46998 13.8218C7.43743 14.0639 7.43747 14.3615 7.4375 14.6861L7.4375 16.0322ZM13.8125 16.0322H15.1252V13.1541C15.1252 12.3906 14.9689 12.1951 14.843 12.0883C14.7492 12.0087 14.6035 11.9254 14.351 11.8254C14.1925 11.7626 14.0177 11.7027 13.8125 11.6345V16.0322ZM9.49665 9.46973C9.08429 9.46973 8.75 9.80551 8.75 10.2197C8.75 10.6339 9.08429 10.9697 9.49665 10.9697H9.50335C9.91572 10.9697 10.25 10.6339 10.25 10.2197C10.25 9.80551 9.91572 9.46973 9.50335 9.46973H9.49665Z" fill="#161616" style="fill:#161616;fill:color(display-p3 0.0863 0.0863 0.0863);fill-opacity:1;"/>
</svg>
