<svg width="19" height="19" viewBox="0 0 19 19" fill="none" xmlns="http://www.w3.org/2000/svg">
<path d="M18.6235 3.51902L15.5247 15.9142C15.3493 16.6493 14.9294 17.303 14.3338 17.7682C13.7381 18.2334 13.0021 18.4824 12.2464 18.4744H12.2275C11.4667 18.4787 10.7274 18.2223 10.1326 17.7479C9.5379 17.2734 9.12357 16.6096 8.95865 15.8669L8.14616 12.4186L13.2289 7.33581C13.317 7.24773 13.3869 7.14315 13.4346 7.02806C13.4822 6.91297 13.5068 6.78961 13.5068 6.66504C13.5068 6.54046 13.4822 6.41711 13.4346 6.30202C13.3869 6.18693 13.317 6.08235 13.2289 5.99427C13.1408 5.90618 13.0363 5.8363 12.9212 5.78863C12.8061 5.74096 12.6827 5.71642 12.5581 5.71642C12.4336 5.71642 12.3102 5.74096 12.1951 5.78863C12.08 5.8363 11.9755 5.90618 11.8874 5.99427L6.80461 11.077L3.35627 10.2645C2.61833 10.0919 1.95988 9.67614 1.48682 9.08405C1.01376 8.49196 0.753586 7.75797 0.748134 7.00012C0.742682 6.24228 0.992271 5.50462 1.45676 4.90579C1.92125 4.30695 2.57365 3.88173 3.30903 3.69852L15.7042 0.599736C16.1075 0.49889 16.53 0.504204 16.9306 0.615162C17.3313 0.726119 17.6963 0.938938 17.9903 1.23289C18.2843 1.52685 18.4971 1.89192 18.608 2.29255C18.719 2.69318 18.7243 3.11572 18.6235 3.51902Z" fill="white" style="fill:white;fill-opacity:1;"/>
</svg>
