<svg width="12" height="11" viewBox="0 0 12 11" fill="none" xmlns="http://www.w3.org/2000/svg">
<path d="M4.28068 0.566651H4.3084C4.55237 0.566647 4.75604 0.566643 4.92325 0.578052C5.09731 0.589928 5.26172 0.615531 5.42112 0.681555C5.79099 0.834762 6.08485 1.12862 6.23806 1.4985C6.30408 1.6579 6.32969 1.82231 6.34156 1.99637C6.35297 2.16357 6.35297 2.36723 6.35296 2.61119V2.63894C6.35297 2.8829 6.35297 3.08658 6.34156 3.25378C6.32969 3.42784 6.30408 3.59225 6.23806 3.75165C6.08485 4.12153 5.79099 4.41539 5.42112 4.56859C5.26172 4.63462 5.09731 4.66022 4.92325 4.6721C4.75604 4.68351 4.55237 4.6835 4.3084 4.6835H4.28068C4.03671 4.6835 3.83304 4.68351 3.66583 4.6721C3.49177 4.66022 3.32736 4.63462 3.16796 4.56859C2.79809 4.41539 2.50423 4.12153 2.35102 3.75165C2.285 3.59225 2.25939 3.42784 2.24752 3.25378C2.24576 3.22805 2.24428 3.20146 2.24302 3.17399H1.00106C0.697905 3.17399 0.452148 2.92823 0.452148 2.62507C0.452148 2.32192 0.697905 2.07616 1.00106 2.07616H2.24302C2.24428 2.04869 2.24576 2.0221 2.24752 1.99637C2.25939 1.82231 2.285 1.6579 2.35102 1.4985C2.50423 1.12862 2.79809 0.834762 3.16796 0.681555C3.32736 0.615531 3.49177 0.589928 3.66583 0.578052C3.83304 0.566643 4.03671 0.566647 4.28068 0.566651Z" fill="#1A1A1A" style="fill:#1A1A1A;fill:color(display-p3 0.1020 0.1020 0.1020);fill-opacity:1;"/>
<path d="M1.00106 7.56529C0.697905 7.56529 0.452148 7.81105 0.452148 8.1142C0.452148 8.41736 0.697905 8.66312 1.00106 8.66312H4.29454C4.5977 8.66312 4.84345 8.41736 4.84345 8.1142C4.84345 7.81105 4.5977 7.56529 4.29454 7.56529H1.00106Z" fill="#1A1A1A" style="fill:#1A1A1A;fill:color(display-p3 0.1020 0.1020 0.1020);fill-opacity:1;"/>
<path d="M9.63954 7.56529C9.63828 7.53782 9.6368 7.51123 9.63504 7.4855C9.62317 7.31144 9.59756 7.14703 9.53154 6.98763C9.37833 6.61775 9.08447 6.32389 8.7146 6.17069C8.5552 6.10466 8.39078 6.07906 8.21672 6.06718C8.04953 6.05577 7.84587 6.05578 7.60192 6.05578H7.57416C7.3302 6.05578 7.12651 6.05577 6.95931 6.06718C6.78525 6.07906 6.62084 6.10466 6.46144 6.17069C6.09157 6.32389 5.79771 6.61775 5.6445 6.98763C5.57847 7.14703 5.55287 7.31144 5.541 7.4855C5.52959 7.6527 5.52959 7.85635 5.52959 8.1003V8.12806C5.52959 8.37202 5.52959 8.57571 5.541 8.74291C5.55287 8.91697 5.57847 9.08138 5.6445 9.24078C5.79771 9.61066 6.09157 9.90452 6.46144 10.0577C6.62084 10.1237 6.78525 10.1494 6.95931 10.1612C7.12651 10.1726 7.33016 10.1726 7.57411 10.1726H7.60188C7.84583 10.1726 8.04953 10.1726 8.21672 10.1612C8.39078 10.1494 8.5552 10.1237 8.7146 10.0577C9.08447 9.90452 9.37833 9.61066 9.53154 9.24078C9.59756 9.08138 9.62317 8.91697 9.63504 8.74291C9.6368 8.71718 9.63828 8.69059 9.63954 8.66312H10.8815C11.1847 8.66312 11.4304 8.41736 11.4304 8.1142C11.4304 7.81105 11.1847 7.56529 10.8815 7.56529H9.63954Z" fill="#1A1A1A" style="fill:#1A1A1A;fill:color(display-p3 0.1020 0.1020 0.1020);fill-opacity:1;"/>
<path d="M7.58802 2.07616C7.28486 2.07616 7.03911 2.32192 7.03911 2.62507C7.03911 2.92823 7.28486 3.17399 7.58802 3.17399L10.8815 3.17399C11.1847 3.17399 11.4304 2.92823 11.4304 2.62507C11.4304 2.32192 11.1847 2.07616 10.8815 2.07616L7.58802 2.07616Z" fill="#1A1A1A" style="fill:#1A1A1A;fill:color(display-p3 0.1020 0.1020 0.1020);fill-opacity:1;"/>
</svg>
