<svg width="13" height="17" viewBox="0 0 13 17" fill="none" xmlns="http://www.w3.org/2000/svg">
<path d="M6.15027 0.5C2.77568 0.5 0.0302734 3.24544 0.0302734 6.62C0.0302734 9.99456 2.77571 12.74 6.15027 12.74C9.52484 12.74 12.2703 9.99456 12.2703 6.62C12.2703 3.24544 9.52487 0.5 6.15027 0.5ZM9.02212 10.5728L6.15027 9.21372L3.27843 10.5728L3.68349 7.42153L1.50355 5.11025L4.62571 4.52172L6.15027 1.73416L7.6748 4.52166L10.797 5.11019L8.61705 7.4215L9.02212 10.5728Z" fill="#303E7C" style="fill:#303E7C;fill:color(display-p3 0.1882 0.2431 0.4863);fill-opacity:1;"/>
<path d="M7.06483 5.3608L6.14992 3.68799L5.23502 5.3608L3.36133 5.71399L4.66958 7.10105L4.42648 8.99218L6.14992 8.17658L7.87336 8.99218L7.63027 7.10105L8.93852 5.71399L7.06483 5.3608Z" fill="#303E7C" style="fill:#303E7C;fill:color(display-p3 0.1882 0.2431 0.4863);fill-opacity:1;"/>
<path d="M1.875 14.358C2.28891 14.2979 2.68528 14.1578 3.04591 13.9441V12.9618C2.635 12.7602 2.24303 12.5177 1.875 12.2363V14.358Z" fill="#303E7C" style="fill:#303E7C;fill:color(display-p3 0.1882 0.2431 0.4863);fill-opacity:1;"/>
<path d="M9.25488 13.9441C9.61551 14.1578 10.0119 14.2979 10.4258 14.358V12.2363C10.0578 12.5177 9.66579 12.7602 9.25488 12.9618V13.9441Z" fill="#303E7C" style="fill:#303E7C;fill:color(display-p3 0.1882 0.2431 0.4863);fill-opacity:1;"/>
<path d="M3.9834 13.3398V16.5C4.67743 16.3998 5.31559 16.0774 5.8154 15.5675L6.15015 15.226L6.4849 15.5675C6.98471 16.0774 7.62287 16.3998 8.3169 16.5V13.3398C7.62584 13.5618 6.89693 13.6775 6.15015 13.6775C5.40337 13.6775 4.67446 13.5618 3.9834 13.3398Z" fill="#303E7C" style="fill:#303E7C;fill:color(display-p3 0.1882 0.2431 0.4863);fill-opacity:1;"/>
</svg>
