<svg width="21" height="23" viewBox="0 0 21 23" fill="none" xmlns="http://www.w3.org/2000/svg">
<path d="M17.2601 4.82277C16.0431 4.02925 15.1647 2.75961 14.8906 1.27955C14.8314 0.959775 14.7989 0.630672 14.7989 0.293945H10.9146L10.9084 15.8609C10.8431 17.6041 9.40834 19.0033 7.64947 19.0033C7.1028 19.0033 6.58806 18.8666 6.13485 18.6281C5.09556 18.0812 4.38431 16.9918 4.38431 15.7382C4.38431 13.9377 5.84913 12.4729 7.64947 12.4729C7.98554 12.4729 8.30794 12.5283 8.61289 12.6238V8.65838C8.2973 8.61542 7.97664 8.58855 7.64947 8.58855C3.70717 8.58855 0.5 11.7959 0.5 15.7382C0.5 18.1569 1.70848 20.2975 3.55216 21.5918C4.71345 22.4071 6.12602 22.8876 7.64947 22.8876C11.5918 22.8876 14.7989 19.6805 14.7989 15.7382V7.84437C16.3224 8.93784 18.1889 9.5822 20.203 9.5822V5.69789C19.1181 5.69789 18.1076 5.37535 17.2601 4.82277" fill="#1A1A1A" style="fill:#1A1A1A;fill:color(display-p3 0.1020 0.1020 0.1020);fill-opacity:1;"/>
</svg>
