<svg width="20" height="19" viewBox="0 0 20 19" fill="none" xmlns="http://www.w3.org/2000/svg">
<g clip-path="url(#clip0_303_23923)">
<path d="M17.2732 3.17773H14.8234C14.4452 1.33921 12.8279 0.0189724 10.9509 0.0166016H9.37034C7.49333 0.0189724 5.87604 1.33921 5.49796 3.17773H3.04809C2.61163 3.17773 2.25781 3.53154 2.25781 3.968C2.25781 4.40446 2.61163 4.75831 3.04809 4.75831H3.83836V15.032C3.84099 17.2132 5.60857 18.9809 7.7898 18.9835H12.5315C14.7127 18.9809 16.4803 17.2132 16.483 15.032V4.75831H17.2732C17.7097 4.75831 18.0635 4.4045 18.0635 3.96804C18.0635 3.53158 17.7097 3.17773 17.2732 3.17773ZM9.37038 13.4515C9.37038 13.8879 9.01657 14.2417 8.58011 14.2417C8.14361 14.2417 7.7898 13.8879 7.7898 13.4515V8.70975C7.7898 8.27329 8.14361 7.91948 8.58007 7.91948C9.01653 7.91948 9.37034 8.27329 9.37034 8.70975V13.4515H9.37038ZM12.5315 13.4515C12.5315 13.8879 12.1777 14.2417 11.7412 14.2417C11.3048 14.2417 10.951 13.8879 10.951 13.4515V8.70975C10.951 8.27329 11.3048 7.91948 11.7412 7.91948C12.1777 7.91948 12.5315 8.27329 12.5315 8.70975V13.4515ZM7.13466 3.17773C7.47081 2.2312 8.36595 1.59837 9.37038 1.59715H10.951C11.9554 1.59837 12.8505 2.2312 13.1867 3.17773H7.13466Z" fill="#D40000" style="fill:#D40000;fill:color(display-p3 0.8316 0.0000 0.0000);fill-opacity:1;"/>
</g>
<defs>
<clipPath id="clip0_303_23923">
<rect width="18.9669" height="18.9669" fill="white" style="fill:white;fill-opacity:1;" transform="translate(0.677734 0.0166016)"/>
</clipPath>
</defs>
</svg>
