<svg width="18" height="18" viewBox="0 0 18 18" fill="none" xmlns="http://www.w3.org/2000/svg">
<g clip-path="url(#clip0_655_8412)">
<path d="M4.79285 5.15039H8.62599C9.01433 5.15039 9.32912 4.8356 9.32912 4.44726C9.32912 4.05893 9.01433 3.74414 8.62599 3.74414H4.79285C4.40451 3.74414 4.08972 4.05893 4.08972 4.44726C4.08972 4.8356 4.40451 5.15039 4.79285 5.15039Z" fill="#303E7C" style="fill:#303E7C;fill:color(display-p3 0.1882 0.2431 0.4863);fill-opacity:1;"/>
<path d="M5.70803 9.71875H4.79285C4.40451 9.71875 4.08972 10.0335 4.08972 10.4219C4.08972 10.8102 4.40451 11.125 4.79285 11.125H5.70807C6.0964 11.125 6.41119 10.8102 6.41119 10.4219C6.41119 10.0335 6.09637 9.71875 5.70803 9.71875Z" fill="#303E7C" style="fill:#303E7C;fill:color(display-p3 0.1882 0.2431 0.4863);fill-opacity:1;"/>
<path d="M17.0904 11.545L14.444 8.90439C14.1694 8.63032 13.7246 8.63056 13.4502 8.90492L11.7273 10.6279C11.5906 10.7645 11.409 10.8397 11.2157 10.8397C11.0224 10.8397 10.8408 10.7645 10.7041 10.6278L9.2446 9.16835C8.96251 8.88625 8.96251 8.42722 9.2446 8.14516L12.6961 4.69363C12.8328 4.55698 13.0145 4.48175 13.2077 4.48175C13.401 4.48175 13.5827 4.55701 13.7193 4.69367L15.1788 6.15318C15.3034 6.27773 15.3781 6.44293 15.3892 6.61836C15.4138 7.00592 15.7481 7.30025 16.1355 7.27557C16.523 7.251 16.8172 6.91691 16.7927 6.52935C16.7599 6.01216 16.5399 5.52539 16.1732 5.15875L14.7137 3.69927C14.3114 3.29702 13.7766 3.07546 13.2077 3.07546C13.0399 3.07546 12.875 3.09476 12.7157 3.13228V2.81249C12.7157 1.26169 11.454 0 9.90318 0H3.51562C1.96481 0 0.703125 1.26169 0.703125 2.81249V15.4788C0.703125 16.1586 0.982406 16.8217 1.46939 17.298C1.94431 17.7625 2.56436 18.0117 3.21753 17.9991C3.21753 17.9991 11.742 18 11.7644 18C12.3929 17.9999 12.9862 17.7594 13.4424 17.3176C13.918 16.8569 14.1908 16.2125 14.1908 15.5495C14.1908 14.5399 13.584 13.6692 12.7156 13.2823V11.6281C12.7176 11.6261 12.7197 11.6241 12.7217 11.6221L13.9479 10.3959L16.0971 12.5404C16.2343 12.6774 16.414 12.7458 16.5937 12.7458C16.7739 12.7458 16.9541 12.677 17.0914 12.5394C17.3658 12.2645 17.3653 11.8193 17.0904 11.545ZM11.3094 13.0686H4.81777C4.42943 13.0686 4.11465 13.3834 4.11465 13.7718C4.11465 14.1601 4.42943 14.4749 4.81777 14.4749H11.7076C12.3015 14.4749 12.7846 14.957 12.7846 15.5496C12.7846 15.8381 12.6708 16.1073 12.4641 16.3074C12.2648 16.5005 12.0042 16.6023 11.7302 16.5932C11.7227 16.5929 3.21039 16.5928 3.21039 16.5928C3.20523 16.5928 3.20002 16.5929 3.19482 16.593C2.92018 16.5998 2.65693 16.4924 2.45271 16.2926C2.23453 16.0792 2.10937 15.7826 2.10937 15.4788V2.81249C2.10937 2.03709 2.74022 1.40625 3.51562 1.40625H9.90315C10.6786 1.40625 11.3094 2.03709 11.3094 2.81249V4.09155L8.66969 6.73125H4.79284C4.40451 6.73125 4.08972 7.04604 4.08972 7.43437C4.08972 7.82271 4.40451 8.1375 4.79284 8.1375H7.69123C7.5159 8.83978 7.70226 9.61458 8.25028 10.1626L9.70979 11.6221C10.112 12.0244 10.6469 12.2459 11.2157 12.2459C11.2471 12.2459 11.2783 12.2452 11.3095 12.2439V13.0686H11.3094Z" fill="#303E7C" style="fill:#303E7C;fill:color(display-p3 0.1882 0.2431 0.4863);fill-opacity:1;"/>
</g>
<defs>
<clipPath id="clip0_655_8412">
<rect width="18" height="18" fill="white" style="fill:white;fill-opacity:1;"/>
</clipPath>
</defs>
</svg>
