<svg width="25" height="25" viewBox="0 0 25 25" fill="none" xmlns="http://www.w3.org/2000/svg">
<path d="M9.81805 19.4583C10.008 19.4583 10.198 19.3883 10.348 19.2383C10.638 18.9483 10.638 18.4683 10.348 18.1783L4.80805 12.6383L10.348 7.0983C10.638 6.8083 10.638 6.3283 10.348 6.0383C10.058 5.7483 9.57805 5.7483 9.28805 6.0383L3.21805 12.1083C2.92805 12.3983 2.92805 12.8783 3.21805 13.1683L9.28805 19.2383C9.43805 19.3883 9.62805 19.4583 9.81805 19.4583Z" fill="#303E7C" style="fill:#303E7C;fill:color(display-p3 0.1882 0.2431 0.4863);fill-opacity:1;"/>
<path d="M3.91805 13.3883H20.748C21.158 13.3883 21.498 13.0483 21.498 12.6383C21.498 12.2283 21.158 11.8883 20.748 11.8883H3.91805C3.50805 11.8883 3.16805 12.2283 3.16805 12.6383C3.16805 13.0483 3.50805 13.3883 3.91805 13.3883Z" fill="#303E7C" style="fill:#303E7C;fill:color(display-p3 0.1882 0.2431 0.4863);fill-opacity:1;"/>
</svg>
