<svg width="27" height="27" viewBox="0 0 27 27" fill="none" xmlns="http://www.w3.org/2000/svg">
<path fill-rule="evenodd" clip-rule="evenodd" d="M13.1458 0.222168C5.91093 0.222168 0.0459192 6.08718 0.0459192 13.322C0.0459192 15.1267 0.411341 16.8483 1.07309 18.4151C1.24669 18.8261 1.36371 19.1039 1.44188 19.3173C1.52161 19.535 1.53281 19.6138 1.53421 19.6341C1.54213 19.7485 1.51317 19.9041 1.31557 20.6426L0.0769763 25.2718C-0.00739008 25.5871 0.0828052 25.9234 0.313608 26.1542C0.54441 26.385 0.880781 26.4752 1.19609 26.3909L5.82525 25.1523C6.56376 24.9547 6.71935 24.9257 6.83378 24.9336C6.85408 24.935 6.93283 24.9462 7.15053 25.026C7.36397 25.1041 7.64171 25.2212 8.05274 25.3948C9.61958 26.0565 11.3412 26.4219 13.1458 26.4219C20.3807 26.4219 26.2457 20.5569 26.2457 13.322C26.2457 6.08718 20.3807 0.222168 13.1458 0.222168ZM9.45698 6.31516L9.34407 6.31504C8.75955 6.31405 8.22033 6.31314 7.69003 6.55537C7.30476 6.73135 6.97695 7.03033 6.73824 7.32895C6.49953 7.62757 6.2801 8.01319 6.1933 8.42776C6.07431 8.99604 6.17244 9.42843 6.2774 9.89099L6.2919 9.95496C6.8214 12.2999 8.05927 14.5992 9.9637 16.5036C11.8681 18.4081 14.1675 19.6459 16.5124 20.1754L16.5763 20.1899C17.0389 20.2949 17.4713 20.393 18.0396 20.274C18.4541 20.1872 18.8398 19.9678 19.1384 19.7291C19.437 19.4904 19.736 19.1626 19.912 18.7773C20.1542 18.247 20.1533 17.7078 20.1523 17.1233L20.1522 17.0104C20.1522 16.7418 20.1439 16.2896 19.9697 15.8716C19.7616 15.3722 19.3329 14.9607 18.6609 14.8554L18.6539 14.8543C17.8213 14.7238 17.1879 14.6245 16.7402 14.5594C16.5161 14.5269 16.3301 14.5016 16.1846 14.4851C16.065 14.4715 15.9004 14.4544 15.7627 14.4625C15.1661 14.4974 14.6917 14.7394 14.3241 14.9912C14.0903 15.1515 13.8361 15.3661 13.6363 15.5349C13.5578 15.6012 13.4876 15.6605 13.4304 15.7065L13.3361 15.7825C12.9763 16.0721 12.7964 16.217 12.5746 16.2124C12.3528 16.2079 12.1901 16.0654 11.8646 15.7805C11.6575 15.5993 11.4545 15.4094 11.2562 15.2111C11.0579 15.0128 10.8681 14.8098 10.6868 14.6028C10.4019 14.2773 10.2595 14.1145 10.2549 13.8927C10.2504 13.6709 10.3952 13.491 10.6849 13.1312L10.7608 13.0369C10.8069 12.9797 10.8661 12.9096 10.9324 12.8311C11.1012 12.6312 11.3159 12.3771 11.4761 12.1432C11.728 11.7757 11.97 11.3012 12.0049 10.7046C12.0129 10.567 11.9959 10.4024 11.9823 10.2828C11.9657 10.1373 11.9405 9.95126 11.9079 9.72715C11.8428 9.27934 11.7436 8.64631 11.6131 7.81335L11.612 7.80641C11.5067 7.13443 11.0951 6.70573 10.5958 6.49764C10.1778 6.32345 9.72552 6.31516 9.45698 6.31516Z" fill="#1BB169" style="fill:#1BB169;fill:color(display-p3 0.1059 0.6941 0.4118);fill-opacity:1;"/>
</svg>
