<svg width="19" height="19" viewBox="0 0 19 19" fill="none" xmlns="http://www.w3.org/2000/svg">
<path d="M7.27219 1.78223H11.2172C11.6147 1.78223 11.9372 2.10323 11.9372 2.49848C11.9372 2.89373 11.6147 3.21398 11.2172 3.21398H9.8747V4.03223H9.90503C10.235 4.03223 10.5275 4.03223 10.775 4.06447C11.0375 4.10047 11.3225 4.18522 11.555 4.41697C11.7875 4.64872 11.87 4.92998 11.9075 5.19698C11.9375 5.43923 11.9375 5.73623 11.9375 6.06098V7.62847C11.9375 7.95322 11.9375 8.25022 11.9075 8.49247C11.87 8.75947 11.7875 9.04074 11.555 9.27249C11.3225 9.50424 11.0375 9.58898 10.775 9.62498C10.5275 9.65723 10.2351 9.65723 9.90518 9.65723H8.34497C8.01503 9.65723 7.72246 9.65723 7.475 9.62498C7.2125 9.58898 6.92747 9.50424 6.69497 9.27249C6.46247 9.04074 6.38003 8.75947 6.34253 8.49247C6.31253 8.25022 6.3125 7.95322 6.3125 7.62847V6.09473C6.3125 5.76998 6.31253 5.43923 6.34253 5.19698C6.38003 4.92998 6.46247 4.64872 6.69497 4.41697C6.92747 4.18522 7.2125 4.10047 7.475 4.06447C7.72246 4.03223 8.01488 4.03223 8.34481 4.03223H8.3747V3.21398H7.30969C6.83719 3.21398 6.5372 3.21472 6.3122 3.23872C6.1022 3.26122 6.0272 3.29722 5.9747 3.32947C5.9222 3.36172 5.8547 3.42023 5.7497 3.60023C5.64792 3.77597 5.53999 4.0125 5.37593 4.37202L5.32219 4.48973L3.1997 9.23198C3.0347 9.59348 2.60722 9.75622 2.23972 9.59497C1.87972 9.43447 1.71469 9.01148 1.87219 8.65073L4.01723 3.87622C4.18973 3.49072 4.34719 3.15097 4.49719 2.88247C4.66969 2.59147 4.8797 2.32824 5.1872 2.12874C5.4947 1.92999 5.8247 1.85122 6.1622 1.81522C6.46966 1.78223 6.84476 1.78223 7.27219 1.78223Z" fill="#161616" style="fill:#161616;fill:color(display-p3 0.0863 0.0863 0.0863);fill-opacity:1;"/>
<path d="M6.125 15.6572C5.7125 15.6572 5.375 15.9932 5.375 16.4072C5.375 16.8212 5.7125 17.1572 6.125 17.1572H12.125C12.5375 17.1572 12.875 16.8212 12.875 16.4072C12.875 15.9932 12.5375 15.6572 12.125 15.6572H10.8125V10.4065C10.7075 10.4072 10.6025 10.4072 10.49 10.4072H8.50998C8.10498 10.4072 7.7375 10.4072 7.4375 10.369V15.6572H6.125Z" fill="#161616" style="fill:#161616;fill:color(display-p3 0.0863 0.0863 0.0863);fill-opacity:1;"/>
<path d="M15.08 11.719C15.185 11.6005 15.3425 11.5322 15.5 11.5322C15.6575 11.5322 15.815 11.6005 15.92 11.719V11.722C15.9575 11.7625 16.055 11.8757 16.1075 11.9417C16.22 12.0752 16.37 12.262 16.52 12.4705C16.67 12.6775 16.8275 12.9175 16.9475 13.1575C17.06 13.3787 17.1875 13.6735 17.1875 13.9697C17.1875 14.902 16.43 15.6572 15.5 15.6572C14.57 15.6572 13.8125 14.902 13.8125 13.9697C13.8125 13.6735 13.94 13.3787 14.0525 13.1575C14.1725 12.9175 14.33 12.6775 14.48 12.4705C14.63 12.262 14.78 12.0752 14.8925 11.9417C14.945 11.8757 15.0425 11.7625 15.08 11.722V11.719Z" fill="#161616" style="fill:#161616;fill:color(display-p3 0.0863 0.0863 0.0863);fill-opacity:1;"/>
<path d="M13.8126 8.53223H13.0552C13.0626 8.31856 13.0626 8.08554 13.0626 7.83985V5.84961C13.0626 5.60391 13.0626 5.37089 13.0552 5.15723H14.3751C15.9276 5.15723 17.1876 6.41648 17.1876 7.96973V9.84473C17.1876 10.1552 16.9326 10.4072 16.6251 10.4072H14.3751C14.0676 10.4072 13.8126 10.1552 13.8126 9.84473V8.53223Z" fill="#161616" style="fill:#161616;fill:color(display-p3 0.0863 0.0863 0.0863);fill-opacity:1;"/>
</svg>
