<svg width="13.5" height="13.5" viewBox="0 0 14 15" fill="none" xmlns="http://www.w3.org/2000/svg">
                                <path fill-rule="evenodd" clip-rule="evenodd" d="M7.00001 0.78125C3.28935 0.78125 0.281261 3.78934 0.281261 7.5C0.281261 8.42556 0.468681 9.30855 0.808083 10.1122C0.897118 10.323 0.95714 10.4654 0.99723 10.5749C1.03812 10.6865 1.04386 10.7269 1.04458 10.7373C1.04865 10.796 1.03379 10.8758 0.93245 11.2546L0.297189 13.6288C0.253919 13.7906 0.300179 13.9631 0.418554 14.0815C0.53693 14.1998 0.70945 14.2461 0.87117 14.2028L3.2454 13.5676C3.62417 13.4662 3.70397 13.4514 3.76266 13.4554C3.77307 13.4561 3.81346 13.4619 3.92512 13.5028C4.03459 13.5429 4.17704 13.6029 4.38785 13.6919C5.19146 14.0313 6.07445 14.2188 7.00001 14.2188C10.7107 14.2188 13.7188 11.2107 13.7188 7.5C13.7188 3.78934 10.7107 0.78125 7.00001 0.78125ZM5.10806 3.90626L5.05015 3.9062C4.75036 3.90569 4.47381 3.90523 4.20182 4.02946C4.00422 4.11972 3.83609 4.27307 3.71366 4.42622C3.59123 4.57938 3.47869 4.77716 3.43417 4.98979C3.37314 5.28125 3.42347 5.50302 3.4773 5.74026L3.48474 5.77307C3.75631 6.97575 4.3912 8.15504 5.36796 9.13179C6.34471 10.1086 7.524 10.7434 8.72668 11.015L8.75949 11.0224C8.99673 11.0763 9.2185 11.1266 9.50996 11.0656C9.72259 11.0211 9.92037 10.9085 10.0735 10.7861C10.2267 10.6637 10.38 10.4955 10.4703 10.2979C10.5945 10.0259 10.5941 9.74939 10.5935 9.4496L10.5935 9.39169C10.5935 9.25395 10.5892 9.022 10.4999 8.80762C10.3932 8.55151 10.1733 8.34043 9.82865 8.28642L9.82507 8.28586C9.39799 8.21893 9.07315 8.16802 8.84352 8.13464C8.72858 8.11793 8.63318 8.10497 8.55855 8.09649C8.4972 8.08953 8.41279 8.08077 8.34219 8.0849C8.03621 8.10281 7.79286 8.22692 7.60437 8.35609C7.48441 8.4383 7.35406 8.54839 7.25156 8.63496C7.2113 8.66897 7.17534 8.69934 7.14599 8.72297L7.09762 8.76191C6.9131 8.91048 6.82083 8.98477 6.70706 8.98243C6.59329 8.98009 6.50982 8.90703 6.34289 8.76091C6.23669 8.66795 6.13259 8.5706 6.03087 8.46888C5.92915 8.36716 5.8318 8.26306 5.73884 8.15686C5.59272 7.98993 5.51966 7.90646 5.51732 7.79269C5.51498 7.67892 5.58926 7.58665 5.73784 7.40213L5.77678 7.35376C5.80041 7.32441 5.83079 7.28845 5.86479 7.24819C5.95136 7.14569 6.06146 7.01534 6.14366 6.89538C6.27283 6.70689 6.39694 6.46354 6.41485 6.15756C6.41898 6.08696 6.41022 6.00255 6.40325 5.9412C6.39478 5.86657 6.38182 5.77117 6.36511 5.65623C6.33173 5.42655 6.28084 5.10188 6.21389 4.67466L6.21333 4.6711C6.15932 4.32645 5.94824 4.10658 5.69213 3.99985C5.47775 3.91052 5.2458 3.90626 5.10806 3.90626Z" fill="white" style="fill:white;fill-opacity:1;"></path>
                            </svg>