<svg width="24" height="17" viewBox="0 0 24 17" fill="none" xmlns="http://www.w3.org/2000/svg">
<path fill-rule="evenodd" clip-rule="evenodd" d="M20.6716 1.03178C21.6432 1.29281 22.4118 2.0614 22.6729 3.03301C23.1514 4.80222 23.1659 8.47115 23.1659 8.47115C23.1659 8.47115 23.1659 12.1546 22.6874 13.9093C22.4263 14.8809 21.6577 15.6495 20.6861 15.9105C18.9314 16.3891 11.8691 16.3891 11.8691 16.3891C11.8691 16.3891 4.80676 16.3891 3.05206 15.9105C2.08044 15.6495 1.31185 14.8809 1.05082 13.9093C0.572266 12.1401 0.572266 8.47115 0.572266 8.47115C0.572266 8.47115 0.572266 4.80222 1.03632 3.04752C1.29735 2.0759 2.06594 1.30731 3.03755 1.04628C4.79226 0.567721 11.8546 0.553223 11.8546 0.553223C11.8546 0.553223 18.9169 0.553223 20.6716 1.03178ZM15.4655 8.47116L9.60682 11.8645V5.07775L15.4655 8.47116Z" fill="#1A1A1A" style="fill:#1A1A1A;fill:color(display-p3 0.1020 0.1020 0.1020);fill-opacity:1;"/>
</svg>
